<?xml version="1.0" encoding="utf-8"?>
<!-- Generator: Adobe Illustrator 19.1.0, SVG Export Plug-In . SVG Version: 6.00 Build 0)  -->
<svg version="1.1" id="Layer_1" xmlns="http://www.w3.org/2000/svg" xmlns:xlink="http://www.w3.org/1999/xlink" x="0px" y="0px"
	 viewBox="0 0 100 100" style="enable-background:new 0 0 100 100;" xml:space="preserve">
<style type="text/css">
	.st2{enable-background:new    ;}
	.st6{fill-rule:evenodd;clip-rule:evenodd;fill:#E34D26;}
</style>
<g class="st2">
	<path class="st6" d="M47.4,45.2c-0.9,3.1-2.6,6.6-4.4,10.5c-0.9,1.8-1.8,3.1-2.6,4.8h0.4h0.4c5.7-2.2,11-3.5,14.5-4
		c-0.9-0.4-1.3-0.9-1.8-1.3C51.8,52.6,49.1,49.1,47.4,45.2z M75.9,62.3c-0.9,0.4-2.2,0.9-3.9,0.9c-3.5,0-8.8-0.9-13.2-3.1
		c-7.5,0.9-13.2,1.8-17.6,3.5c-0.4,0-0.4,0-0.9,0.4c-5.3,9.2-9.7,13.6-13.2,13.6c-0.9,0-1.3,0-1.8-0.4l-2.2-1.3v-0.4
		c-0.4-0.9-0.4-1.3-0.4-2.2c0.4-2.2,3.1-6.1,8.3-9.2c0.9-0.4,2.2-1.3,4-2.2c1.3-2.2,2.6-4.8,4.4-7.9c2.2-4.4,3.5-8.8,4.8-12.7
		c-1.8-5.3-2.6-8.3-0.9-14.5c0.4-1.8,1.8-3.5,3.5-3.5h0.9c0.9,0,1.8,0.4,2.6,0.9c3.1,3.1,1.8,10.1,0,15.8v0.4
		c1.8,4.8,4.4,8.8,7,11.4c1.3,0.9,2.2,1.8,4,2.6c2.2,0,4-0.4,5.7-0.4c5.3,0,8.8,0.9,10.1,3.1c0.4,0.9,0.4,1.8,0.4,2.6
		C77.2,60.1,76.8,61.4,75.9,62.3z M80.7,10.5H19.3c-4.8,0-8.8,3.9-8.8,8.8v61.4c0,4.8,3.9,8.8,8.8,8.8h61.4c4.8,0,8.8-3.9,8.8-8.8
		V19.3C89.5,14.4,85.6,10.5,80.7,10.5z M74.1,58.8c-0.4-0.4-2.2-1.8-8.3-1.8h-0.9c0,0,0,0,0,0.4c3.1,1.3,6.1,2.2,8.3,2.2h0.9h0.4
		c0,0,0,0,0-0.4C74.6,59.2,74.1,59.2,74.1,58.8z M33.8,65.4c-0.9,0.4-1.8,0.9-2.2,1.3c-3.1,2.6-5.3,5.7-5.7,7
		C28.5,73.3,31.1,70.6,33.8,65.4z M46.9,35.1L46.9,35.1c0.4-1.8,0.9-2.6,0.9-4v-0.9c0.4-2.2,0.4-3.9,0-4.4c0,0,0,0,0-0.4L47.4,25
		c0,0,0,0.4-0.4,0.4C46.1,28.1,46.1,31.1,46.9,35.1z"/>
</g>
</svg>
