<?xml version="1.0" encoding="utf-8"?>
<!-- Generator: Adobe Illustrator 19.1.0, SVG Export Plug-In . SVG Version: 6.00 Build 0)  -->
<svg version="1.1" id="Layer_1" xmlns="http://www.w3.org/2000/svg" xmlns:xlink="http://www.w3.org/1999/xlink" x="0px" y="0px"
	 viewBox="0 0 100 100" style="enable-background:new 0 0 100 100;" xml:space="preserve">
<style type="text/css">
	.st2{enable-background:new    ;}
	.st15{fill-rule:evenodd;clip-rule:evenodd;fill:#4B4B4B;}
</style>
<g class="st2">
	<path class="st15" d="M33.2,50.4H18.8c-1.1,0-2,0.8-2,1.8v29.6c0,1,0.9,1.8,2,1.8h14.3c1.1,0,2-0.8,2-1.8V52.2
		C35.2,51.2,34.3,50.4,33.2,50.4z"/>
	<path class="st15" d="M57.2,17.2H42.9c-1.1,0-2,0.8-2,1.8v62.9c0,1,0.9,1.8,2,1.8h14.3c1.1,0,2-0.8,2-1.8V18.9
		C59.2,18,58.3,17.2,57.2,17.2z"/>
	<path class="st15" d="M81.3,37.7H66.9c-1.1,0-2,0.8-2,1.8v42.3c0,1,0.9,1.8,2,1.8h14.3c1.1,0,2-0.8,2-1.8V39.5
		C83.3,38.5,82.4,37.7,81.3,37.7z"/>
</g>
</svg>
