<?xml version="1.0" encoding="utf-8"?>
<!-- Generator: Adobe Illustrator 19.1.0, SVG Export Plug-In . SVG Version: 6.00 Build 0)  -->
<svg version="1.1" id="Layer_1" xmlns="http://www.w3.org/2000/svg" xmlns:xlink="http://www.w3.org/1999/xlink" x="0px" y="0px"
	 viewBox="0 0 100 100" style="enable-background:new 0 0 100 100;" xml:space="preserve">
<style type="text/css">
	.st9{fill:#fff;}
</style>
<g>
	<path class="st9" d="M79.1,22.9C74.4,7,59.2-2.2,43,0.4C28.4,2.8,16.8,15.9,16.3,30.8C16,41.1,19.7,49.8,27.3,56.6
		c0.6,0.5,0.8,1,0.8,1.7c0,9.4,0,18.8,0,28.2c0,3.4,0,6.9,0,10.3c0,2.1,1.5,3.4,3.5,3c0.5-0.1,1.1-0.4,1.5-0.7
		c5.1-3.4,10.3-6.9,15.4-10.3c0.3,0.2,0.6,0.4,0.9,0.6c4.9,3.3,9.8,6.6,14.7,9.8c1.1,0.7,2.1,1,3.3,0.4c1.2-0.6,1.6-1.7,1.6-3
		c0-9.6,0-19.1,0-28.7c0-0.3,0-0.6-0.1-0.9c-0.3-1.5-1.6-2.5-3.1-2.4c-1.6,0.2-2.6,1.4-2.6,3.2c0,7.4,0,14.8,0,22.2v1.3
		c-0.5-0.3-0.8-0.5-1.1-0.7c-3.8-2.6-7.6-5.1-11.4-7.7c-1.7-1.1-2.6-1.1-4.3,0c-3.8,2.6-7.6,5.1-11.4,7.7c-0.3,0.2-0.6,0.4-1,0.6
		V61.2c0.4,0.2,0.7,0.3,1,0.4c4.3,2,8.8,3.1,13.6,3c9.3-0.1,17.3-3.4,23.5-10.4C80.1,45.3,82.6,34.6,79.1,22.9z M48.5,58.8
		c-14.5,0-26.3-11.8-26.3-26.5c0-14.6,11.8-26.5,26.4-26.5c14.4,0,26.2,11.9,26.2,26.5C74.8,46.9,63,58.8,48.5,58.8z"/>
	<path class="st9" d="M48.6,11.7C37.1,11.7,28,20.9,28,32.3c0,11.3,9.1,20.6,20.1,20.6c11.7,0,20.8-9,20.8-20.6
		C68.9,21,59.8,11.8,48.6,11.7z M48.5,47.1c-8,0.1-14.6-6.5-14.7-14.7c-0.1-8,6.5-14.7,14.5-14.8c8-0.1,14.6,6.5,14.7,14.7
		C63.1,40.4,56.6,47,48.5,47.1z"/>
</g>
</svg>
