<?xml version="1.0" encoding="utf-8"?>
<!-- Generator: Adobe Illustrator 19.1.0, SVG Export Plug-In . SVG Version: 6.00 Build 0)  -->
<svg version="1.1" id="Layer_1" xmlns="http://www.w3.org/2000/svg" xmlns:xlink="http://www.w3.org/1999/xlink" x="0px" y="0px"
	 viewBox="0 0 100 100" style="enable-background:new 0 0 100 100;" xml:space="preserve">
<style type="text/css">
	.st6{fill-rule:evenodd;clip-rule:evenodd;fill:#E34D26;}
</style>
<g>
	<path class="st6" d="M27.8,69.6c-11.6-12.4-10.9-32,1.5-43.6c12.4-11.6,32-10.9,43.6,1.5c11.6,12.4,10.9,32-1.5,43.6
		C59,82.6,39.4,82,27.8,69.6z M24.1,20.3c-15.5,14.5-16.4,39-1.9,54.5s39,16.4,54.5,1.9s16.4-39,1.9-54.5S39.6,5.9,24.1,20.3z
		 M40,31.8l-5.6,5.3l10.5,11.3L33.6,58.9l5.3,5.6L50.2,54l10.5,11.3l5.6-5.3L55.8,48.7l11.3-10.5l-5.3-5.6L50.5,43.1L40,31.8z"/>
</g>
</svg>
