<?xml version="1.0" encoding="utf-8"?>
<!-- Generator: Adobe Illustrator 19.1.0, SVG Export Plug-In . SVG Version: 6.00 Build 0)  -->
<svg version="1.1" id="Layer_1" xmlns="http://www.w3.org/2000/svg" xmlns:xlink="http://www.w3.org/1999/xlink" x="0px" y="0px"
	 viewBox="0 0 100 100" style="enable-background:new 0 0 100 100;" xml:space="preserve">
<style type="text/css">
	.st0{fill-rule:evenodd;clip-rule:evenodd;fill:#3A589B;}
	.st1{fill-rule:evenodd;clip-rule:evenodd;fill:#FFFFFF;}
</style>
<g>
	<circle class="st0" cx="50" cy="50" r="50"/>
	<path class="st1" d="M60.9,28l-5.7,0c-6.4,0-10.6,4.3-10.6,10.8v5h-5.7c-0.5,0-0.9,0.4-0.9,0.9V52c0,0.5,0.4,0.9,0.9,0.9h5.7v18.3
		c0,0.5,0.4,0.9,0.9,0.9H53c0.5,0,0.9-0.4,0.9-0.9V52.8h6.7c0.5,0,0.9-0.4,0.9-0.9l0-7.2c0-0.2-0.1-0.5-0.3-0.6
		c-0.2-0.2-0.4-0.3-0.6-0.3h-6.7v-4.2c0-2,0.5-3.1,3.1-3.1l3.8,0c0.5,0,0.9-0.4,0.9-0.9v-6.7C61.8,28.4,61.4,28,60.9,28z"/>
</g>
</svg>
