<?xml version="1.0" encoding="utf-8"?>
<!-- Generator: Adobe Illustrator 16.0.0, SVG Export Plug-In . SVG Version: 6.00 Build 0)  -->
<!DOCTYPE svg PUBLIC "-//W3C//DTD SVG 1.1//EN" "http://www.w3.org/Graphics/SVG/1.1/DTD/svg11.dtd">
<svg version="1.1" id="Layer_1" xmlns="http://www.w3.org/2000/svg" xmlns:xlink="http://www.w3.org/1999/xlink" x="0px" y="0px"
	 width="593.192px" height="150px" viewBox="1 -10.549 593.192 150" enable-background="new 1 -10.549 593.192 150"
	 xml:space="preserve">
<g>
	<polygon fill="#010101" points="1,10.146 1,126.815 27.556,126.815 27.556,79.968 69.629,79.968 69.629,58.484 27.556,58.484 
		27.556,31.628 72.614,31.628 72.614,10.146 	"/>
	<path fill="#010101" d="M109.016,18.499c0,7.161-5.67,13.129-14.322,13.129c-8.354,0-14.023-5.968-13.727-13.129
		C80.67,10.741,86.339,5.073,94.992,5.073S108.718,11.04,109.016,18.499z M81.565,126.815h26.258V42.073H81.565V126.815z"/>
	<path fill="#010101" d="M122.743,70.121c0-12.531-0.299-20.589-0.597-28.048h22.677l0.896,15.517h0.598
		c4.476-12.234,14.621-17.605,22.976-17.605c2.388,0,3.581,0,5.67,0.298v24.767c-1.791-0.298-4.178-0.598-7.162-0.598
		c-9.847,0-16.411,5.073-17.901,13.429c-0.3,1.79-0.598,3.879-0.598,5.968v42.968h-26.259V70.122L122.743,70.121L122.743,70.121z"/>
	<path fill="#010101" d="M182.122,103.839c4.773,2.982,14.919,6.563,22.677,6.563c8.058,0,11.339-2.686,11.339-7.162
		c0-4.476-2.686-6.563-12.531-9.847c-17.604-5.968-24.169-15.516-24.169-25.362c0-15.813,13.427-27.75,34.611-27.75
		c9.848,0,18.799,2.387,23.871,4.774l-4.773,18.201c-3.88-2.089-11.04-4.774-18.5-4.774c-6.564,0-10.146,2.687-10.146,6.863
		c0,3.879,3.282,5.968,13.726,9.847c16.113,5.669,22.977,13.727,22.977,26.258c0,15.814-12.532,27.452-36.701,27.452
		c-11.04,0-20.888-2.388-27.452-5.968L182.122,103.839z"/>
	<path fill="#010101" d="M280.588,17.904v24.169h18.799v19.396h-18.799V92.2c0,10.146,2.388,14.92,10.443,14.92
		c3.283,0,5.969-0.299,7.76-0.597l0.297,19.991c-3.58,1.492-9.847,2.388-17.306,2.388c-8.355,0-15.518-2.983-19.694-7.162
		c-4.772-5.071-7.161-13.129-7.161-25.063V61.468h-11.339V42.073h11.339v-18.5L280.588,17.904z"/>
	<path fill="#010101" d="M309.234,126.815V10.146h30.732l24.17,42.968C371,65.347,378.16,79.968,383.234,93.097h0.596
		c-1.789-15.518-2.387-31.331-2.387-48.637V10.146h24.17v116.967h-27.75l-24.467-45.354c-6.863-12.532-14.621-27.451-20.291-41.178
		l-0.598,0.298c0.598,15.518,0.896,31.929,0.896,51.024v35.209h-24.17V126.815L309.234,126.815z"/>
	<path fill="#010101" d="M441.418,92.798c0.896,11.041,11.639,16.112,23.871,16.112c8.951,0,16.412-1.192,23.275-3.581l3.58,17.903
		c-8.654,3.581-19.396,5.072-30.734,5.072c-28.943,0-45.354-16.709-45.354-43.267c0-21.482,13.428-45.354,42.967-45.354
		c27.453,0,37.896,21.483,37.896,42.371c0,4.476-0.598,8.354-0.896,10.443H441.42v0.299H441.418z M472.451,74.896
		c0-6.563-2.686-17.307-14.918-17.307c-11.041,0-15.518,10.145-16.412,17.307H472.451z"/>
	<path fill="#010101" d="M535.709,17.904v24.169h18.799v19.396h-18.799V92.2c0,10.146,2.387,14.92,10.443,14.92
		c3.281,0,5.967-0.299,7.758-0.597l0.299,19.991c-3.58,1.492-9.848,2.388-17.307,2.388c-8.355,0-15.518-2.983-19.693-7.162
		c-4.773-5.071-7.162-13.129-7.162-25.063V61.468h-11.338V42.073h11.338v-18.5L535.709,17.904z"/>
	<path fill="#010101" d="M594.193,17.307c0,9.847-7.758,17.604-17.902,17.604c-10.146,0-17.902-7.758-17.902-17.604
		c0-9.548,8.057-17.308,17.902-17.308S594.193,7.759,594.193,17.307z M563.459,17.307c0,7.161,5.371,13.129,12.531,13.129
		c7.162,0,12.533-5.669,12.533-13.129c0-7.161-5.371-13.129-12.832-13.129C568.83,4.178,563.459,10.146,563.459,17.307z
		 M573.902,25.661h-5.072V9.548c1.193-0.298,3.879-0.597,7.162-0.597c3.58,0,5.371,0.597,6.564,1.194
		c0.895,0.597,1.789,1.79,1.789,3.581c0,1.492-1.49,2.983-3.879,3.581v0.298c1.791,0.597,2.686,1.79,3.281,4.177
		s0.896,3.282,1.193,3.879h-5.668c-0.598-0.597-0.896-2.088-1.193-3.581c-0.299-1.492-1.193-2.387-2.686-2.387h-1.492V25.661
		L573.902,25.661z M574.201,16.411h1.492c1.791,0,2.982-0.597,2.982-1.79c0-1.192-1.191-2.089-2.686-2.089c-0.596,0-1.193,0-1.492,0
		v3.879H574.201z"/>
</g>
</svg>
