<?xml version="1.0" encoding="utf-8"?>
<!-- Generator: Adobe Illustrator 19.1.0, SVG Export Plug-In . SVG Version: 6.00 Build 0)  -->
<svg version="1.1" id="Layer_1" xmlns="http://www.w3.org/2000/svg" xmlns:xlink="http://www.w3.org/1999/xlink" x="0px" y="0px"
	 viewBox="0 0 100 100" style="enable-background:new 0 0 100 100;" xml:space="preserve">
<style type="text/css">
	.st2{enable-background:new    ;}
	.st7{fill-rule:evenodd;clip-rule:evenodd;fill:#010101;}
</style>
<g class="st2">
	<path class="st7" d="M46.4,73.7c5,0,9.1-4.1,9.1-9.2s-4.1-9.2-9.1-9.2s-9.1,4.1-9.1,9.2S41.4,73.7,46.4,73.7z M73.6,87.5H19.1V41.4
		h54.5V87.5z M46.4,8.8c7.7,0,14.1,6.4,14.1,14.3v9.2H32.7V23h-0.5C32.3,15.2,38.6,8.8,46.4,8.8z M73.6,32.2h-4.5V23
		c0-12.9-10-23-22.7-23S23.7,10.1,23.7,23v9.2h-4.5c-5,0-9.1,4.1-9.1,9.2v46.1c0,5.1,4.1,9.2,9.1,9.2h54.5c5,0,9.1-4.1,9.1-9.2V41.4
		C82.7,36.4,78.6,32.2,73.6,32.2z"/>
</g>
</svg>
