<?xml version="1.0" encoding="UTF-8" standalone="no"?>
<svg xmlns="http://www.w3.org/2000/svg" height="57px" width="429px" version="1.1" xmlns:xlink="http://www.w3.org/1999/xlink" viewBox="0 0 429 57"><!-- Generator: Sketch 43.1 (39012) - http://www.bohemiancoding.com/sketch -->
 <title>FirstNet SVG</title>
 <desc>Created with Sketch.</desc>
 <defs>
  <polygon id="path-1" points="1.3445e-15 22.741 1.3445e-15 0.014628 21.81 0.014628 21.81 22.741 0 22.741"/>
  <polygon id="path-3" points="5.8556e-16 12.906 5.8556e-16 0.031752 12.109 0.031752 12.109 12.906 0 12.906"/>
  <polygon id="path-5" points="0 25.931 0 0.016369 25.142 0.016369 25.142 25.931 4.7419e-16 25.931"/>
  <polygon id="path-7" points="0 13.404 0 0.0059932 12.442 0.0059932 12.442 13.404 7.0989e-17 13.404"/>
  <polygon id="path-9" points="7.7318e-16 19.817 7.7318e-16 0.026982 19.249 0.026982 19.249 19.817 0 19.817"/>
  <polygon id="path-11" points="0 56.317 54.734 56.317 54.734 0.033161 0 0.033161"/>
  <polygon id="path-13" points="0 56.317 54.734 56.317 54.734 0.033161 0 0.033161"/>
  <polygon id="path-15" points="0 56.317 54.734 56.317 54.734 0.033161 0 0.033161"/>
  <polygon id="path-17" points="0 56.317 54.734 56.317 54.734 0.033161 0 0.033161"/>
  <polygon id="path-19" points="0 56.317 54.734 56.317 54.734 0.033161 0 0.033161"/>
  <polygon id="path-21" points="0 56.317 54.734 56.317 54.734 0.033161 0 0.033161"/>
  <polygon id="path-23" points="0 56.317 54.734 56.317 54.734 0.033161 0 0.033161"/>
  <polygon id="path-25" points="0 56.317 54.734 56.317 54.734 0.033161 0 0.033161"/>
  <polygon id="path-27" points="0 56.317 54.734 56.317 54.734 0.033161 0 0.033161"/>
  <polygon id="path-29" points="0 56.317 54.734 56.317 54.734 0.033161 0 0.033161"/>
  <polygon id="path-31" points="0 56.317 54.734 56.317 54.734 0.033161 0 0.033161"/>
  <polygon id="path-33" points="0 56.317 54.734 56.317 54.734 0.033161 0 0.033161"/>
  <polygon id="path-35" points="0 56.317 54.734 56.317 54.734 0.033161 0 0.033161"/>
  <polygon id="path-37" points="0 56.317 54.734 56.317 54.734 0.033161 0 0.033161"/>
 </defs>
 <g id="Page-1" fill-rule="evenodd" fill="none">
  <g id="FirstNet-SVG">
   <polygon id="Fill-53" fill-rule="nonzero" points="71.587 12.123 87.186 12.123 87.186 16.847 77.38 16.847 77.38 22.666 86.542 22.666 86.542 27.352 77.38 27.352 77.38 37.592 71.587 37.592" fill="#020302"/>
   <path id="Fill-54" fill-rule="nonzero" fill="#020302" d="m89.193 37.592h5.755v-18.478h-5.755v18.478zm5.944-23.617c0 1.587-1.212 2.872-3.105 2.872-1.817 0-3.029-1.285-2.991-2.872-0.038-1.663 1.174-2.91 3.029-2.91s3.029 1.247 3.067 2.91z"/>
   <path id="Fill-55" fill-rule="nonzero" fill="#020302" d="m98.165 25.198c0-2.721-0.075-4.497-0.151-6.084h4.956l0.19 3.401h0.15c0.95-2.683 3.22-3.816 5-3.816 0.53 0 0.8 0 1.21 0.075v5.404c-0.41-0.076-0.9-0.151-1.55-0.151-2.12 0-3.56 1.133-3.94 2.909-0.07 0.378-0.11 0.831-0.11 1.285v9.371h-5.755v-12.394z"/>
   <path id="Fill-56" fill-rule="nonzero" fill="#020302" d="m111.11 32.567c1.06 0.642 3.26 1.398 4.96 1.398 1.75 0 2.46-0.605 2.46-1.55 0-0.944-0.56-1.398-2.72-2.116-3.83-1.285-5.3-3.363-5.26-5.554 0-3.439 2.95-6.047 7.53-6.047 2.16 0 4.09 0.492 5.23 1.058l-1.03 3.968c-0.83-0.453-2.42-1.058-4.01-1.058-1.4 0-2.2 0.567-2.2 1.512 0 0.869 0.72 1.322 2.99 2.116 3.53 1.209 5 2.985 5.04 5.706 0 3.438-2.73 5.97-8.03 5.97-2.42 0-4.58-0.529-5.98-1.285l1.02-4.118z"/>
   <path id="Fill-57" fill-rule="nonzero" fill="#020302" d="m132.62 13.824v5.29h4.13v4.232h-4.13v6.689c0 2.229 0.53 3.25 2.27 3.25 0.72 0 1.29-0.076 1.7-0.152l0.04 4.346c-0.76 0.302-2.12 0.491-3.75 0.491-1.85 0-3.4-0.642-4.31-1.587-1.06-1.096-1.59-2.872-1.59-5.479v-7.558h-2.46v-4.232h2.46v-4.005l5.64-1.285z"/>
   <path id="Fill-58" fill-rule="nonzero" fill="#020302" d="m138.87 37.592v-25.469h6.73l5.31 9.334c1.51 2.683 3.02 5.857 4.16 8.729h0.11c-0.37-3.363-0.49-6.802-0.49-10.618v-7.445h5.3v25.469h-6.06l-5.45-9.825c-1.51-2.72-3.18-6.008-4.43-8.993l-0.11 0.038c0.15 3.363 0.23 6.953 0.23 11.109v7.671h-5.3z"/>
   <path id="Fill-59" fill-rule="nonzero" fill="#020302" d="m174.49 26.256c0-1.398-0.6-3.741-3.25-3.741-2.43 0-3.41 2.192-3.56 3.741h6.81zm-6.77 3.93c0.19 2.38 2.53 3.514 5.22 3.514 1.97 0 3.56-0.264 5.11-0.756l0.76 3.892c-1.89 0.756-4.2 1.134-6.7 1.134-6.29 0-9.88-3.628-9.88-9.409 0-4.686 2.91-9.863 9.35-9.863 5.98 0 8.25 4.648 8.25 9.221 0 0.982-0.11 1.851-0.19 2.267h-11.92z"/>
   <path id="Fill-60" fill-rule="nonzero" fill="#020302" d="m188.31 13.824v5.29h4.13v4.232h-4.13v6.689c0 2.229 0.53 3.25 2.27 3.25 0.72 0 1.29-0.076 1.71-0.152l0.04 4.346c-0.76 0.302-2.12 0.491-3.75 0.491-1.86 0-3.41-0.642-4.32-1.587-1.06-1.096-1.59-2.872-1.59-5.479v-7.558h-2.46v-4.232h2.46v-4.005l5.64-1.285z"/>
   <path id="SM" fill-rule="nonzero" fill="#000" d="m421.07 15.488c-0.41 0.32-0.97 0.479-1.69 0.479-0.71 0-1.3-0.11-1.75-0.332v-0.975c0.29 0.135 0.59 0.242 0.92 0.32 0.32 0.077 0.62 0.116 0.9 0.116 0.41 0 0.71-0.078 0.91-0.233 0.19-0.155 0.29-0.364 0.29-0.625 0-0.236-0.09-0.436-0.27-0.6s-0.54-0.358-1.1-0.582c-0.58-0.233-0.99-0.499-1.22-0.798-0.24-0.299-0.36-0.659-0.36-1.078 0-0.527 0.19-0.941 0.56-1.2426 0.38-0.3019 0.88-0.4529 1.51-0.4529 0.61 0 1.21 0.1323 1.81 0.3969l-0.33 0.8406c-0.56-0.235-1.06-0.353-1.5-0.353-0.34 0-0.59 0.072-0.76 0.218-0.18 0.145-0.26 0.337-0.26 0.575 0 0.164 0.03 0.304 0.1 0.421 0.07 0.116 0.18 0.226 0.34 0.33 0.16 0.103 0.45 0.24 0.86 0.41 0.46 0.192 0.8 0.372 1.02 0.539 0.21 0.167 0.37 0.355 0.47 0.565s0.15 0.457 0.15 0.742c0 0.56-0.2 1-0.6 1.319zm4.34 0.393l-1.83-5.266h-0.04c0.05 0.782 0.07 1.515 0.07 2.199v3.067h-0.93v-6.3059h1.45l1.76 5.0159h0.02l1.81-5.0159h1.46v6.3059h-0.99v-3.118c0-0.314 0-0.722 0.02-1.225 0.02-0.504 0.03-0.808 0.04-0.915h-0.03l-1.9 5.258h-0.91z"/>
   <path id="LocalControl" fill-rule="nonzero" fill="#008740" d="m194.85 38v-26.413h7.14v20.65h10.17v5.763h-17.31zm39.07-10.28c0 3.349-0.9 5.959-2.7 7.832s-4.32 2.809-7.56 2.809c-3.11 0-5.58-0.957-7.42-2.872-1.83-1.915-2.75-4.505-2.75-7.769 0-3.336 0.9-5.929 2.7-7.777 1.8-1.849 4.33-2.774 7.58-2.774 2.01 0 3.79 0.428 5.33 1.283s2.73 2.081 3.57 3.677c0.83 1.596 1.25 3.459 1.25 5.591zm-13.26 0c0 1.759 0.24 3.099 0.71 4.02s1.25 1.382 2.36 1.382c1.1 0 1.87-0.461 2.32-1.382 0.46-0.921 0.68-2.261 0.68-4.02 0-1.746-0.23-3.065-0.68-3.956-0.46-0.892-1.25-1.337-2.35-1.337-1.09 0-1.86 0.442-2.33 1.328-0.47 0.885-0.71 2.207-0.71 3.965zm25.01 10.641c-3.35 0-5.88-0.903-7.61-2.71-1.73-1.806-2.59-4.402-2.59-7.786 0-3.397 0.93-6.028 2.8-7.895 1.86-1.867 4.52-2.801 7.96-2.801 2.38 0 4.61 0.518 6.71 1.554l-2.08 5.221c-0.86-0.373-1.65-0.671-2.37-0.894s-1.47-0.334-2.26-0.334c-1.14 0-2.03 0.445-2.65 1.337-0.63 0.891-0.94 2.15-0.94 3.776 0 3.276 1.21 4.914 3.63 4.914 2.07 0 4.06-0.603 5.96-1.807v5.619c-1.82 1.204-4 1.806-6.56 1.806zm22.38-0.361l-1.36-2.71h-0.14c-0.95 1.18-1.92 1.987-2.91 2.421s-2.27 0.65-3.83 0.65c-1.93 0-3.45-0.578-4.55-1.734-1.11-1.156-1.67-2.782-1.67-4.878 0-2.18 0.76-3.803 2.28-4.869s3.72-1.665 6.59-1.797l3.42-0.109v-0.289c0-1.686-0.83-2.529-2.49-2.529-1.5 0-3.39 0.506-5.69 1.517l-2.05-4.661c2.39-1.228 5.4-1.843 9.04-1.843 2.62 0 4.65 0.651 6.09 1.952 1.44 1.3 2.16 3.119 2.16 5.456v13.423h-4.89zm-5.24-4.625c0.85 0 1.58-0.271 2.19-0.813s0.92-1.247 0.92-2.114v-1.59l-1.63 0.073c-2.33 0.084-3.49 0.939-3.49 2.565 0 1.253 0.67 1.879 2.01 1.879zm20.4 4.625h-7.06v-28.111l7.06-0.0003v28.111zm15.48-20.939c-1.7 0-3.03 0.696-3.98 2.087s-1.43 3.309-1.43 5.754c0 5.083 1.94 7.624 5.8 7.624 1.17 0 2.3-0.163 3.4-0.488s2.2-0.717 3.31-1.174v6.034c-2.21 0.976-4.7 1.463-7.48 1.463-3.99 0-7.05-1.156-9.17-3.468-2.13-2.313-3.19-5.655-3.19-10.027 0-2.734 0.51-5.137 1.54-7.209 1.03-2.071 2.51-3.664 4.45-4.778 1.93-1.114 4.2-1.671 6.82-1.671 2.85 0 5.58 0.62 8.18 1.86l-2.18 5.619c-0.98-0.458-1.96-0.843-2.93-1.156-0.98-0.313-2.02-0.47-3.14-0.47zm29.78 10.659c0 3.349-0.9 5.959-2.7 7.832s-4.32 2.809-7.56 2.809c-3.11 0-5.58-0.957-7.42-2.872s-2.76-4.505-2.76-7.769c0-3.336 0.9-5.929 2.7-7.777 1.81-1.849 4.33-2.774 7.58-2.774 2.01 0 3.79 0.428 5.33 1.283s2.73 2.081 3.57 3.677 1.26 3.459 1.26 5.591zm-13.26 0c0 1.759 0.23 3.099 0.7 4.02s1.26 1.382 2.37 1.382c1.09 0 1.87-0.461 2.32-1.382s0.68-2.261 0.68-4.02c0-1.746-0.23-3.065-0.69-3.956-0.46-0.892-1.24-1.337-2.35-1.337-1.08 0-1.86 0.442-2.33 1.328-0.47 0.885-0.7 2.207-0.7 3.965zm28.6 10.28v-11.165c0-1.361-0.19-2.388-0.58-3.08-0.4-0.693-1.02-1.039-1.89-1.039-1.19 0-2.06 0.476-2.59 1.427-0.53 0.952-0.79 2.584-0.79 4.896v8.961h-7.06v-20.469h5.33l0.88 2.529h0.42c0.6-0.963 1.43-1.686 2.5-2.168 1.06-0.482 2.29-0.723 3.67-0.723 2.27 0 4.03 0.657 5.29 1.97s1.89 3.161 1.89 5.546v13.315h-7.07zm20.3-5.221c0.95 0 2.09-0.235 3.41-0.705v5.149c-0.95 0.41-1.85 0.702-2.71 0.876-0.87 0.175-1.87 0.262-3.03 0.262-2.37 0-4.08-0.581-5.13-1.743s-1.57-2.948-1.57-5.357v-8.437h-2.48v-2.872l3.14-2.223 1.83-4.299h4.62v4.101h5.03v5.293h-5.03v7.968c0 1.324 0.64 1.987 1.92 1.987zm17.75-15.61c0.61 0 1.2 0.049 1.75 0.145l0.4 0.072-0.63 6.667c-0.58-0.145-1.38-0.217-2.41-0.217-1.54 0-2.66 0.352-3.36 1.057-0.7 0.704-1.04 1.719-1.04 3.044v10.063h-7.07v-20.469h5.26l1.1 3.27h0.34c0.59-1.084 1.42-1.96 2.47-2.629 1.05-0.668 2.12-1.003 3.19-1.003zm22.21 10.551c0 3.349-0.9 5.959-2.7 7.832s-4.32 2.809-7.56 2.809c-3.11 0-5.58-0.957-7.42-2.872-1.83-1.915-2.75-4.505-2.75-7.769 0-3.336 0.9-5.929 2.7-7.777 1.8-1.849 4.33-2.774 7.58-2.774 2.01 0 3.78 0.428 5.33 1.283 1.54 0.855 2.73 2.081 3.56 3.677 0.84 1.596 1.26 3.459 1.26 5.591zm-13.26 0c0 1.759 0.23 3.099 0.7 4.02s1.26 1.382 2.37 1.382c1.1 0 1.87-0.461 2.32-1.382s0.68-2.261 0.68-4.02c0-1.746-0.23-3.065-0.69-3.956-0.45-0.892-1.24-1.337-2.35-1.337-1.08 0-1.86 0.442-2.33 1.328-0.47 0.885-0.7 2.207-0.7 3.965zm22.75 10.28h-7.06v-28.111l7.06-0.0003v28.111z"/>
   <polygon id="Fill-1" fill-rule="nonzero" points="28.279 26.895 54.734 26.895 54.734 0.033161 28.279 0.033161" fill="#000"/>
   <path id="Fill-2" fill-rule="nonzero" fill="#DF4A26" d="m43.079 0.43038c5.684 6.8892 0.398 14.337 0.398 14.337 1.666-0.335 2.752-1.936 2.752-1.936 4.055 1.341 5.359 4.58 5.359 4.58 2.534 5.251-2.716 7.746-3.332 8.156-0.615 0.409-0.434-0.224-0.434-0.224 0.688-2.755-1.883-4.319-4.128-4.394-2.245-0.074-3.222-4.245-3.005-5.4 0.217-1.154-0.398-0.67-0.398-0.67-6.3 4.134-4.056 11.619-4.056 11.619-4.055-2.421-5.141-6.405-5.141-6.405-2.028-6.852 5.286-12.624 5.286-12.624-0.507 2.1967-0.507 4.133-0.507 4.133 1.593-1.564 1.956-4.1334 1.956-4.1334 4.743-0.8193 5.25-7.0382 5.25-7.0382z"/>
   <g id="Fill-4-Clipped" transform="translate(0 33.556)">
    <mask id="mask-2" fill="white">
     <use xlink:href="#path-1"/>
    </mask>
    <path id="Fill-4" fill-rule="nonzero" fill="#000" mask="url(#mask-2)" d="m15.253 6.505c-7.6896-7.7003-14.373-6.5054-15.253-6.3053l-0.000012923 2.9834c0.90776-0.1736 7.9251-1.3114 13.829 3.6943 6.324 5.3626 5.6 13.853 5.117 15.864h2.679s1.883-7.969-6.372-16.236"/>
   </g>
   <path id="Fill-7" fill-rule="nonzero" fill="#000" d="m9.4354 43.413s-3.4861-3.337-9.4354-3.082l0.000012923 2.767c5.6606-1.034 9.0492 2.301 9.0492 2.301 5.1658 4.816 2.8968 10.899 2.8968 10.899h2.993s1.159-7.175-5.5036-12.885"/>
   <path id="Fill-9" fill-rule="nonzero" fill="#000" d="m12.917 42.321c-6.0541-5.577-12.082-4.908-12.917-4.783l0.0000032307 2.426c0.84522-0.186 6.9844-1.31 12.187 3.995 4.45 4.537 3.718 10.203 3.23 12.339h2.998s1.024-7.97-5.498-13.977"/>
   <g id="Fill-11-Clipped" transform="translate(0 43.392)">
    <mask id="mask-4" fill="white">
     <use xlink:href="#path-3"/>
    </mask>
    <path id="Fill-11" fill-rule="nonzero" fill="#000" mask="url(#mask-4)" d="m9.0009 3.7948c-3.8121-4.2855-8.2927-3.7992-9.0009-3.6909l-0.000016154 2.5834c0.6622-0.0921 4.5583-0.4782 7.5526 2.6467 3.2824 3.426 2.0276 7.572 2.0276 7.572h2.3658s1.207-4.4439-2.9451-9.1112"/>
   </g>
   <path id="Fill-14" fill-rule="nonzero" fill="#000" d="m6.6353 49.421c-2.7068-3.323-6.0251-3.032-6.6353-2.946l0.000016154 9.823h9.5802s0.0483-3.203-2.9449-6.877"/>
   <path id="Fill-16" fill-rule="nonzero" fill="#000" d="m0 29.436v0.617c1.0976-0.306 11.246-2.837 19.504 5.465 8.741 8.789 6.032 20.78 6.032 20.78h0.92v-26.862h-26.456z"/>
   <g id="Fill-18-Clipped" transform="translate(0 30.367)">
    <mask id="mask-6" fill="white">
     <use xlink:href="#path-5"/>
    </mask>
    <path id="Fill-18" fill-rule="nonzero" fill="#000" mask="url(#mask-6)" d="m17.86 6.7554c-8.2331-7.8002-16.849-6.7637-17.86-6.61l-0.000012923 2.6936c3.3744-0.5735 9.8687-0.742 15.977 4.398 8.762 7.373 6.3 18.694 6.3 18.694h2.752s1.593-10.874-7.169-19.176"/>
   </g>
   <path id="Fill-21" fill-rule="nonzero" fill="#D5D4D4" d="m19.504 35.518c-8.258-8.302-18.406-5.771-19.504-5.465l0.000012923 0.459c1.0112-0.154 9.6269-1.19 17.86 6.61 8.762 8.302 7.169 19.176 7.169 19.176h0.507s2.709-11.991-6.032-20.78"/>
   <path id="Fill-23" fill-rule="nonzero" fill="#D5D4D4" d="m15.977 37.604c-6.1083-5.14-12.603-4.972-15.977-4.398l0.0000096921 0.55c0.88044-0.2 7.5634-1.395 15.253 6.305 8.255 8.267 6.372 16.237 6.372 16.237h0.652s2.462-11.321-6.3-18.694"/>
   <path id="Fill-25" fill-rule="nonzero" fill="#D5D4D4" d="m7.5526 48.726c-2.9942-3.125-6.8904-2.739-7.5526-2.647l0.0000032307 0.396c0.61022-0.086 3.9285-0.377 6.6353 2.946 2.9932 3.674 2.9449 6.877 2.9449 6.877s1.2548-4.146-2.0276-7.572"/>
   <g id="Fill-27-Clipped" transform="translate(0 42.893)">
    <mask id="mask-8" fill="white">
     <use xlink:href="#path-7"/>
    </mask>
    <path id="Fill-27" fill-rule="nonzero" fill="#D5D4D4" mask="url(#mask-8)" d="m9.0492 2.5057s-3.3886-3.3349-9.0492-2.3008l-0.000012923 0.39742c0.70817-0.10832 5.1888-0.5946 9.0009 3.6909 4.1521 4.6673 2.9451 9.1108 2.9451 9.1108s2.269-6.082-2.8968-10.898"/>
   </g>
   <path id="Fill-30" fill-rule="nonzero" fill="#D5D4D4" d="m12.187 43.959c-5.2026-5.305-11.342-4.181-12.187-3.995l0.0000096921 0.367c5.9493-0.255 9.4354 3.082 9.4354 3.082 6.6626 5.71 5.5036 12.885 5.5036 12.885h0.478c0.488-2.136 1.22-7.802-3.23-12.339"/>
   <g id="Fill-32-Clipped" transform="translate(0 36.48)">
    <mask id="mask-10" fill="white">
     <use xlink:href="#path-9"/>
    </mask>
    <path id="Fill-32" fill-rule="nonzero" fill="#D5D4D4" mask="url(#mask-10)" d="m13.829 3.9534c-5.9039-5.0057-12.921-3.8679-13.829-3.6943l-0.0000096921 0.7982c0.83553-0.12487 6.8629-0.79314 12.917 4.7829 6.522 6.0078 5.498 13.977 5.498 13.977h0.531c0.483-2.011 1.207-10.501-5.117-15.864"/>
   </g>
   <path id="Fill-35" fill-rule="nonzero" fill="#000" d="m21.121 10.575c-0.253 0-0.471 0.126-0.621 0.312l-2.54-1.5764-0.656-2.7911c0.182-0.1549 0.305-0.3796 0.305-0.6401 0-0.4635-0.369-0.8428-0.819-0.8428-0.451 0-0.82 0.3793-0.82 0.8428 0 0.0302 0.014 0.0558 0.017 0.0852l-3.002 1.0585-2.425-1.0146c0.007-0.0438 0.026-0.0834 0.026-0.1291 0-0.4635-0.369-0.8428-0.8199-0.8428-0.4506 0-0.8193 0.3793-0.8193 0.8428 0 0.2715 0.1345 0.5026 0.3297 0.6572l-0.7395 2.774-2.3769 1.6454c-0.1477-0.224-0.385-0.381-0.6665-0.381-0.4507 0-0.8195 0.379-0.8195 0.842 0 0.464 0.3688 0.843 0.8195 0.843 0.1609 0 0.3028-0.061 0.4297-0.144l1.3846 2.251-0.2341 3.323c-0.0204-0.002-0.0378-0.012-0.0584-0.012-0.4508 0-0.8195 0.379-0.8195 0.843 0 0.463 0.3687 0.842 0.8195 0.842 0.4318 0 0.7795-0.351 0.8085-0.788l2.7621 0.186 2.121 2.229c-0.153 0.153-0.249 0.365-0.249 0.601 0 0.463 0.369 0.842 0.82 0.842s0.819-0.379 0.819-0.842c0-0.225-0.089-0.428-0.23-0.58l2.103-2.069 2.828-0.329c0.047 0.419 0.382 0.75 0.801 0.75 0.451 0 0.819-0.379 0.819-0.842 0-0.464-0.368-0.843-0.819-0.843-0.022 0-0.04 0.011-0.061 0.013l-0.232-3.143 1.535-2.346c0.088 0.033 0.181 0.058 0.28 0.058 0.45 0 0.819-0.379 0.819-0.843 0-0.463-0.369-0.842-0.819-0.842"/>
   <mask id="mask-12" fill="white">
    <use xlink:href="#path-11"/>
   </mask>
   <polygon id="Fill-37" points="0.093755 26.8 26.362 26.8 26.362 0.12836 0.093755 0.12836" fill-rule="nonzero" mask="url(#mask-12)" fill="#000"/>
   <mask id="mask-14" fill="white">
    <use xlink:href="#path-13"/>
   </mask>
   <path id="Fill-39" fill-rule="nonzero" fill="#FAB21B" mask="url(#mask-14)" d="m20.886 12.019c-0.097 0-0.187-0.025-0.274-0.058l-1.504 2.3 0.227 3.08c0.02-0.002 0.038-0.013 0.059-0.013 0.442 0 0.804 0.372 0.804 0.826 0 0.455-0.362 0.826-0.804 0.826-0.41 0-0.738-0.325-0.785-0.734l-2.771 0.321-2.061 2.028c0.138 0.149 0.225 0.348 0.225 0.568 0 0.455-0.361 0.826-0.803 0.826-0.441 0-0.803-0.371-0.803-0.826 0-0.23 0.094-0.438 0.243-0.588l-2.078-2.185-2.7071-0.182c-0.0285 0.428-0.3693 0.772-0.7925 0.772-0.4418 0-0.8031-0.371-0.8031-0.826 0-0.454 0.3613-0.826 0.8031-0.826 0.0202 0 0.0373 0.011 0.0573 0.012l0.2294-3.256-1.357-2.207c-0.1244 0.082-0.2635 0.142-0.4212 0.142-0.4417 0-0.8032-0.372-0.8032-0.826 0-0.455 0.3615-0.826 0.8032-0.826 0.2759 0 0.5085 0.154 0.6533 0.373l2.3295-1.6122 0.7249-2.7188c-0.1914-0.1514-0.3232-0.378-0.3232-0.644 0-0.4544 0.3613-0.826 0.803-0.826 0.4416 0 0.8036 0.3716 0.8036 0.826 0 0.0447-0.019 0.0835-0.026 0.1265l2.377 0.9944 2.942-1.0374c-0.003-0.0289-0.016-0.054-0.016-0.0835 0-0.4544 0.361-0.826 0.803-0.826s0.803 0.3716 0.803 0.826c0 0.2552-0.121 0.4755-0.299 0.6273l0.643 2.7355 2.489 1.5452c0.148-0.183 0.362-0.306 0.609-0.306 0.442 0 0.803 0.371 0.803 0.826 0 0.454-0.361 0.826-0.803 0.826m-7.742-10.412s-1.031 2.4897-10.09 1.134l-0.0003 13.459s0.2158 6.409 9.8023 9.121c0 0 10.115-1.479 10.546-9.071v-13.459c0-0.0004-7.765 1.4293-10.258-1.1837"/>
   <mask id="mask-16" fill="white">
    <use xlink:href="#path-15"/>
   </mask>
   <path id="Fill-40" fill-rule="nonzero" fill="#050606" mask="url(#mask-16)" d="m41.13 50.976c-0.298 0.211-0.291 0.437 0 0.725v-0.725z"/>
   <mask id="mask-18" fill="white">
    <use xlink:href="#path-17"/>
   </mask>
   <path id="Fill-41" fill-rule="nonzero" fill="#050606" mask="url(#mask-18)" d="m41.414 44.523c-0.076-0.056-0.154-0.116-0.231-0.175v4.054 0.135 0.135 1.665 0.146 0.164 1.531c0.336 0.548 0.864 0.74 1.264 0.799v-3.381-0.138-0.138-1.813-0.191-0.218-1.658c-0.004-0.006-0.007-0.013-0.011-0.019-0.225-0.3-0.61-0.589-1.022-0.898"/>
   <mask id="mask-20" fill="white">
    <use xlink:href="#path-19"/>
   </mask>
   <path id="Fill-42" fill-rule="nonzero" fill="#050606" mask="url(#mask-20)" d="m41.183 55.667c0 0.359 0.283 0.65 0.632 0.65s0.632-0.291 0.632-0.65v-0.95c-0.419-0.038-0.851-0.146-1.264-0.34v1.29z"/>
   <mask id="mask-22" fill="white">
    <use xlink:href="#path-21"/>
   </mask>
   <path id="Fill-43" fill-rule="nonzero" fill="#050606" mask="url(#mask-22)" d="m41.183 38.404v0.143 0.145 1.807 0.175 0.19 1.094c0.205 0.364 0.606 0.7 1.225 1.165l0.039 0.03v-3.585-0.143-0.145-1.887-0.207-0.236-0.954c-0.229-0.506-0.789-0.873-1.264-1.104v3.512z"/>
   <mask id="mask-24" fill="white">
    <use xlink:href="#path-23"/>
   </mask>
   <path id="Fill-44" fill-rule="nonzero" fill="#050606" mask="url(#mask-24)" d="m42.447 32.371c0-0.359-0.283-0.65-0.632-0.65s-0.632 0.291-0.632 0.65v0.65c0.302 0.108 0.775 0.305 1.264 0.61v-1.26z"/>
   <mask id="mask-26" fill="white">
    <use xlink:href="#path-25"/>
   </mask>
   <path id="Fill-45" fill-rule="nonzero" fill="#050606" mask="url(#mask-26)" d="m42.552 36.722c0.002-0.016 0.01-0.032 0.012-0.048 0.005-0.061-0.013-0.117-0.012-0.177v0.225z"/>
   <mask id="mask-28" fill="white">
    <use xlink:href="#path-27"/>
   </mask>
   <path id="Fill-46" fill-rule="nonzero" fill="#050606" mask="url(#mask-28)" d="m40.481 34.383c0.007 0.002 0.211 0.061 0.491 0.178 0.035 0.014 0.069 0.029 0.106 0.045 0.034 0.015 0.069 0.031 0.105 0.048 0.422 0.196 0.938 0.501 1.264 0.928 0.039 0.051 0.072 0.105 0.105 0.16 0.041 0.067 0.076 0.137 0.106 0.209 0.076 0.182 0.119 0.379 0.106 0.595-0.008 0.155-0.05 0.302-0.106 0.446v2.089c0.684-0.656 1.309-1.418 1.368-2.459 0.069-1.201-0.614-2.035-1.368-2.589-0.035-0.025-0.07-0.053-0.106-0.078-0.035-0.024-0.07-0.047-0.105-0.07-0.472-0.311-0.947-0.517-1.264-0.634-0.039-0.015-0.071-0.026-0.105-0.038-0.038-0.013-0.075-0.026-0.106-0.036-0.088-0.029-0.149-0.046-0.165-0.051-0.055-0.015-0.109-0.022-0.163-0.022-0.278 0-0.534 0.192-0.609 0.483-0.091 0.346 0.11 0.703 0.446 0.796"/>
   <mask id="mask-30" fill="white">
    <use xlink:href="#path-29"/>
   </mask>
   <path id="Fill-47" fill-rule="nonzero" fill="#050606" mask="url(#mask-30)" d="m40.972 43.907c0.035 0.029 0.07 0.057 0.106 0.086 0.035 0.028 0.07 0.057 0.105 0.085 0.12 0.094 0.24 0.184 0.356 0.271 0.343 0.258 0.666 0.504 0.908 0.762 0.037 0.04 0.073 0.08 0.105 0.12 0.016 0.02 0.036 0.038 0.05 0.058 0.021 0.027 0.037 0.062 0.056 0.092 0.259 0.423 0.312 1.1 0 1.764v2.002c0.25-0.214 0.493-0.449 0.704-0.719 1.069-1.37 0.931-3.016 0.241-3.934-0.261-0.348-0.597-0.639-0.945-0.911-0.035-0.027-0.07-0.054-0.106-0.081-0.035-0.027-0.07-0.053-0.105-0.08-0.054-0.041-0.109-0.083-0.163-0.123-0.472-0.355-0.846-0.653-1.101-0.966-0.039-0.048-0.072-0.096-0.105-0.145-0.04-0.059-0.074-0.12-0.106-0.181-0.103-0.202-0.164-0.418-0.164-0.667 0-0.18 0.064-0.357 0.164-0.534v-1.924c-0.745 0.682-1.428 1.419-1.428 2.458 0 1.2 0.697 1.967 1.428 2.567"/>
   <mask id="mask-32" fill="white">
    <use xlink:href="#path-31"/>
   </mask>
   <path id="Fill-48" fill-rule="nonzero" fill="#050606" mask="url(#mask-32)" d="m43.051 53.21c-0.023 0-0.046 0.001-0.07 0.004-0.028 0.003-0.094 0.008-0.187 0.008-0.039 0-0.088-0.003-0.136-0.005-0.035-0.002-0.068-0.004-0.106-0.008-0.033-0.003-0.069-0.009-0.105-0.014-0.382-0.052-0.884-0.207-1.264-0.647-0.038-0.044-0.07-0.1-0.105-0.15-0.036-0.05-0.074-0.094-0.106-0.15-0.075-0.132-0.141-0.279-0.193-0.448-0.161-0.527-0.078-0.885 0.193-1.231v-1.737c-0.93 0.715-1.925 1.635-1.399 3.357 0.277 0.906 0.81 1.479 1.399 1.832 0.035 0.021 0.07 0.041 0.106 0.061 0.034 0.019 0.07 0.032 0.105 0.05 0.429 0.216 0.871 0.331 1.264 0.37 0.037 0.004 0.07 0.004 0.105 0.007 0.036 0.002 0.071 0.004 0.106 0.006 0.047 0.002 0.099 0.008 0.144 0.008 0.111 0 0.215-0.005 0.308-0.015 0.346-0.038 0.596-0.355 0.561-0.711-0.032-0.333-0.302-0.587-0.62-0.587"/>
   <mask id="mask-34" fill="white">
    <use xlink:href="#path-33"/>
   </mask>
   <path id="Fill-49" fill-rule="nonzero" fill="#050606" mask="url(#mask-34)" d="m42.658 36.734c0.001-0.016 0.007-0.03 0.008-0.046 0.003-0.059-0.01-0.114-0.008-0.174v0.22z"/>
   <mask id="mask-36" fill="white">
    <use xlink:href="#path-35"/>
   </mask>
   <polygon id="Fill-50" points="28.279 56.278 54.734 56.278 54.734 29.416 28.279 29.416" fill-rule="nonzero" mask="url(#mask-36)" fill="#000"/>
   <mask id="mask-38" fill="white">
    <use xlink:href="#path-37"/>
   </mask>
   <path id="Fill-51" fill-rule="nonzero" fill="#4892C9" mask="url(#mask-38)" d="m43.027 47.114c-0.209 0.268-0.452 0.503-0.701 0.716v-1.994c0.311-0.66 0.259-1.334 0-1.755-0.018-0.03-0.034-0.064-0.055-0.092-0.014-0.019-0.034-0.038-0.05-0.057-0.032-0.04-0.067-0.08-0.104-0.12-0.241-0.257-0.563-0.502-0.904-0.758-0.116-0.087-0.235-0.177-0.355-0.27-0.035-0.028-0.069-0.057-0.104-0.085-0.036-0.028-0.07-0.057-0.105-0.085-0.729-0.598-1.422-1.362-1.422-2.556 0-1.034 0.679-1.767 1.422-2.447v1.916c-0.1 0.176-0.164 0.352-0.164 0.531 0 0.248 0.061 0.463 0.164 0.665 0.031 0.06 0.065 0.121 0.105 0.18 0.032 0.048 0.066 0.096 0.104 0.144 0.254 0.312 0.627 0.609 1.096 0.961 0.054 0.041 0.108 0.082 0.163 0.123 0.035 0.027 0.069 0.053 0.104 0.08 0.036 0.027 0.07 0.053 0.105 0.081 0.347 0.27 0.681 0.56 0.941 0.906 0.687 0.914 0.824 2.552-0.24 3.916zm-2.169 3.733v-1.524-0.163-0.146-1.658-0.134-0.134-4.035c0.077 0.058 0.155 0.118 0.23 0.174 0.41 0.308 0.793 0.595 1.017 0.894 0.005 0.005 0.008 0.013 0.012 0.019v1.65 0.217 0.19 1.805 0.138 0.137 3.365c-0.399-0.059-0.924-0.249-1.259-0.795zm-0.073-1.197v0.722c-0.262-0.287-0.269-0.512 0-0.722zm1.992 3.516c-0.093 0.01-0.197 0.015-0.307 0.015-0.045 0-0.097-0.006-0.144-0.008-0.034-0.002-0.069-0.004-0.105-0.006-0.035-0.003-0.068-0.003-0.104-0.007-0.391-0.039-0.832-0.153-1.259-0.368-0.034-0.018-0.07-0.031-0.104-0.05-0.036-0.02-0.07-0.04-0.105-0.061-0.587-0.352-1.118-0.921-1.393-1.823-0.524-1.714 0.466-2.63 1.393-3.342v1.73c-0.271 0.343-0.353 0.7-0.193 1.224 0.052 0.169 0.118 0.315 0.193 0.446 0.031 0.056 0.069 0.1 0.105 0.15 0.035 0.05 0.067 0.106 0.104 0.149 0.379 0.438 0.879 0.593 1.259 0.644 0.035 0.005 0.071 0.011 0.104 0.014 0.038 0.004 0.071 0.006 0.105 0.008 0.048 0.002 0.097 0.005 0.136 0.005 0.092 0 0.158-0.005 0.187-0.008 0.023-0.003 0.046-0.004 0.069-0.004 0.316 0 0.585 0.253 0.617 0.584 0.035 0.355-0.214 0.671-0.558 0.708zm-0.66 1.153c0 0.358-0.282 0.648-0.629 0.648-0.348 0-0.63-0.29-0.63-0.648v-1.283c0.411 0.192 0.841 0.3 1.259 0.338v0.945zm0-19.58v0.949 0.236 0.205 1.879 0.144 0.143 3.568c-0.013-0.009-0.026-0.02-0.039-0.029-0.617-0.463-1.016-0.798-1.22-1.16v-1.089-0.19-0.174-1.799-0.143-0.144-3.495c0.474 0.23 1.031 0.595 1.259 1.099zm0.115 0.657c-0.002 0.014-0.009 0.028-0.011 0.043v-0.202c-0.001 0.054 0.016 0.104 0.011 0.159zm0.095 0.054v-0.195c-0.002 0.053 0.01 0.102 0.006 0.155 0 0.014-0.005 0.026-0.006 0.04zm-2.612-3.109c0.076-0.289 0.33-0.481 0.606-0.481 0.054 0 0.109 0.007 0.163 0.022 0.016 0.005 0.076 0.022 0.165 0.051 0.03 0.01 0.067 0.023 0.105 0.036 0.033 0.012 0.065 0.023 0.104 0.037 0.316 0.117 0.789 0.322 1.259 0.632 0.035 0.023 0.069 0.045 0.104 0.069 0.036 0.025 0.07 0.053 0.105 0.078 0.751 0.551 1.431 1.381 1.363 2.578-0.059 1.035-0.681 1.794-1.363 2.446v-2.079c0.057-0.143 0.098-0.29 0.106-0.443 0.013-0.216-0.03-0.411-0.106-0.593-0.03-0.072-0.064-0.142-0.105-0.208-0.032-0.055-0.066-0.109-0.104-0.159-0.325-0.425-0.838-0.729-1.259-0.924-0.035-0.017-0.07-0.033-0.104-0.048-0.037-0.016-0.071-0.031-0.105-0.045-0.279-0.116-0.482-0.175-0.489-0.177-0.335-0.093-0.535-0.447-0.445-0.792zm1.143-1.211c0-0.357 0.282-0.647 0.63-0.647 0.347 0 0.629 0.29 0.629 0.647v1.255c-0.487-0.304-0.958-0.5-1.259-0.607v-0.648zm12.85 8.209l-3.146-5.699-5.884 3.243v-6.831h-6.525l-0.058 6.89-5.652-3.302-3.379 5.759 5.71 3.386-5.71 3.385 3.379 5.872 5.71-3.475v6.951h6.525v-6.831l5.768 3.415 3.262-5.812-5.767-3.569 5.767-3.382z"/>
  </g>
 </g>
</svg>
