<?xml version="1.0" encoding="utf-8"?>
<!-- Generator: Adobe Illustrator 19.1.0, SVG Export Plug-In . SVG Version: 6.00 Build 0)  -->
<svg version="1.1" id="Layer_1" xmlns="http://www.w3.org/2000/svg" xmlns:xlink="http://www.w3.org/1999/xlink" x="0px" y="0px"
	 viewBox="0 0 100 100" style="enable-background:new 0 0 100 100;" xml:space="preserve">
<style type="text/css">
	.st2{enable-background:new    ;}
</style>
<g class="st2">
	<path class="st7" d="M50,86.3c-12.5,0-23.5-6.5-30-16c0-10,20-15.5,30-15.5s30,5.5,30,15.5C73.5,79.8,62.5,86.3,50,86.3z M50,15.3
		c8.5,0,15,6.5,15,15s-6.5,15-15,15s-15-6.5-15-15S41.5,15.3,50,15.3z M50,0.3c-27.5,0-50,22.5-50,50s22.5,50,50,50s50-22.5,50-50
		S77.5,0.3,50,0.3z"/>
</g>
</svg>
