<?xml version="1.0" encoding="utf-8"?>
<!-- Generator: Adobe Illustrator 19.1.0, SVG Export Plug-In . SVG Version: 6.00 Build 0)  -->
<svg version="1.1" id="Layer_1" xmlns="http://www.w3.org/2000/svg" xmlns:xlink="http://www.w3.org/1999/xlink" x="0px" y="0px"
	 viewBox="0 0 100 100" style="enable-background:new 0 0 100 100;" xml:space="preserve">
<style type="text/css">
	.st10{fill-rule:evenodd;clip-rule:evenodd;fill:#5AACE0;}
</style>
<g>
	<path class="st10" d="M49,85.5c-19.8,0-36-16.2-36-36s16.2-36,36-36s36,16.2,36,36S68.8,85.5,49,85.5z M49,4.5
		c-24.8,0-45,20.2-45,45s20.2,45,45,45s45-20.2,45-45S73.8,4.5,49,4.5z M49,27c-12.6,0-22.5,9.9-22.5,22.5S36.4,72,49,72
		s22.5-9.9,22.5-22.5S61.6,27,49,27z"/>
</g>
</svg>
