<?xml version="1.0" encoding="utf-8"?>
<!-- Generator: Adobe Illustrator 19.1.0, SVG Export Plug-In . SVG Version: 6.00 Build 0)  -->
<svg version="1.1" id="Layer_1" xmlns="http://www.w3.org/2000/svg" xmlns:xlink="http://www.w3.org/1999/xlink" x="0px" y="0px"
	 viewBox="0 0 100 100" style="enable-background:new 0 0 100 100;" xml:space="preserve">
<style type="text/css">
	.st7{fill-rule:evenodd;clip-rule:evenodd;fill:#010101;}
</style>
<g>
	<path class="st7" d="M36.5,61.2c-13.8,0-24.9-11.2-24.9-24.9c0-13.8,11.2-24.9,24.9-24.9c13.8,0,24.9,11.2,24.9,24.9
		C61.4,50.1,50.3,61.2,36.5,61.2z M69.8,61.2h-4.4l-1.5-1.5c5.4-6.3,8.7-14.5,8.7-23.4c0-19.9-16.1-36-36-36s-36,16.1-36,36
		s16.1,36,36,36c8.9,0,17.1-3.3,23.4-8.7l1.5,1.5v4.4l27.7,27.6l8.3-8.3L69.8,61.2z"/>
</g>
</svg>
