<?xml version="1.0" encoding="utf-8"?>
<!-- Generator: Adobe Illustrator 19.1.0, SVG Export Plug-In . SVG Version: 6.00 Build 0)  -->
<svg version="1.1" id="Layer_1" xmlns="http://www.w3.org/2000/svg" xmlns:xlink="http://www.w3.org/1999/xlink" x="0px" y="0px"
	 viewBox="0 0 100 100" style="enable-background:new 0 0 100 100;" xml:space="preserve">
<style type="text/css">
	.st1{fill-rule:evenodd;clip-rule:evenodd;fill:#FFFFFF;}
	.st2{enable-background:new    ;}
	.st4{fill:none;}
	.st5{fill-rule:evenodd;clip-rule:evenodd;fill:#36465D;}
</style>
<g class="st2">
	<rect x="-0.1" class="st4" width="100.1" height="100.1"/>
	<circle class="st5" cx="50" cy="50.1" r="50.1"/>
	<rect x="-0.1" class="st4" width="100.1" height="100.1"/>
	<path class="st1" d="M51.3,35.9V26h-6.4c-0.1,0.4-0.2,0.8-0.2,1.2c-0.1,0.2-0.1,0.4-0.1,0.6c-0.7,3.7-2.6,6.2-5.8,7.6
		c-1,0.4-1.8,0.5-2.8,0.4v8h4.7c0.1,11.2,0.1,17,0.1,17.3v0.7c0.6,4.9,3.2,7.8,7.7,8.9c1.8,0.5,3.8,0.7,5.8,0.7
		c2.6-0.1,5.1-0.5,7.6-1.3v-9.4c-1.5,0.4-2.8,0.8-4,1.2c-2.3,0.7-4.2,0.2-5.7-1.2c-0.1-0.2-0.4-0.5-0.4-0.8
		c-0.2-1.2-0.4-2.4-0.4-3.6V43.9h10.2v-8H51.3z"/>
	<rect x="-0.1" class="st4" width="100.1" height="100.1"/>
</g>
</svg>
