<?xml version="1.0" encoding="utf-8"?>
<!-- Generator: Adobe Illustrator 19.1.0, SVG Export Plug-In . SVG Version: 6.00 Build 0)  -->
<svg version="1.1" id="Layer_1" xmlns="http://www.w3.org/2000/svg" xmlns:xlink="http://www.w3.org/1999/xlink" x="0px" y="0px"
	 viewBox="0 0 100 100" style="enable-background:new 0 0 100 100;" xml:space="preserve">
<style type="text/css">
	.st1{fill-rule:evenodd;clip-rule:evenodd;fill:#FFFFFF;}
	.st2{enable-background:new    ;}
	.st3{fill-rule:evenodd;clip-rule:evenodd;fill:#5DA8DC;}
</style>
<g class="st2">
	<circle class="st3" cx="50" cy="50" r="50"/>
	<path class="st1" d="M72,36.2c-1.6,0.7-3.4,1.2-5.2,1.4c1.9-1.1,3.3-2.9,4-5c-1.7,1-3.7,1.8-5.7,2.2c-1.6-1.8-4-2.9-6.6-2.9
		c-5,0-9,4-9,9c0,0.7,0.1,1.4,0.2,2.1c-7.5-0.4-14.2-4-18.6-9.4c-0.8,1.3-1.2,2.9-1.2,4.5c0,3.1,1.6,5.9,4,7.5
		c-1.5,0-2.9-0.5-4.1-1.1v0.1c0,4.4,3.1,8,7.2,8.9c-0.8,0.2-1.6,0.3-2.4,0.3c-0.6,0-1.1-0.1-1.7-0.2c1.1,3.6,4.5,6.2,8.4,6.3
		c-3.1,2.4-7,3.9-11.2,3.9c-0.7,0-1.4,0-2.2-0.1c4,2.6,8.7,4.1,13.8,4.1c16.6,0,25.7-13.8,25.7-25.7l0-1.2
		C69.3,39.6,70.8,38,72,36.2z"/>
</g>
</svg>
