<?xml version="1.0" encoding="utf-8"?>
<!-- Generator: Adobe Illustrator 19.1.0, SVG Export Plug-In . SVG Version: 6.00 Build 0)  -->
<svg version="1.1" id="Layer_1" xmlns="http://www.w3.org/2000/svg" xmlns:xlink="http://www.w3.org/1999/xlink" x="0px" y="0px"
	 viewBox="0 0 100 100" style="enable-background:new 0 0 100 100;" xml:space="preserve">
<style type="text/css">
	.st1{fill-rule:evenodd;clip-rule:evenodd;fill:#FFFFFF;}
	.st2{enable-background:new    ;}
	.st6{fill-rule:evenodd;clip-rule:evenodd;fill:#E34D26;}
</style>
<g class="st2">
	<path class="st6" d="M49.6,96.7c27.4,0,49.6-21.6,49.6-48.2S77,0.3,49.6,0.3S0,21.9,0,48.5S22.2,96.7,49.6,96.7"/>
	<path class="st1" d="M59.8,32.2v9.2c-0.2,0.3-0.5,0.5-0.8,0.7c-0.3,0.2-0.5,0.3-0.7,0.3c-0.2,0-0.4-0.1-0.5-0.2
		c-0.1-0.1-0.2-0.3-0.2-0.6v-9.3h-2.6v10.1c0,0.7,0.1,1.3,0.4,1.6c0.3,0.4,0.8,0.5,1.3,0.5c0.5,0,1-0.1,1.5-0.4
		c0.5-0.3,1-0.6,1.5-1.1v1.3h2.6V32.2H59.8z M52,32.8c-0.7-0.6-1.6-0.9-2.6-0.9c-1.2,0-2.1,0.3-2.8,0.9c-0.7,0.6-1,1.3-1,2.2v6.3
		c0,1,0.3,1.8,1,2.5c0.7,0.6,1.6,0.9,2.7,0.9c1.1,0,2.1-0.3,2.7-0.9c0.7-0.6,1-1.4,1-2.4v-6.2C53,34.1,52.7,33.4,52,32.8z
		 M50.4,41.5c0,0.3-0.1,0.6-0.3,0.8c-0.2,0.2-0.5,0.3-0.8,0.3c-0.3,0-0.6-0.1-0.8-0.3c-0.2-0.2-0.3-0.4-0.3-0.8v-6.6
		c0-0.3,0.1-0.5,0.3-0.6c0.2-0.2,0.5-0.2,0.8-0.2c0.3,0,0.6,0.1,0.8,0.2c0.2,0.1,0.3,0.4,0.3,0.6V41.5z M42.5,27.9l-1.8,6.6h-0.2
		l-1.8-6.6h-2.9l3.4,9.9v6.5h2.9v-6.8l3.3-9.6H42.5z M62.4,56.8c0.1,0.2,0.2,0.5,0.2,1v1.1h-2v-1.1c0-0.4,0-0.8,0.2-1
		c0.1-0.2,0.4-0.3,0.8-0.3C62,56.5,62.2,56.6,62.4,56.8z M54.5,56.8c-0.1-0.2-0.4-0.3-0.7-0.3c-0.2,0-0.3,0-0.5,0.1
		c-0.2,0.1-0.3,0.2-0.5,0.3v6.9c0.2,0.2,0.4,0.3,0.6,0.4c0.2,0.1,0.4,0.1,0.5,0.1c0.3,0,0.5-0.1,0.6-0.2c0.1-0.1,0.2-0.4,0.2-0.8
		v-5.7C54.8,57.2,54.7,57,54.5,56.8z M54.5,56.8c-0.1-0.2-0.4-0.3-0.7-0.3c-0.2,0-0.3,0-0.5,0.1c-0.2,0.1-0.3,0.2-0.5,0.3v6.9
		c0.2,0.2,0.4,0.3,0.6,0.4c0.2,0.1,0.4,0.1,0.5,0.1c0.3,0,0.5-0.1,0.6-0.2c0.1-0.1,0.2-0.4,0.2-0.8v-5.7
		C54.8,57.2,54.7,57,54.5,56.8z M67.4,48.3H31.9c-3.9,0-7.1,3.1-7.1,6.9v7c0,3.8,3.2,6.9,7.1,6.9h35.5c3.9,0,7.1-3.1,7.1-6.9v-7
		C74.4,51.4,71.2,48.3,67.4,48.3z M41.4,53.1h-2.7v12.7h-2.6V53.1h-2.6V51h7.8V53.1z M48.9,65.9h-2.3v-1.2c-0.4,0.5-0.9,0.8-1.3,1
		C44.9,65.9,44.4,66,44,66c-0.5,0-0.9-0.2-1.2-0.5c-0.3-0.3-0.4-0.8-0.4-1.5v-9.2h2.3v8.5c0,0.2,0,0.4,0.2,0.6
		c0.1,0.1,0.2,0.2,0.4,0.2c0.2,0,0.4-0.1,0.6-0.2c0.3-0.1,0.5-0.3,0.7-0.6v-8.4h2.3V65.9z M57.1,63.6c0,0.8-0.2,1.4-0.5,1.8
		C56.2,65.8,55.7,66,55,66c-0.5,0-0.8-0.1-1.2-0.2c-0.4-0.2-0.7-0.4-1-0.8v0.9h-2.3V51h2.3v4.8c0.3-0.3,0.6-0.6,1-0.8
		c0.4-0.2,0.7-0.3,1.1-0.3c0.7,0,1.3,0.2,1.6,0.7c0.4,0.5,0.6,1.1,0.6,2V63.6z M65,60.6h-4.3v2.1c0,0.6,0,1,0.2,1.2
		c0.1,0.2,0.4,0.3,0.8,0.3c0.4,0,0.6-0.1,0.8-0.3c0.1-0.2,0.2-0.6,0.2-1.2v-0.5H65v0.6c0,1.1-0.3,2-0.9,2.6
		c-0.5,0.6-1.4,0.9-2.5,0.9c-1,0-1.8-0.3-2.4-0.9c-0.6-0.6-0.9-1.4-0.9-2.5v-4.9c0-0.9,0.3-1.7,1-2.3c0.6-0.6,1.4-0.9,2.5-0.9
		c1,0,1.8,0.3,2.4,0.9c0.6,0.6,0.9,1.3,0.9,2.4V60.6z M53.8,56.5c-0.2,0-0.3,0-0.5,0.1c-0.2,0.1-0.3,0.2-0.5,0.3v6.9
		c0.2,0.2,0.4,0.3,0.6,0.4c0.2,0.1,0.4,0.1,0.5,0.1c0.3,0,0.5-0.1,0.6-0.2c0.1-0.1,0.2-0.4,0.2-0.8v-5.7c0-0.4-0.1-0.6-0.3-0.8
		C54.4,56.6,54.1,56.5,53.8,56.5z M54.5,56.8c-0.1-0.2-0.4-0.3-0.7-0.3c-0.2,0-0.3,0-0.5,0.1c-0.2,0.1-0.3,0.2-0.5,0.3v6.9
		c0.2,0.2,0.4,0.3,0.6,0.4c0.2,0.1,0.4,0.1,0.5,0.1c0.3,0,0.5-0.1,0.6-0.2c0.1-0.1,0.2-0.4,0.2-0.8v-5.7
		C54.8,57.2,54.7,57,54.5,56.8z M54.5,56.8c-0.1-0.2-0.4-0.3-0.7-0.3c-0.2,0-0.3,0-0.5,0.1c-0.2,0.1-0.3,0.2-0.5,0.3v6.9
		c0.2,0.2,0.4,0.3,0.6,0.4c0.2,0.1,0.4,0.1,0.5,0.1c0.3,0,0.5-0.1,0.6-0.2c0.1-0.1,0.2-0.4,0.2-0.8v-5.7
		C54.8,57.2,54.7,57,54.5,56.8z"/>
</g>
</svg>
