<?xml version="1.0" standalone="no"?>
<!DOCTYPE svg PUBLIC "-//W3C//DTD SVG 1.1//EN" "http://www.w3.org/Graphics/SVG/1.1/DTD/svg11.dtd">
<svg xmlns="http://www.w3.org/2000/svg">
<metadata>Generated by Fontastic.me</metadata>
<defs>
<font id="FirstNet-icons" horiz-adv-x="512">
<font-face font-family="untitled-font-1" units-per-em="512" ascent="480" descent="-32"/>
<missing-glyph horiz-adv-x="512" />

<glyph glyph-name="calendar" unicode="&#97;" d="M405 93l-298 0 0 234 298 0z m-64 383l0-42-170 0 0 42-42 0 0-42-22 0c-24 0-42-19-42-43l0-298c0-23 18-42 42-42l298 0c24 0 42 19 42 42l0 298c0 24-18 43-42 43l-22 0 0 42z m21-234l-106 0 0-106 106 0z"/>
<glyph glyph-name="certificate" unicode="&#98;" d="M405 395c-24 81-102 128-185 115-75-12-134-79-137-156-1-52 18-97 57-132 3-2 4-5 4-8 0-49 0-97 0-145 0-17 0-35 0-53 0-10 8-17 18-15 2 1 5 2 7 4 27 17 53 35 79 52 2-1 3-2 5-3 25-17 50-34 75-50 6-3 11-5 17-2 6 3 8 9 8 15 0 50 0 98 0 147 0 2 0 3 0 5-2 8-8 13-16 12-8-1-13-7-13-16 0-38 0-76 0-114l0-6c-3 1-5 2-6 3-20 13-39 26-58 40-9 5-14 5-22 0-20-14-39-27-59-40-1-1-3-2-5-3l0 154c2-1 4-2 5-2 22-11 45-16 70-16 47 1 88 18 120 53 41 46 54 101 36 161z m-157-184c-74 0-134 60-134 136 0 74 60 135 135 135 74 0 134-61 134-135 0-75-60-136-135-136z m1 241c-59 0-106-47-106-105 0-58 47-106 103-106 60 0 107 46 107 106 0 57-47 105-104 105z m-1-181c-41-1-74 33-75 75 0 41 33 75 74 76 41 0 75-33 76-75 0-42-33-76-75-76z"/>
<glyph glyph-name="checkcricle" unicode="&#99;" d="M215 135l-115 115 32 33 83-83 175 175 32-32z m46 346c-127 0-230-104-230-231 0-127 103-230 230-230 127 0 231 103 231 230 0 127-104 231-231 231z"/>
<glyph glyph-name="checkcriclegrey" unicode="&#100;" d="M211 138l-116 116 32 32 84-83 176 176 32-32z m46 348c-127 0-231-105-231-232 0-128 104-231 231-231 127 0 231 104 231 231 0 127-103 232-231 232z"/>
<glyph glyph-name="checksq" unicode="&#101;" d="M198 120l-138 133 39 37 99-95 210 201 38-37z m248 387l-386 0c-30 0-55-25-55-55l0-386c0-31 25-56 55-56l386 0c31 0 56 25 56 55l0 387c0 30-25 55-56 55z"/>
<glyph glyph-name="crossout" unicode="&#102;" d="M142 156c-59 63-55 163 8 223 64 59 164 56 223-8 60-63 56-164-7-223-64-59-164-56-224 8z m-19 252c-79-74-84-200-9-279 74-79 199-84 279-10 79 75 84 200 9 279-74 80-199 84-279 10z m82-59l-29-27 54-58-58-54 27-28 58 54 54-58 28 27-53 58 58 53-28 29-57-54z"/>
<glyph glyph-name="downarrow" unicode="&#103;" d="M73 380l-58-57 245-245 245 245-57 57-188-187z"/>
<glyph glyph-name="download" unicode="&#104;" d="M98 119l0-45 316 0 0 45z m316 203l-90 0 0 136-136 0 0-135-90 0 158-159z"/>
<glyph glyph-name="edit" unicode="&#105;" d="M441 356c9 9 9 21 0 30l-49 49c-9 8-22 8-30 0l-38-39 80-81z m-376-217l0-81 80 0 234 236-81 81z"/>
<glyph glyph-name="graph" unicode="&#106;" d="M106 103l0 346-45 0 0-390 390 0 0 44z m120 155l99-56 100 129-27 21-82-107-97 55-93-103 25-22z"/>
<glyph glyph-name="hamburger" unicode="&#107;" d="M0 429l0-56 508 0 0 56z m0-195l508 0 0 56-508 0z m0-139l508 0 0 56-508 0z"/>
<glyph glyph-name="information" unicode="&#108;" d="M224 337l48 0 0 47-48 0z m24-262c-105 0-190 86-190 190 0 105 85 191 190 191 104 0 190-86 190-190 0-105-86-191-190-191z m0 428c-131 0-238-107-238-238 0-131 107-237 238-237 130 0 237 107 237 237 0 131-107 238-237 238z m-24-357l48 0 0 143-48 0z"/>
<glyph glyph-name="lock" unicode="&#109;" d="M238 135c25 0 46 21 46 47 0 26-21 47-46 47-26 0-47-21-47-47 0-26 21-47 47-47z m139-71l-279 0 0 236 279 0z m-139 403c39 0 72-33 72-73l0-47-143 0 0 47-2 0c0 40 33 73 73 73z m139-120l-23 0 0 47c0 66-51 118-116 118-65 0-117-52-117-118l0-47-23 0c-25 0-46-21-46-47l0-236c0-26 21-47 46-47l279 0c26 0 47 21 47 47l0 236c-1 26-22 47-47 47z"/>
<glyph glyph-name="pictureicon" unicode="&#110;" d="M173 213l60-73 85 109 109-145-339 0z m302-133l0 339c0 26-21 48-48 48l-339 0c-27 0-48-22-48-48l0-339c0-26 21-48 48-48l338 0c28 0 49 22 49 48z"/>
<glyph glyph-name="playbutton" unicode="&#111;" d="M512 263c0 138-111 249-249 249-137 0-249-111-249-249 0-137 112-249 249-249 138 0 249 112 249 249z m-290-75l0 150 108-75z"/>
<glyph glyph-name="profile" unicode="&#112;" d="M256 70c-64 0-120 33-154 82 0 51 103 79 154 79 51 0 154-28 154-79-34-49-90-82-154-82z m0 364c44 0 77-34 77-77 0-44-33-77-77-77-44 0-77 33-77 77 0 43 33 77 77 77z m0 76c-141 0-256-115-256-256 0-140 115-256 256-256 141 0 256 116 256 256 0 141-115 256-256 256z"/>
<glyph glyph-name="ratingstar" unicode="&#113;" d="M256 128l-134-71 25 149-108 106 150 22 67 136 67-136 150-22-108-106 25-149z"/>
<glyph glyph-name="rightarrow" unicode="&#114;" d="M129 70l57-57 245 245-245 245-57-57 187-188z"/>
<glyph glyph-name="search" unicode="&#115;" d="M187 199c-71 0-128 57-128 127 0 71 58 128 128 128 71 0 127-58 127-128 0-71-56-127-127-127z m170 0l-22 0-8 7c28 33 45 75 45 120 0 102-83 184-185 184-101 0-184-82-184-184 0-102 83-184 184-184 46 0 88 17 120 44l8-7 0-23 142-141 42 42z"/>
<glyph glyph-name="share" unicode="&#117;" d="M305 488l0-51 91 0-249-248 36-35 248 248 0-91 51 0 0 177z m126-406l-355 0 0 355 178 0 0 51-178 0c-27 0-50-23-50-51l0-355c0-27 23-50 50-50l355 0c28 0 51 23 51 50l0 178-51 0z"/>
<glyph glyph-name="uparrow" unicode="&#118;" d="M444 112l57 57-245 245-245-245 57-57 188 188z"/>
<glyph glyph-name="upload" unicode="&#119;" d="M145 159l0-31 223 0 0 31z m0 128l63 0 0-96 96 0 0 96 64 0-112 112z"/>
<glyph glyph-name="video" unicode="&#120;" d="M214 165l0 187 126-93z m210 252c-13 4-90 8-168 8-78 0-155-4-168-8-34-10-42-83-42-158 0-76 8-148 42-159 13-4 90-8 168-8 78 0 155 4 168 8 34 11 42 84 42 159 0 74-8 148-42 158z"/>
<glyph glyph-name="warning" unicode="&#121;" d="M274 209l-42 0 0 85 42 0z m0-85l-42 0 0 43 42 0z m-254-63l466 0-233 402z"/>
<glyph glyph-name="leftarrow" unicode="&#122;" d="M391 451l-57 57-245-245 245-245 57 57-188 188z"/>
</font>
</defs>
</svg>
