<?xml version="1.0" encoding="UTF-8"?>
<svg width="29px" height="28px" viewBox="0 0 29 28" version="1.1" xmlns="http://www.w3.org/2000/svg" xmlns:xlink="http://www.w3.org/1999/xlink">
    <!-- Generator: Sketch 43.1 (39012) - http://www.bohemiancoding.com/sketch -->
    <title>Group 23</title>
    <desc>Created with Sketch.</desc>
    <defs></defs>
    <g id="Symbols" stroke="none" stroke-width="1" fill="none" fill-rule="evenodd">
        <g id="CARDS" transform="translate(-891.000000, -286.000000)">
            <g id="Group-8" transform="translate(724.000000, 0.000000)">
                <g id="Group-23" transform="translate(167.000000, 286.000000)">
                    <g id="circ_Google_download" transform="translate(0.500000, 0.000000)" stroke="#4892C9" stroke-width="1.1">
                        <ellipse id="Oval-1" cx="14" cy="14" rx="13.45" ry="13.45"></ellipse>
                    </g>
                    <g id="android" transform="translate(7.000000, 5.000000)" fill-rule="nonzero" fill="#4892C9">
                        <path d="M12.4317,13.6276569 C12.4317,14.0306234 12.108,14.357636 11.7059625,14.357636 L3.3001875,14.357636 C2.8989,14.357636 2.5740375,14.0306611 2.5740375,13.6276569 L2.5740375,6.08637238 C4.777425,6.07827615 9.9176625,6.07827615 12.4317,6.08637238 L12.4317,13.6276569 Z" id="Shape"></path>
                        <path d="M5.687925,2.21987448 C5.7294,2.30162762 5.6979,2.40382845 5.6153625,2.44623013 L5.6153625,2.44623013 C5.533575,2.48787866 5.4318375,2.45511715 5.3903625,2.37298745 L4.3278375,0.293422594 C4.2856125,0.210539749 4.3193625,0.110259414 4.4011875,0.0674811715 L4.4011875,0.0674811715 C4.482975,0.025041841 4.5839625,0.0578410042 4.6261875,0.140384937 L5.6879625,2.21994979 L5.687925,2.21987448 Z" id="Shape"></path>
                        <path d="M9.55785,2.30742678 C9.5117625,2.38801255 9.40965,2.41576569 9.3289875,2.36797908 L9.3289875,2.36797908 C9.2491125,2.32245188 9.22185,2.21991213 9.2686875,2.1392887 L10.4322,0.115983264 C10.4782875,0.0357740586 10.5811875,0.00726778243 10.660275,0.0546778243 L10.660275,0.0546778243 C10.7409375,0.100543933 10.7681625,0.203535565 10.7221125,0.283330544 L9.5578125,2.30738912 L9.55785,2.30742678 Z" id="Shape"></path>
                        <path d="M14.997975,11.5827741 C14.997975,12.1692803 14.5249125,12.6454895 13.9396875,12.6454895 L13.9396875,12.6454895 C13.3544625,12.6454895 12.8802375,12.1696569 12.8802375,11.5827741 L12.8802375,6.93195816 C12.8802375,6.34428452 13.3540875,5.86961925 13.9396875,5.86961925 L13.9396875,5.86961925 C14.5245375,5.86961925 14.997975,6.34432218 14.997975,6.93195816 L14.997975,11.5827741 Z" id="Shape"></path>
                        <path d="M2.1186,11.5827741 C2.1186,12.1692803 1.644,12.6454895 1.0606875,12.6454895 L1.0606875,12.6454895 C0.4750875,12.6454895 0.0016125,12.1696569 0.0016125,11.5827741 L0.0016125,6.93195816 C0.0016125,6.34428452 0.474675,5.86961925 1.0606875,5.86961925 L1.0606875,5.86961925 C1.644,5.86961925 2.1186,6.34432218 2.1186,6.93195816 L2.1186,11.5827741 Z" id="Shape"></path>
                        <path d="M6.7273875,16.9053138 C6.7273875,17.4918201 6.2535375,17.9680293 5.6675625,17.9680293 L5.6675625,17.9680293 C5.0835,17.9680293 4.6104375,17.4921967 4.6104375,16.9053138 L4.6104375,12.2544979 C4.6104375,11.6683682 5.0835,11.1909916 5.6675625,11.1909916 L5.6675625,11.1909916 C6.2531625,11.1909916 6.7273875,11.6683682 6.7273875,12.2544979 L6.7273875,16.9053138 Z" id="Shape"></path>
                        <path d="M10.398825,16.9053138 C10.398825,17.4918201 9.924975,17.9680293 9.339375,17.9680293 L9.339375,17.9680293 C8.7553125,17.9680293 8.2810875,17.4921967 8.2810875,16.9053138 L8.2810875,12.2544979 C8.2810875,11.6683682 8.7549375,11.1909916 9.339375,11.1909916 L9.339375,11.1909916 C9.9246,11.1909916 10.398825,11.6683682 10.398825,12.2544979 L10.398825,16.9053138 Z" id="Shape"></path>
                        <path d="M7.503075,1.11701674 C4.9287375,1.11701674 2.808675,3.08440167 2.5252875,5.61321339 L12.4804875,5.61321339 C12.1978875,3.08440167 10.07895,1.11705439 7.503075,1.11705439 L7.503075,1.11701674 Z M5.25705,3.84288703 C5.0274,3.84288703 4.841925,3.65742678 4.841925,3.42760669 C4.841925,3.19857741 5.0274,3.0130795 5.25705,3.0130795 C5.484375,3.0130795 5.66985,3.19853975 5.66985,3.42760669 C5.66985,3.65742678 5.484375,3.84288703 5.25705,3.84288703 Z M9.7579125,3.84288703 C9.52905,3.84288703 9.343575,3.65742678 9.343575,3.42760669 C9.343575,3.19857741 9.52905,3.0130795 9.7579125,3.0130795 C9.987525,3.0130795 10.1715,3.19853975 10.1715,3.42760669 C10.1715,3.65742678 9.9875625,3.84288703 9.7579125,3.84288703 Z" id="Shape"></path>
                    </g>
                </g>
            </g>
        </g>
    </g>
</svg>