<?xml version="1.0" encoding="UTF-8"?>
<svg width="28px" height="28px" viewBox="0 0 28 28" version="1.1" xmlns="http://www.w3.org/2000/svg" xmlns:xlink="http://www.w3.org/1999/xlink">
    <!-- Generator: Sketch 43.1 (39012) - http://www.bohemiancoding.com/sketch -->
    <title>Group 22</title>
    <desc>Created with Sketch.</desc>
    <defs></defs>
    <g id="Symbols" stroke="none" stroke-width="1" fill="none" fill-rule="evenodd">
        <g id="CARDS" transform="translate(-413.000000, -285.000000)">
            <g id="Group-6" transform="translate(245.000000, 0.000000)">
                <g id="Group-22" transform="translate(168.000000, 285.000000)">
                    <g id="circ_iPhone_download" stroke="#4892C9" stroke-width="1.1">
                        <ellipse id="Oval-1" cx="14" cy="14" rx="13.45" ry="13.45"></ellipse>
                    </g>
                    <path d="M16.9128444,9.12615658 C18.5467738,9.12615658 19.591604,10.6957981 19.591604,10.6957981 C19.591604,10.6957981 17.9977542,11.5545412 17.9977542,13.4195268 C17.9977542,15.6330529 20,16.2769375 20,16.2769375 C20,16.2769375 18.4196251,20 16.6450721,20 C15.6472316,20 15.5805476,19.4300378 14.2544701,19.4300378 C13.1028764,19.4300378 12.7145202,20 11.8372635,20 C10.1629092,20 8,16.3708949 8,13.4195268 C8,10.3538207 10.1898592,9.12615658 11.562581,9.12615658 C12.7680746,9.12615658 13.2701045,9.83049175 14.2409951,9.83049175 C15.0581325,9.83049175 15.7011316,9.12615658 16.9128444,9.12615658 L16.9128444,9.12615658 Z M16.6319426,6 C16.872765,7.50262775 15.5000432,9.36105011 13.8595491,9.30059957 C13.6183813,7.3886353 15.3863695,6.10086605 16.6319426,6 L16.6319426,6 Z" id="Imported-Layers-Copy" fill="#4892C9"></path>
                </g>
            </g>
        </g>
    </g>
</svg>