<svg version="1.1" id="Layer_1" xmlns="http://www.w3.org/2000/svg" xmlns:xlink="http://www.w3.org/1999/xlink" x="0px" y="0px" viewBox="0 0 176 62" xml:space="preserve">
  <style type="text/css">
    
	.st0{display:none;}
	.st1{display:inline;}
	.st2{enable-background:new    ;}
	.st3{fill:#D6D5D5;}
	.st4{fill:#4D8AB9;}
	.st5{fill:#FFFFFF;}
	.st6{opacity:0.5;fill:#D6D5D5;enable-background:new    ;}
	.st7{fill:#E04926;}
	.st8{fill:#FCB41E;}

  </style>
  <g id="FirstNet"/>
  <g id="Medical"/>
  <g id="Cellular"/>
  <g id="Fire"/>
  <g id="Police"/>
  <g id="US_Dept_Commerce" class="st0">
    <text transform="matrix(1 0 0 1 50.8472 122.4153)" style="fill:#D6D5D5;font-family:'MyriadPro-Bold';font-size:18px">
      U.S. DEPARTMENT OF COMMERCE
    </text>
  </g>
  <g id="Layer_9">
    <g>
      <path d="M56.7 17.8h14.3v4.3h-9v5.4h8.2v4.7h-8.2v9.3h-5.4V17.8z"/>
      <path d="M78.2 19.6c0 1.4-1.1 2.5-2.9 2.5 -1.8 0-2.9-1.1-2.9-2.5s1.1-2.5 2.9-2.5C77.2 17.1 78.2 18.2 78.2 19.6zM72.5 41.4V24.2h5.4v16.8h-5.4V41.4z"/>
      <path d="M80.7 30c0-2.5 0-4.3 0-5.7h4.7v3.2l0 0c0.7-2.5 2.9-3.6 4.7-3.6 0.4 0 0.7 0 1.1 0v5c-0.4 0-0.7 0-1.4 0 -1.8 0-3.2 1.1-3.6 2.5 0 0.4 0 0.7 0 1.1v8.6h-5.4C80.7 41.1 80.7 30 80.7 30z"/>
      <path d="M92.6 36.8c1.1 0.7 2.9 1.4 4.7 1.4 1.4 0 2.1-0.7 2.1-1.4 0-0.7-0.4-1.4-2.5-1.8 -3.6-1.1-5-3.2-4.7-5 0-3.2 2.9-5.7 6.8-5.7 2.1 0 3.6 0.4 4.7 1.1l-1.1 3.6c-0.7-0.4-2.1-1.1-3.6-1.1 -1.4 0-2.1 0.4-2.1 1.4 0 0.7 0.7 1.1 2.9 1.8 3.2 1.1 4.7 2.9 4.7 5.4 0 3.2-2.5 5.4-7.5 5.4 -2.1 0-4.3-0.4-5.4-1.1L92.6 36.8z"/>
      <path d="M111.9 19.6v5h3.9v3.9h-3.9v6.1c0 2.1 0.4 2.9 2.1 2.9 0.7 0 1.1 0 1.4 0v3.9c-0.7 0.4-1.8 0.4-3.6 0.4 -1.8 0-3.2-0.7-3.9-1.4 -1.1-1.1-1.4-2.5-1.4-5v-7.2h-2.1v-3.9h2.1v-3.6L111.9 19.6z"/>
      <path d="M117.6 41.4V17.8h6.1l5 8.6c1.4 2.5 2.9 5.4 3.9 7.9l0 0c-0.4-2.9-0.7-6.1-0.7-9.3v-7.2h5v23.3h-5.7l-5-9c-1.4-2.5-2.9-5.4-3.9-8.2l0 0c0 3.2 0.4 6.4 0.4 10.4v7.2H117.6z"/>
      <path d="M143.8 34.6c0 2.1 2.1 3.2 4.7 3.2 1.8 0 3.2-0.4 4.7-0.7l0.7 3.6c-1.8 0.7-3.9 1.1-6.1 1.1 -5.7 0-9-3.2-9-8.6 0-4.3 2.5-9 8.6-9 5.4 0 7.5 4.3 7.5 8.6 0 1.1 0 1.8 0 2.1h-11.1V34.6zM149.9 31.1c0-1.4-0.7-3.6-2.9-3.6s-3.2 2.1-3.2 3.6H149.9z"/>
      <path d="M162.4 19.6v5h3.9v3.9h-3.9v6.1c0 2.1 0.4 2.9 2.1 2.9 0.7 0 1.1 0 1.4 0v3.9c-0.7 0.4-1.8 0.4-3.6 0.4 -1.8 0-3.2-0.7-3.9-1.4 -0.7-1.1-1.1-2.9-1.1-5v-7.2h-2.1v-3.9h2.1v-3.6L162.4 19.6z"/>
    </g>
    <g>
      <rect x="26.6" y="30.7" width="24.4" height="24.4"/>
      <g>
        <g>
          <polygon class="st4" points="50.7 39.7 47.4 33.9 42.1 37.1 42.1 30.7 35.6 30.7 35.6 37.1 30.2 33.9 27.4 39.7 32.4 42.9 27.4 46.1 30.2 51.8 35.6 48.6 35.6 55.1 42.1 55.1 42.1 48.6 47.4 51.8 50.7 46.1 45.3 42.9 "/>
        </g>
        <path class="st5" d="M38.8 51.8C38.8 51.8 39.2 51.8 38.8 51.8v2.5h-0.4L38.8 51.8 38.8 51.8zM38.5 39.3v3.6c0 0 0 0 0.4 0 0.4 0 0.4-0.4 0.4-0.4V40v-0.4 -1.8 -0.4 -2.9h-0.4c-0.4 0-0.4 0.4-0.7 0.4v2.1 0.4l0 0L38.5 39.3 38.5 39.3 38.5 39.3zM38.5 48.3L38.5 48.3v2.5l0 0c0 0 0.4 0 0.4-0.4v-1.8 -0.4 -1.1 -0.4 -2.1l0 0c-0.4 0-0.4 0.4-0.4 0.4v1.1 0.4l0 0V48.3zM41.7 40.4c0-0.4 0-0.4-0.4-0.7 0-0.4-0.4-0.4-0.4-0.7 0 0 0-0.4-0.4-0.4l-0.4-0.4 -0.4-0.4c0 0 0 0-0.4 0l0 0v1.8l0 0 0 0 0.4 0.4c0 0.4 0 0.4 0.4 0.7 0 0.4 0 0.4 0 0.7v0.4c0 0 0 0 0 0.4s-0.4 0.4-0.7 0.7c0 0-0.4 0-0.4 0.4 0 0-0.4 0-0.4 0.4 0 0-0.4 0-0.4 0.4 0 0-0.4 0-0.4 0.4C37.4 45 37 45.7 37 46.8c0 0.4 0 0.4 0 0.4v0.4l0 0c0 0 0 0.4 0.4 0.4 0 0.4 0.4 0.4 0.7 0.7v-1.4c0 0 0-0.4-0.4-0.4 0 0 0 0 0-0.4 0-0.4 0-0.4 0.4-0.7 0 0 0-0.4 0.4-0.4l0 0 0 0c0 0 0.4 0 0.4-0.4h0.4c0.4-0.4 0.7-0.4 1.1-0.7l0.4-0.4c0 0 0-0.4 0.4-0.4 0-0.4 0.4-0.4 0.4-0.7s0-0.4 0-0.7v-0.4C41.7 40.7 41.7 40.7 41.7 40.4zM40.6 48.6c0-0.4-0.4-0.4-0.4-0.7 -0.4-0.4-0.4-0.4-0.7-0.4l0 0v1.1c0 0 0.4 0 0.4 0.4 0.4 0.4 0.4 0.4 0.4 0.7 0 0.4 0 0.4 0 0.4 0 0.4-0.4 0.4-0.4 0.7 0 0-0.4 0-0.4 0.4 0 0 0 0-0.4 0 0 0 0 0-0.4 0l0 0h-0.4l0 0c0 0 0 0-0.4 0s-0.4 0.4-0.4 0.4l0 0 0 0 0 0 0 0 0 0 0 0 0 0 0 0 0 0 0 0 0 0 0 0 0 0 0 0 0 0 0 0 0 0c0 0 0 0 0.4 0 0 0 0 0 0.4 0l0 0h0.4l0 0c0 0 0.4 0 0.4-0.4 0 0 0.4 0 0.4-0.4l0 0 0.4-0.4 0 0V50v-0.4l0 0v-0.4C40.6 49 40.6 49 40.6 48.6zM38.8 32.8c0 0 0.4 0 0.7 0v-1.1h-1.1v1.4C38.5 32.8 38.5 32.8 38.8 32.8zM37.4 38.6l0.4 0.4 0 0v-1.8c0 0 0 0-0.4 0L37 36.8c0-0.4 0-0.4 0-0.7 0-0.4 0.4-0.7 0.7-1.1h0.4c0 0 0.4 0 0.7-0.4l0 0h0.4l0 0h0.4c0.4 0 0.4 0 0.7 0 0 0 0 0 0.4 0 0 0 0 0 0.4 0l0 0 0 0 0 0 0 0 0 0 0 0 0 0 0 0 0 0 0 0 0 0 0 0 0 0 0 0 0 0 0 0c0 0 0 0-0.4-0.4 -0.4 0-0.7-0.4-1.1-0.4h-0.4l0 0c0 0 0 0-0.4 0l0 0 0 0 0 0 0 0 0 0 0 0 0 0 0 0 0 0 0 0 0 0 0 0 0 0 0 0h-0.4c0 0 0 0-0.4 0l0 0c-0.4 0-0.4 0.4-0.7 0.4 -0.7 0.4-1.1 1.1-1.1 2.1 0 0.4 0 0.4 0 0.7 0 0.4 0 0.4 0.4 0.7l0 0c0 0.4 0.4 0.4 0.4 0.7C37 37.9 37 38.2 37.4 38.6 37.4 38.2 37.4 38.2 37.4 38.6z"/>
      </g>
    </g>
    <g>
      <rect x="0.8" y="30.7" width="24.4" height="24.4"/>
      <g>
        <path class="st3" d="M5.5 31.1c-1.8 0-3.2 0.4-4.7 0.7v0.4c0.7 0 1.4 0 1.8 0 11.8 0 21.5 9.7 21.5 21.5 0 0.7 0 1.4 0 1.8h0.4c0.4-1.8 0.7-3.2 0.7-5C25.2 39.7 16.3 31.1 5.5 31.1z"/>
        <path class="st6" d="M5.5 31.1c-1.8 0-3.2 0.4-4.7 0.7v0.4c0.7 0 1.4 0 1.8 0 11.8 0 21.5 9.7 21.5 21.5 0 0.7 0 1.4 0 1.8h0.4c0.4-1.8 0.7-3.2 0.7-5C25.2 39.7 16.3 31.1 5.5 31.1z"/>
        <path class="st3" d="M5.1 33.9c-1.4 0-2.9 0-3.9 0.4v0.4c0.7 0 1.1 0 1.8 0 10 0 18.3 8.6 18.3 19 0 0.7 0 1.1 0 1.4h0.4c0.4-1.4 0.4-2.5 0.4-3.9C22 41.8 14.5 33.9 5.1 33.9z"/>
        <path class="st6" d="M5.1 33.9c-1.4 0-2.9 0-3.9 0.4v0.4c0.7 0 1.1 0 1.8 0 10 0 18.3 8.6 18.3 19 0 0.7 0 1.1 0 1.4h0.4c0.4-1.4 0.4-2.5 0.4-3.9C22 41.8 14.5 33.9 5.1 33.9z"/>
        <path class="st3" d="M4.4 37.1c-1.1 0-2.5 0-3.6 0.4v0.4c0.4 0 1.1 0 1.4 0 9 0 16.1 7.2 16.1 16.1 0 0.4 0 0.7 0 1.4h0.4c0.4-1.1 0.4-2.1 0.4-3.6C19.1 43.6 12.7 37.1 4.4 37.1z"/>
        <path class="st6" d="M4.4 37.1c-1.1 0-2.5 0-3.6 0.4v0.4c0.4 0 1.1 0 1.4 0 9 0 16.1 7.2 16.1 16.1 0 0.4 0 0.7 0 1.4h0.4c0.4-1.1 0.4-2.1 0.4-3.6C19.1 43.6 12.7 37.1 4.4 37.1z"/>
        <path class="st3" d="M3.7 40c-1.1 0-1.8 0-2.9 0.4v0.4c0.4 0 0.7 0 1.1 0 7.5 0 13.6 6.1 13.6 13.6 0 0.4 0 0.7 0 1.1h0.4c0.4-0.7 0.4-1.8 0.4-2.9C16.3 45.4 10.5 40 3.7 40z"/>
        <path class="st6" d="M3.7 40c-1.1 0-1.8 0-2.9 0.4v0.4c0.4 0 0.7 0 1.1 0 7.5 0 13.6 6.1 13.6 13.6 0 0.4 0 0.7 0 1.1h0.4c0.4-0.7 0.4-1.8 0.4-2.9C16.3 45.4 10.5 40 3.7 40z"/>
        <path class="st3" d="M3 42.9c-0.7 0-1.4 0-2.1 0.4v0.4c0.4 0 0.4 0 0.7 0 6.1 0 11.1 5 11.1 11.1 0 0.4 0 0.4 0 0.7H13c0-0.7 0.4-1.4 0.4-2.1C13 47.5 8.7 42.9 3 42.9z"/>
        <path class="st6" d="M3 42.9c-0.7 0-1.4 0-2.1 0.4v0.4c0.4 0 0.4 0 0.7 0 6.1 0 11.1 5 11.1 11.1 0 0.4 0 0.4 0 0.7H13c0-0.7 0.4-1.4 0.4-2.1C13 47.5 8.7 42.9 3 42.9z"/>
        <path class="st3" d="M2.6 45.7c-0.7 0-1.1 0-1.4 0l0 0h0.4c4.7 0 8.6 3.9 8.6 8.6v0.4l0 0c0-0.4 0-1.1 0-1.4C10.2 49.3 6.9 45.7 2.6 45.7z"/>
        <path class="st6" d="M2.6 45.7c-0.7 0-1.1 0-1.4 0l0 0h0.4c4.7 0 8.6 3.9 8.6 8.6v0.4l0 0c0-0.4 0-1.1 0-1.4C10.2 49.3 6.9 45.7 2.6 45.7z"/>
      </g>
    </g>
    <g>
      <rect x="26.6" y="4.9" width="24.4" height="24.4"/>
      <path class="st7" d="M34.2 28.9c-1.1-0.7-11.1-7.2 0-17.2l0 0c0 0.4-0.7 2.9-0.4 3.6l0 0c0.4 0 1.8-1.4 1.8-3.6l0 0c0.4 0 3.9-0.4 5-6.1l0 0C41 6 45.3 11 41 18.5c-0.4 0.7 2.1-0.7 2.5-1.4 0.4-1.1 11.8 6.4 1.8 11.5l0 0c0-0.4 1.4-3.6-3.9-4.3 -2.1-0.4-2.5-3.9-2.5-5.4C38.5 17.4 32 21.7 34.2 28.9L34.2 28.9z"/>
    </g>
    <g>
      <rect x="0.8" y="4.9" width="24.4" height="24.4"/>
      <g>
        <path class="st8" d="M13.7 6.7h-0.4H13c-2.1 2.1-9.3 0.7-9.3 0.7v12.2c0 2.1 2.5 6.8 9.3 8.2 0 0 9.7-1.4 9.7-8.2V7.4C22.7 7.4 16.3 8.8 13.7 6.7z"/>
        <g>
          <g>
            <polygon points="13 24.6 10.5 21.4 6.6 21.7 7.7 17.8 5.1 14.9 8.7 13.5 9.4 9.6 13 11.4 16.6 9.6 17.3 13.5 20.9 14.9 18 17.8 19.1 21.7 15.2 21.4 "/>
          </g>
        </g>
      </g>
    </g>
    <g>
      <path d="M167.8 18.5h-1.1v-0.7h2.9v0.7h-1.1v3.2h-0.7V18.5z"/>
      <path d="M173.5 20.3c0-0.4 0-1.1 0-1.4l0 0c0 0.4-0.4 1.1-0.4 1.4l-0.4 1.4h-1.1l-0.4-1.4c0-0.4-0.4-1.1-0.4-1.4l0 0c0 0.4 0 1.1 0 1.4v1.4h-0.7l0-3.9h1.4l0.4 1.4c0 0.4 0.4 1.1 0.4 1.4l0 0c0-0.4 0.4-1.1 0.4-1.4l0.4-1.4h1.1l0.4 3.9h-0.7L173.5 20.3z"/>
    </g>
  </g>
</svg>
