<?xml version="1.0" encoding="UTF-8" standalone="no"?>
<svg width="52px" height="43px" viewBox="0 0 52 43" version="1.1" xmlns="http://www.w3.org/2000/svg" xmlns:xlink="http://www.w3.org/1999/xlink">
    <!-- Generator: Sketch 44.1 (41455) - http://www.bohemiancoding.com/sketch -->
    <title>important-devices - MaterialIcons-Regular Copy 2</title>
    <desc>Created with Sketch.</desc>
    <defs></defs>
    <g id="tablet" stroke="none" stroke-width="1" fill="none" fill-rule="evenodd" opacity="0.75">
        <g id="Administration-Dashboard---Tablet" transform="translate(-298.000000, -1148.000000)" fill="#EB9F02">
            <g id="shop-std-devices" transform="translate(30.000000, 1001.000000)">
                <path d="M293.898438,162.039906 L300.5,162.039906 L295.117188,165.875587 L297.148438,172.133803 L291.867188,168.197183 L286.484375,172.133803 L288.515625,165.875587 L283.132812,162.039906 L289.734375,162.039906 L291.867188,155.579812 L293.898438,162.039906 Z M311.367188,147 C312.518235,147 313.516923,147.403752 314.363281,148.211268 C315.20964,149.018783 315.632812,150.028163 315.632812,151.239437 L315.632812,162.039906 L311.367188,162.039906 L311.367188,151.239437 L272.367188,151.239437 L272.367188,177.079812 L300.5,177.079812 L300.5,181.420188 L296.132812,181.420188 L296.132812,185.760563 L300.5,185.760563 L300.5,190 L283.132812,190 L283.132812,185.760563 L287.5,185.760563 L287.5,181.420188 L272.367188,181.420188 C271.148431,181.420188 270.11589,180.98279 269.269531,180.107981 C268.423173,179.233172 268,178.223793 268,177.079812 L268,151.239437 C268,150.028163 268.423173,149.018783 269.269531,148.211268 C270.11589,147.403752 271.148431,147 272.367188,147 L311.367188,147 Z M317.867188,185.760563 L317.867188,170.619718 L307,170.619718 L307,185.760563 L317.867188,185.760563 Z M317.867188,166.380282 C318.476566,166.380282 318.984373,166.582158 319.390625,166.985915 C319.796877,167.389673 320,167.894363 320,168.5 L320,187.880282 C320,188.485919 319.796877,188.990608 319.390625,189.394366 C318.984373,189.798124 318.476566,190 317.867188,190 L307,190 C306.390622,190 305.882815,189.798124 305.476562,189.394366 C305.07031,188.990608 304.867187,188.485919 304.867187,187.880282 L304.867187,168.5 C304.867187,167.894363 305.07031,167.389673 305.476562,166.985915 C305.882815,166.582158 306.390622,166.380282 307,166.380282 L317.867188,166.380282 Z" id="important-devices---MaterialIcons-Regular-Copy-2"></path>
            </g>
        </g>
    </g>
</svg>