<?xml version="1.0" encoding="UTF-8" standalone="no"?>
<svg width="404px" height="51px" viewBox="0 0 404 51" version="1.1" xmlns="http://www.w3.org/2000/svg" xmlns:xlink="http://www.w3.org/1999/xlink">
    <!-- Generator: Sketch 44 (41411) - http://www.bohemiancoding.com/sketch -->
    <title>FirstNet Local COntrol Logo</title>
    <desc>Created with Sketch.</desc>
    <defs></defs>
    <g id="Symbols" stroke="none" stroke-width="1" fill="none" fill-rule="evenodd">
        <g id="PSE-Footer" transform="translate(-129.000000, -60.000000)">
            <g id="FirstNet-Local-COntrol-Logo" transform="translate(129.000000, 60.000000)">
                <g id="FirstNet-Logo-(TM)-Copy-2">
                    <g id="FirstNet-Logo-text" transform="translate(56.000000, 13.000000)">
                        <polyline id="Fill-1" fill="#0A0A08" points="0.0406779661 1.30701587 14.5858983 1.30701587 14.5858983 5.78396825 5.44230508 5.78396825 5.44230508 11.3000952 13.9858983 11.3000952 13.9858983 15.7415556 5.44230508 15.7415556 5.44230508 25.4478095 0.0406779661 25.4478095 0.0406779661 1.30701587"></polyline>
                        <path d="M16.2797288,25.4478095 L21.6459661,25.4478095 L21.6459661,7.93288889 L16.2797288,7.93288889 L16.2797288,25.4478095 Z M21.8225085,3.06180952 C21.8225085,4.56609524 20.6928814,5.78396825 18.9274576,5.78396825 C17.2332203,5.78396825 16.1031864,4.56609524 16.1385763,3.06180952 C16.1031864,1.48612698 17.2332203,0.30415873 18.9628475,0.30415873 C20.6928814,0.30415873 21.7871186,1.48612698 21.8225085,3.06180952 L21.8225085,3.06180952 Z" id="Fill-2" fill="#0A0A08"></path>
                        <path d="M24.4694237,13.6995238 C24.4694237,11.1209841 24.3986441,9.4375873 24.3282712,7.93288889 L28.9529492,7.93288889 L29.1294915,11.1568889 L29.2706441,11.1568889 C30.1533559,8.61384127 32.2714576,7.5391746 33.9307119,7.5391746 C34.4253559,7.5391746 34.6722712,7.5391746 35.0607458,7.61098413 L35.0607458,12.7325714 C34.6722712,12.6607619 34.2130169,12.5893651 33.6130169,12.5893651 C31.635661,12.5893651 30.2945085,13.6640317 29.9414237,15.3470159 C29.8706441,15.7056508 29.835661,16.1356825 29.835661,16.5653016 L29.835661,25.4478095 L24.4694237,25.4478095 L24.4694237,13.6995238" id="Fill-3" fill="#0A0A08"></path>
                        <path d="M36.3656949,20.6844444 C37.3541695,21.2931746 39.4018983,22.0092063 40.9907797,22.0092063 C42.6150508,22.0092063 43.2854237,21.436381 43.2854237,20.5412381 C43.2854237,19.6456825 42.7557966,19.2156508 40.7434576,18.5351111 C37.1776271,17.3172381 35.8010847,15.3470159 35.8364746,13.2694921 C35.8364746,10.0104127 38.5899661,7.5391746 42.8615593,7.5391746 C44.8743051,7.5391746 46.6747119,8.00511111 47.7339661,8.54203175 L46.7804746,12.3029524 C46.0039322,11.8729206 44.5208136,11.3000952 43.0381017,11.3000952 C41.732339,11.3000952 40.9907797,11.8370159 40.9907797,12.7325714 C40.9907797,13.5563175 41.6615593,13.9863492 43.779661,14.7382857 C47.0627797,15.8847619 48.4397288,17.5681587 48.4751186,20.1466984 C48.4751186,23.4061905 45.9331525,25.8060317 40.9907797,25.8060317 C38.7311186,25.8060317 36.7187797,25.3050159 35.4130169,24.5881587 L36.3656949,20.6844444" id="Fill-4" fill="#0A0A08"></path>
                        <path d="M56.2409492,2.91860317 L56.2409492,7.93288889 L60.0890847,7.93288889 L60.0890847,11.9447302 L56.2409492,11.9447302 L56.2409492,18.2841905 C56.2409492,20.397619 56.7355932,21.3649841 58.3594576,21.3649841 C59.0298305,21.3649841 59.5594576,21.2931746 59.9479322,21.2213651 L59.983322,25.3405079 C59.2771525,25.6269206 58.0059661,25.8060317 56.4882712,25.8060317 C54.7578305,25.8060317 53.3109153,25.1968889 52.4635932,24.3021587 C51.4747119,23.2629841 50.9808814,21.58 50.9808814,19.1079365 L50.9808814,11.9447302 L48.6858305,11.9447302 L48.6858305,7.93288889 L50.9808814,7.93288889 L50.9808814,4.13647619 L56.2409492,2.91860317" id="Fill-5" fill="#0A0A08"></path>
                        <path d="M61.888678,25.4478095 L61.888678,1.30701587 L68.1730169,1.30701587 L73.1153898,10.153619 C74.5277288,12.6966667 75.939661,15.7056508 76.9989153,18.4278095 L77.104678,18.4278095 C76.7515932,15.2397143 76.6454237,11.9806349 76.6454237,8.36292063 L76.6454237,1.30701587 L81.5877966,1.30701587 L81.5877966,25.4478095 L75.939661,25.4478095 L70.8557288,16.1356825 C69.4442034,13.5563175 67.8898983,10.4404444 66.7252881,7.61098413 L66.6191186,7.64647619 C66.760678,10.8345714 66.8310508,14.2372698 66.8310508,18.1773016 L66.8310508,25.4478095 L61.888678,25.4478095" id="Fill-6" fill="#0A0A08"></path>
                        <path d="M94.9322034,14.7027937 C94.9322034,13.377619 94.3667797,11.1568889 91.8955932,11.1568889 C89.6359322,11.1568889 88.7186441,13.2344127 88.5774915,14.7027937 L94.9322034,14.7027937 Z M88.6124746,18.4278095 C88.7890169,20.6844444 90.9778983,21.7586984 93.4844746,21.7586984 C95.3202712,21.7586984 96.8033898,21.5081905 98.2503051,21.042254 L98.9564746,24.7313651 C97.1914576,25.4478095 95.0379661,25.8060317 92.7075254,25.8060317 C86.8474576,25.8060317 83.4931525,22.3678413 83.4931525,16.887619 C83.4931525,12.445746 86.211661,7.5391746 92.2132881,7.5391746 C97.7914576,7.5391746 99.9095593,11.9447302 99.9095593,16.2784762 C99.9095593,17.2099365 99.8042034,18.0336825 99.7330169,18.4278095 L88.6124746,18.4278095 L88.6124746,18.4278095 Z" id="Fill-7" fill="#0A0A08"></path>
                        <path d="M107.640407,2.91860317 L107.640407,7.93288889 L111.488949,7.93288889 L111.488949,11.9447302 L107.640407,11.9447302 L107.640407,18.2841905 C107.640407,20.397619 108.135051,21.3649841 109.758915,21.3649841 C110.430102,21.3649841 110.958915,21.2931746 111.34739,21.2213651 L111.38278,25.3405079 C110.677017,25.6269206 109.405831,25.8060317 107.887729,25.8060317 C106.158102,25.8060317 104.71078,25.1968889 103.863051,24.3021587 C102.874169,23.2629841 102.380746,21.58 102.380746,19.1079365 L102.380746,11.9447302 L100.085695,11.9447302 L100.085695,7.93288889 L102.380746,7.93288889 L102.380746,4.13647619 L107.640407,2.91860317" id="Fill-8" fill="#0A0A08"></path>
                        <polyline id="Fill-36" fill="#1A1918" points="113.072136 1.91450794 112.030373 1.91450794 112.030373 1.16711111 115.010847 1.16711111 115.010847 1.91450794 113.952407 1.91450794 113.952407 5.10177778 113.072136 5.10177778 113.072136 1.91450794"></polyline>
                        <path d="M118.734102,3.59584127 C118.717017,3.12288889 118.699525,2.55088889 118.699525,1.97888889 L118.682441,1.97888889 C118.561627,2.48073016 118.400136,3.0411746 118.250441,3.50215873 L117.778983,5.03739683 L117.093966,5.03739683 L116.679864,3.51371429 C116.552949,3.05273016 116.420746,2.49228571 116.32922,1.97888889 L116.317424,1.97888889 C116.294644,2.51003175 116.277153,3.11711111 116.248271,3.60739683 L116.179119,5.10177778 L115.368,5.10177778 L115.615729,1.16711111 L116.783593,1.16711111 L117.163119,2.48073016 C117.283932,2.93593651 117.404746,3.42622222 117.490983,3.88761905 L117.508475,3.88761905 C117.617492,3.4324127 117.750102,2.9128254 117.87661,2.47495238 L118.291119,1.16711111 L119.435797,1.16711111 L119.648949,5.10177778 L118.791458,5.10177778 L118.734102,3.59584127" id="Fill-37" fill="#1A1918"></path>
                    </g>
                    <g id="EMS" transform="translate(26.000000, 26.000000)">
                        <polygon id="Fill-10" fill="#0A0A08" points="0.0576612903 24.9758065 24.7032258 24.9758065 24.7032258 0.354435484 0.0576612903 0.354435484"></polygon>
                        <polyline id="Fill-12" fill="#4D80A5" points="24.1266129 9.4766129 20.9379032 3.77419355 15.5697581 6.97419355 15.5697581 0.575 9.19193548 0.575 9.19193548 6.975 3.8233871 3.77419355 0.633870968 9.4766129 6.00201613 12.6766129 0.633870968 15.8758065 3.8233871 21.5802419 9.19193548 18.3798387 9.19193548 24.7798387 15.5697581 24.7798387 15.5697581 18.3802419 20.9379032 21.5802419 24.1266129 15.878629 18.7572581 12.6774194 24.1266129 9.4766129"></polyline>
                        <path d="M10.9697581,8.1858871 C11.1262097,8.31733871 11.2951613,8.44193548 11.4758065,8.55967742 C11.5157258,8.58548387 11.5584677,8.61008065 11.6,8.63548387 L11.5725806,6.81612903 C11.4907258,6.75887097 11.4141129,6.70362903 11.3495968,6.65 C11.2028226,6.52782258 11.0991935,6.41048387 11.0290323,6.28024194 C10.9237903,6.08427419 10.8939516,5.85927419 10.9064516,5.54435484 C10.9262097,5.05120968 11.1806452,4.72258065 11.5375,4.47903226 C11.6318548,4.41491935 11.7306452,4.35443548 11.8375,4.30120968 C12.0153226,4.21169355 12.2064516,4.13508065 12.4016129,4.06572581 L12.4020161,4.06532258 C12.5564516,4.01048387 12.6955645,3.96774194 12.8274194,3.93064516 L12.828629,3.93024194 C12.9350806,3.90080645 13.0370968,3.87419355 13.1322581,3.85403226 C13.425,3.79233871 13.6721774,3.77096774 13.9169355,3.76532258 C13.9774194,3.76370968 14.0375,3.76330645 14.0987903,3.76330645 C14.1604839,3.76330645 14.221371,3.76370968 14.2814516,3.76370968 L14.2975806,3.76370968 C14.3491935,3.76370968 14.3995968,3.76330645 14.4491935,3.76209677 L14.471371,3.7608871 C14.5157258,3.75927419 14.558871,3.75645161 14.6008065,3.75241935 L14.6479839,3.74637097 L14.7403226,3.73104839 L14.7895161,3.71814516 L14.8645161,3.69274194 L14.908871,3.67177419 L14.9705645,3.63145161 L15.0056452,3.60241935 L15.0556452,3.5391129 L15.0782258,3.50564516 C15.0975806,3.46814516 15.1137097,3.42620968 15.1233871,3.37701613 C15.133871,3.32419355 15.1334677,3.27298387 15.1229839,3.22379032 C15.1125,3.17419355 15.0923387,3.12620968 15.0629032,3.08064516 C15.0048387,2.98870968 14.9112903,2.90524194 14.7915323,2.83306452 C14.5524194,2.68790323 14.2076613,2.58709677 13.8298387,2.55362903 C13.7318548,2.54475806 13.633871,2.54112903 13.5375,2.54112903 L13.5290323,2.54072581 C13.4447581,2.54072581 13.3625,2.54395161 13.2818548,2.54879032 L13.2193548,2.55362903 L13.1516129,2.55927419 C13.1137097,2.56290323 13.0762097,2.56572581 13.0399194,2.57016129 L12.9556452,2.58064516 L12.8487903,2.59516129 L12.8193548,2.6 L12.741129,2.61290323 C12.7012097,2.61975806 12.6645161,2.62620968 12.6294355,2.63306452 L12.5645161,2.64637097 L12.4758065,2.66572581 L12.4318548,2.67580645 L12.3677419,2.69153226 L12.3459677,2.69717742 L12.3177419,2.70483871 C12.1552419,2.74193548 11.9862903,2.79435484 11.8157258,2.85846774 C11.7548387,2.88145161 11.6939516,2.90483871 11.6330645,2.93104839 C11.5935484,2.9483871 11.5544355,2.96774194 11.5153226,2.98629032 C11.2741935,3.09919355 11.0358871,3.23830645 10.8141129,3.40241935 C10.1479839,3.89435484 9.62943548,4.6125 9.62943548,5.52741935 C9.62943548,5.71209677 9.64556452,5.89395161 9.6766129,6.07177419 C9.71895161,6.3125 9.79112903,6.54596774 9.88830645,6.77137097 C9.91048387,6.8233871 9.93427419,6.875 9.95967742,6.92620968 C10.053629,7.11693548 10.166129,7.30120968 10.2971774,7.47782258 C10.4278226,7.65443548 10.5774194,7.82379032 10.7447581,7.98427419 C10.8165323,8.05282258 10.8915323,8.12016129 10.9697581,8.1858871 Z M12.233871,2.4141129 C12.2495968,2.40967742 12.4987903,2.3391129 12.8532258,2.28870968 L12.8721774,1.03306452 L11.7883065,1.03306452 L11.8108871,2.53870968 C11.9572581,2.48709677 12.0995968,2.44475806 12.233871,2.4141129 Z M14.1540323,18.6068548 C14.0431452,18.3770161 13.8870968,18.1701613 13.7,17.9822581 C13.5133065,17.7939516 13.2959677,17.6241935 13.0633065,17.4681452 C13.0201613,17.4391129 12.9741935,17.4129032 12.9298387,17.3846774 L12.9133065,18.4907258 C13.0270161,18.5629032 13.1274194,18.6334677 13.2060484,18.7076613 C13.3971774,18.8883065 13.4854839,19.0943548 13.4770161,19.4217742 C13.4721774,19.6024194 13.4322581,19.7645161 13.366129,19.9092742 C13.2596774,20.1435484 13.0842742,20.3318548 12.8834677,20.4870968 C12.7858871,20.5620968 12.6830645,20.6294355 12.5778226,20.6895161 C12.4967742,20.7354839 12.4153226,20.778629 12.3342742,20.8165323 C12.2673387,20.8479839 12.1975806,20.8794355 12.1274194,20.9112903 L12.0862903,20.9298387 C11.9850806,20.9758065 11.8842742,21.021371 11.7858871,21.0669355 L11.7092742,21.1024194 C11.6423387,21.1342742 11.5778226,21.1653226 11.5177419,21.196371 C11.2762097,21.3205645 11.0995968,21.4379032 11.091129,21.5387097 L11.1108871,21.5967742 L11.1278226,21.6100806 L11.1745968,21.6346774 L11.2048387,21.6435484 L11.2806452,21.653629 L11.3169355,21.6560484 L11.3318548,21.6572581 L11.3766129,21.653629 C11.4157258,21.6520161 11.4564516,21.6491935 11.5012097,21.6435484 L11.5774194,21.6322581 C11.6229839,21.625 11.6705645,21.6157258 11.7201613,21.6048387 L11.7935484,21.5887097 L11.8052419,21.5854839 C11.8596774,21.5717742 11.9165323,21.5560484 11.9741935,21.5387097 L12.0552419,21.5145161 L12.0947581,21.5020161 C12.1681452,21.4774194 12.2427419,21.4508065 12.3177419,21.421371 C12.3919355,21.3919355 12.4770161,21.3564516 12.5685484,21.3157258 L12.5883065,21.3068548 C12.6778226,21.2665323 12.7741935,21.2197581 12.8729839,21.1685484 L12.9044355,21.1528226 C13.0145161,21.0947581 13.1278226,21.0302419 13.2407258,20.958871 C13.3532258,20.8870968 13.4649194,20.808871 13.571371,20.7237903 C13.6245968,20.6814516 13.6766129,20.6370968 13.7270161,20.591129 C13.8274194,20.4991935 13.9205645,20.4004032 14.0024194,20.2947581 C14.0431452,20.2419355 14.0810484,20.1875 14.1157258,20.1310484 C14.1846774,20.0185484 14.2403226,19.8987903 14.2782258,19.7721774 C14.316129,19.6455645 14.3358871,19.5120968 14.333871,19.371371 C14.3318548,19.2306452 14.3145161,19.0971774 14.283871,18.9697581 C14.2532258,18.8427419 14.2092742,18.7217742 14.1540323,18.6068548 Z M15.0717742,10.2967742 C15.0306452,10.0584677 14.9665323,9.83951613 14.883871,9.6375 C14.7774194,9.37782258 14.6383065,9.1483871 14.4802419,8.93870968 C14.3927419,8.82298387 14.3008065,8.71129032 14.2016129,8.60806452 C14.0625,8.46370968 13.9133065,8.33145161 13.758871,8.20846774 C13.6044355,8.08548387 13.4443548,7.97217742 13.2830645,7.86572581 C13.2133065,7.81975806 13.1439516,7.77580645 13.0741935,7.73225806 L13.0471774,9.53387097 L13.1145161,9.61451613 C13.2229839,9.74758065 13.3197581,9.8875 13.3927419,10.0362903 C13.4939516,10.241129 13.5629032,10.4560484 13.6060484,10.6665323 C13.6491935,10.8774194 13.666129,11.0842742 13.6616935,11.2733871 C13.6596774,11.3677419 13.6516129,11.4560484 13.6370968,11.5391129 C13.6225806,11.6221774 13.6020161,11.7 13.575,11.7741935 C13.4758065,12.0439516 13.2858871,12.2612903 13.0032258,12.483871 C12.9108871,12.5560484 12.8104839,12.6294355 12.6975806,12.7052419 C12.5858871,12.7794355 12.4673387,12.8556452 12.3342742,12.9366935 C12.203629,13.0165323 12.0858871,13.0975806 11.9701613,13.1790323 C11.8633065,13.2540323 11.7657258,13.3310484 11.671371,13.4080645 C10.8616935,14.0697581 10.5028226,14.808871 10.5201613,15.8096774 C10.5229839,15.9923387 10.5326613,16.1572581 10.5568548,16.3108871 C10.5729839,16.4133065 10.5951613,16.5104839 10.6262097,16.6040323 C10.6419355,16.6512097 10.6596774,16.6971774 10.6798387,16.7427419 C10.7403226,16.8790323 10.8233871,17.0096774 10.9362903,17.141129 C11.1157258,17.3495968 11.3737903,17.5604839 11.7370968,17.7959677 L11.7169355,16.466129 C11.6229839,16.3177419 11.5544355,16.1532258 11.5258065,15.975 C11.516129,15.9157258 11.5112903,15.8548387 11.5112903,15.7927419 C11.5112903,15.5370968 11.5782258,15.3145161 11.6967742,15.1100806 C11.7741935,14.9770161 11.8725806,14.8512097 11.9935484,14.7302419 C12.0391129,14.6846774 12.0870968,14.6395161 12.1383065,14.5947581 C12.1947581,14.5455645 12.2548387,14.4971774 12.3177419,14.4487903 C12.3975806,14.3875 12.5237903,14.3157258 12.6745968,14.2318548 C12.7677419,14.1798387 12.8689516,14.1237903 12.9794355,14.0604839 C13.3274194,13.8616935 13.7435484,13.6020161 14.1169355,13.2483871 C14.2693548,13.1044355 14.4141129,12.9447581 14.5443548,12.7673387 C14.6096774,12.678629 14.6709677,12.5854839 14.7274194,12.4879032 C14.841129,12.2923387 14.9358871,12.0778226 15.0044355,11.8423387 C15.0729839,11.6072581 15.1149194,11.3512097 15.1233871,11.0717742 C15.1278226,10.9318548 15.125,10.7979839 15.116129,10.6689516 C15.1076613,10.5399194 15.0927419,10.4157258 15.0717742,10.2967742 Z M12.0423387,17.9858871 L12.0814516,20.5995968 C12.1229839,20.5806452 12.1657258,20.5612903 12.2060484,20.5423387 C12.3487903,20.4758065 12.4725806,20.4048387 12.5830645,20.3310484 L12.6693548,14.5818548 C12.5987903,14.6229839 12.5403226,14.6592742 12.5016129,14.6887097 C12.2754032,14.8620968 12.1120968,15.0270161 12.0004032,15.1947581 L12.0423387,17.9858871 Z M11.9100806,9.15685484 L11.9649194,12.8201613 C12.0362903,12.7729839 12.1008065,12.725 12.1766129,12.678629 C12.3842742,12.5516129 12.5568548,12.4399194 12.7028226,12.3342742 L12.8237903,4.24637097 C12.7229839,4.27620968 12.6181452,4.30967742 12.5028226,4.35080645 C12.2516129,4.43991935 12.0306452,4.53508065 11.8423387,4.64314516 L11.9048387,8.81048387 L11.9048387,8.8108871 L11.9100806,9.15685484 Z M12.428629,21.7024194 C12.4717742,21.6854839 12.5173387,21.6665323 12.5633065,21.6471774 L12.525,24.2185484 L12.1354839,24.2185484 L12.0995968,21.8173387 C12.2080645,21.783871 12.3181452,21.7459677 12.428629,21.7024194 L12.428629,21.7024194 Z" id="Fill-13" fill="#FFFFFF"></path>
                    </g>
                    <g id="Broadband" transform="translate(0.000000, 26.000000)">
                        <polygon id="Fill-15" fill="#0A0A08" points="0.0241935484 24.9758065 24.6455645 24.9758065 24.6455645 0.354435484 0.0241935484 0.354435484"></polygon>
                        <path d="M4.75,0.786290323 C3.1108871,0.786290323 1.52096774,0.993145161 0,1.37419355 L0,1.68467742 C0.645564516,1.62459677 1.29959677,1.59274194 1.9608871,1.59274194 C13.8379032,1.59274194 23.4665323,11.2209677 23.4665323,23.0979839 C23.4665323,23.7395161 23.4358871,24.3733871 23.3794355,25 L23.6991935,25 C24.0709677,23.4971774 24.2729839,21.9270161 24.2729839,20.3092742 C24.2729839,9.52701613 15.5322581,0.786290323 4.75,0.786290323" id="Fill-16" fill="#D2D1CB"></path>
                        <path d="M23.6991935,25 L23.3794355,25 C23.4358871,24.3733871 23.4665323,23.7395161 23.4665323,23.0979839 C23.4665323,11.2209677 13.8379032,1.59274194 1.9608871,1.59274194 C1.29959677,1.59274194 0.645564516,1.62459677 0,1.68467742 L0,1.37419355 C1.52096774,0.993145161 3.1108871,0.786290323 4.75,0.786290323 C15.5322581,0.786290323 24.2729839,9.52701613 24.2729839,20.3092742 C24.2729839,21.9270161 24.0709677,23.4971774 23.6991935,25" id="Fill-17" fill="#D2D1CB"></path>
                        <path d="M4.11895161,3.77701613 C2.6983871,3.77701613 1.31975806,3.95403226 0,4.27983871 L0,4.56209677 C0.549193548,4.5125 1.10483871,4.4858871 1.66693548,4.4858871 C12.1084677,4.4858871 20.5733871,12.9504032 20.5733871,23.3923387 C20.5733871,23.9342742 20.5471774,24.4701613 20.5012097,25 L20.7935484,25 C21.1100806,23.6979839 21.2822581,22.3395161 21.2822581,20.9403226 C21.2822581,11.4612903 13.5979839,3.77701613 4.11895161,3.77701613" id="Fill-18" fill="#D2D1CB"></path>
                        <path d="M20.7935484,25 L20.5012097,25 C20.5471774,24.4701613 20.5733871,23.9342742 20.5733871,23.3923387 C20.5733871,12.9504032 12.1084677,4.4858871 1.66693548,4.4858871 C1.10483871,4.4858871 0.549193548,4.5125 0,4.56209677 L0,4.27983871 C1.31975806,3.95403226 2.6983871,3.77701613 4.11895161,3.77701613 C13.5979839,3.77701613 21.2822581,11.4612903 21.2822581,20.9403226 C21.2822581,22.3395161 21.1100806,23.6979839 20.7935484,25" id="Fill-19" fill="#D2D1CB"></path>
                        <path d="M3.48790323,6.76733871 C2.2858871,6.76733871 1.11895161,6.91451613 0,7.18548387 L0,7.44032258 C0.452822581,7.40120968 0.910080645,7.37903226 1.37298387,7.37903226 C10.3790323,7.37903226 17.6802419,14.6798387 17.6802419,23.6862903 C17.6802419,24.1290323 17.658871,24.5665323 17.6229839,25 L17.8883065,25 C18.1495968,23.8991935 18.2915323,22.7520161 18.2915323,21.571371 C18.2915323,13.3955645 11.6637097,6.76733871 3.48790323,6.76733871" id="Fill-20" fill="#D2D1CB"></path>
                        <path d="M17.8883065,25 L17.6229839,25 C17.658871,24.5665323 17.6802419,24.1290323 17.6802419,23.6862903 C17.6802419,14.6798387 10.3790323,7.37903226 1.37298387,7.37903226 C0.910080645,7.37903226 0.452822581,7.40120968 0,7.44032258 L0,7.18548387 C1.11895161,6.91451613 2.2858871,6.76733871 3.48790323,6.76733871 C11.6637097,6.76733871 18.2915323,13.3955645 18.2915323,21.571371 C18.2915323,22.7520161 18.1495968,23.8991935 17.8883065,25" id="Fill-21" fill="#D2D1CB"></path>
                        <path d="M2.85685484,9.75806452 C1.8733871,9.75806452 0.91733871,9.875 0,10.091129 L0,10.3185484 C0.356048387,10.2899194 0.715322581,10.2721774 1.07903226,10.2721774 C8.64959677,10.2721774 14.7870968,16.4092742 14.7870968,23.9802419 C14.7870968,24.3237903 14.7705645,24.6633065 14.7447581,25 L14.9826613,25 C15.1895161,24.1008065 15.3012097,23.1649194 15.3012097,22.2024194 C15.3012097,15.3298387 9.72943548,9.75806452 2.85685484,9.75806452" id="Fill-22" fill="#D2D1CB"></path>
                        <path d="M14.9826613,25 L14.7447581,25 C14.7705645,24.6633065 14.7870968,24.3237903 14.7870968,23.9802419 C14.7870968,16.4092742 8.64959677,10.2721774 1.07903226,10.2721774 C0.715322581,10.2721774 0.356048387,10.2899194 0,10.3185484 L0,10.091129 C0.91733871,9.875 1.8733871,9.75806452 2.85685484,9.75806452 C9.72943548,9.75806452 15.3012097,15.3298387 15.3012097,22.2024194 C15.3012097,23.1649194 15.1895161,24.1008065 14.9826613,25" id="Fill-23" fill="#D2D1CB"></path>
                        <path d="M2.22580645,12.7487903 C1.45967742,12.7487903 0.716935484,12.8431452 0,13.0052419 L0,13.196371 C0.259274194,13.1778226 0.520564516,13.1653226 0.785080645,13.1653226 C6.92016129,13.1653226 11.8939516,18.1391129 11.8939516,24.2741935 C11.8939516,24.5185484 11.8826613,24.7600806 11.8665323,25 L12.0669355,25 C12.2205645,24.3012097 12.3104839,23.578629 12.3104839,22.8334677 C12.3104839,17.2637097 7.79516129,12.7487903 2.22580645,12.7487903" id="Fill-24" fill="#D2D1CB"></path>
                        <path d="M12.0669355,25 L11.8665323,25 C11.8826613,24.7600806 11.8939516,24.5185484 11.8939516,24.2741935 C11.8939516,18.1391129 6.92016129,13.1653226 0.785080645,13.1653226 C0.520564516,13.1653226 0.259274194,13.1778226 0,13.196371 L0,13.0052419 C0.716935484,12.8431452 1.45967742,12.7487903 2.22580645,12.7487903 C7.79516129,12.7487903 12.3104839,17.2637097 12.3104839,22.8334677 C12.3104839,23.578629 12.2205645,24.3012097 12.0669355,25" id="Fill-25" fill="#D2D1CB"></path>
                        <path d="M1.59435484,15.7391129 C1.04637097,15.7391129 0.514919355,15.8056452 0,15.9169355 L0,16.0826613 C0.162903226,16.0721774 0.325403226,16.0584677 0.491129032,16.0584677 C5.19072581,16.0584677 9.00080645,19.8685484 9.00080645,24.5681452 C9.00080645,24.7141129 8.9875,24.8564516 8.97943548,25 L9.15564516,25 C9.25846774,24.503629 9.31975806,23.9919355 9.31975806,23.4645161 C9.31975806,19.1979839 5.86129032,15.7391129 1.59435484,15.7391129" id="Fill-26" fill="#D2D1CB"></path>
                        <path d="M9.15564516,25 L8.97943548,25 C8.9875,24.8564516 9.00080645,24.7141129 9.00080645,24.5681452 C9.00080645,19.8685484 5.19072581,16.0584677 0.491129032,16.0584677 C0.325403226,16.0584677 0.162903226,16.0721774 0,16.0826613 L0,15.9169355 C0.514919355,15.8056452 1.04637097,15.7391129 1.59435484,15.7391129 C5.86129032,15.7391129 9.31975806,19.1979839 9.31975806,23.4645161 C9.31975806,23.9919355 9.25846774,24.503629 9.15564516,25" id="Fill-27" fill="#D2D1CB"></path>
                    </g>
                    <g id="Fire" transform="translate(26.000000, 0.000000)">
                        <polygon id="Fill-29" fill="#0A0A08" points="0.0576612903 24.9407258 24.7032258 24.9407258 24.7032258 0.29516129 0.0576612903 0.29516129"></polygon>
                        <path d="M7.73467742,24.4705645 C6.78709677,23.8834677 -3.44314516,17.1641129 7.7266129,7.19879032 L7.78185484,7.22620968 C7.66895161,7.73104839 7.20725806,10.121371 7.27782258,11 C7.55766129,10.7370968 8.96330645,9.31774194 9.17862903,7.15725806 L9.20443548,7.12943548 C9.53024194,7.10846774 13.1862903,6.74072581 14.108871,0.863709677 L14.1620968,0.84516129 C14.6512097,1.37056452 19.0254032,6.39879032 14.496371,13.6919355 C14.1322581,14.2782258 16.6447581,13.0129032 16.8745968,12.0862903 C17.103629,11.1612903 28.7705645,18.6125 18.5419355,23.6770161 L18.4939516,23.6439516 C18.55,23.3407258 19.8209677,20.1737903 14.496371,19.4475806 C12.341129,19.1532258 11.8939516,15.3032258 11.9157258,14.0370968 C11.9370968,12.7758065 5.55483871,17.341129 7.77822581,24.4322581 L7.73467742,24.4705645" id="Fill-30" fill="#D0442B"></path>
                    </g>
                    <g id="Police">
                        <polygon id="Fill-32" fill="#0A0A08" points="0.0241935484 24.9407258 24.6455645 24.9407258 24.6455645 0.29516129 0.0241935484 0.29516129"></polygon>
                        <path d="M12.7758065,2.16572581 L12.3987903,1.89354839 L12.021371,2.16572581 C10.0826613,4.10967742 2.85725806,2.90241935 2.85725806,2.90241935 L2.85725806,15.0346774 C2.85725806,17.0616935 5.20967742,21.8008065 12.103629,23.4173387 C12.103629,23.4173387 21.9399194,21.8008065 21.9399194,15.0346774 L21.9399194,2.90241935 C21.9399194,2.90241935 15.4548387,4.10967742 12.7758065,2.16572581" id="Fill-34" fill="#F2AE30"></path>
                        <polyline id="Fill-35" fill="#0A0A08" points="12.1056452 20.2125 9.76209677 16.9830645 5.7766129 17.1641129 6.84032258 13.3189516 4.21370968 10.3157258 7.88306452 8.75 8.59314516 4.82419355 12.1056452 6.71653226 15.6181452 4.82419355 16.3282258 8.75 19.9975806 10.3157258 17.3705645 13.3189516 18.4342742 17.1641129 14.4487903 16.9830645 12.1056452 20.2125"></polyline>
                    </g>
                </g>
                <text id="Local-Control" font-family="OpenSans-Extrabold, Open Sans" font-size="35" font-weight="600" letter-spacing="-1.5" fill="#EB9F02">
                    <tspan x="187" y="39">Local Control</tspan>
                </text>
            </g>
        </g>
    </g>
</svg>