<?xml version="1.0" encoding="UTF-8"?>
<svg width="412px" height="50px" viewBox="0 0 412 50" version="1.1" xmlns="http://www.w3.org/2000/svg" xmlns:xlink="http://www.w3.org/1999/xlink">
    <!-- Generator: Sketch 44 (41411) - http://www.bohemiancoding.com/sketch -->
    <title>Global / Logo</title>
    <desc>Created with Sketch.</desc>
    <defs></defs>
    <g id="Design" stroke="none" stroke-width="1" fill="none" fill-rule="evenodd">
        <g id="Administer-Team--v2-Copy" transform="translate(-131.000000, -25.000000)">
            <g id="Group-Copy" transform="translate(0.000000, -1.000000)">
                <g id="Global-/-FirstNet-Public-Safety-Logo" transform="translate(131.000000, 26.000000)">
                    <g id="FirstNet-Logo-(TM)-Copy-2" stroke-width="1">
                        <g id="FirstNet-Logo-text" transform="translate(56.933333, 12.559322)">
                            <polyline id="Fill-1" fill="#0A0A08" points="0.0413559322 1.26271025 14.8289966 1.26271025 14.8289966 5.58790153 5.53301017 5.58790153 5.53301017 10.9170412 14.2189966 10.9170412 14.2189966 15.2079435 5.53301017 15.2079435 5.53301017 24.5851719 0.0413559322 24.5851719 0.0413559322 1.26271025"></polyline>
                            <path d="M16.5510576,24.5851719 L22.0067322,24.5851719 L22.0067322,7.6639774 L16.5510576,7.6639774 L16.5510576,24.5851719 Z M22.1862169,2.95801937 C22.1862169,4.41131235 21.0377627,5.58790153 19.2429153,5.58790153 C17.5204407,5.58790153 16.3715729,4.41131235 16.4075525,2.95801937 C16.3715729,1.4357498 17.5204407,0.293848265 19.2788949,0.293848265 C21.0377627,0.293848265 22.1502373,1.4357498 22.1862169,2.95801937 L22.1862169,2.95801937 Z" id="Fill-2" fill="#0A0A08"></path>
                            <path d="M24.8772475,13.2351332 C24.8772475,10.7440016 24.8052881,9.11766909 24.7337424,7.6639774 L29.4354983,7.6639774 L29.6149831,10.7786893 L29.7584881,10.7786893 C30.6559119,8.32184665 32.8093153,7.28360936 34.4962237,7.28360936 C34.9991119,7.28360936 35.2501424,7.28360936 35.6450915,7.35298467 L35.6450915,12.3009588 C35.2501424,12.2315835 34.7832339,12.1626069 34.1732339,12.1626069 C32.162922,12.1626069 30.7994169,13.2008442 30.4404475,14.826778 C30.3684881,15.1732559 30.332922,15.5887103 30.332922,16.0037659 L30.332922,24.5851719 L24.8772475,24.5851719 L24.8772475,13.2351332" id="Fill-3" fill="#0A0A08"></path>
                            <path d="M36.9717898,19.9832768 C37.976739,20.5713721 40.0585966,21.2631316 41.6739593,21.2631316 C43.3253017,21.2631316 44.0068475,20.709724 44.0068475,19.8449249 C44.0068475,18.9797272 43.4683932,18.5642728 41.4225153,17.9068023 C37.7972542,16.7302131 36.3977695,14.826778 36.4337492,12.8196788 C36.4337492,9.67107667 39.2331322,7.28360936 43.5759186,7.28360936 C45.6222102,7.28360936 47.4526237,7.73375141 48.5295322,8.25247135 L47.5601492,11.8859031 C46.7706644,11.4704487 45.2628271,10.9170412 43.7554034,10.9170412 C42.427878,10.9170412 41.6739593,11.4357611 41.6739593,12.3009588 C41.6739593,13.0967813 42.3559186,13.5122357 44.509322,14.2386828 C47.8471593,15.3462954 49.2470576,16.9726279 49.2830373,19.4637595 C49.2830373,22.6127603 46.6987051,24.931251 41.6739593,24.931251 C39.3766373,24.931251 37.3307593,24.4472187 36.0032339,23.7546618 L36.9717898,19.9832768" id="Fill-4" fill="#0A0A08"></path>
                            <path d="M57.1782983,2.81966747 L57.1782983,7.6639774 L61.0905695,7.6639774 L61.0905695,11.5398241 L57.1782983,11.5398241 L57.1782983,17.6643874 C57.1782983,19.7061743 57.6811864,20.6407474 59.3321153,20.6407474 C60.013661,20.6407474 60.5521153,20.5713721 60.9470644,20.5019968 L60.9830441,24.4815077 C60.2651051,24.7582115 58.9727322,24.931251 57.4297424,24.931251 C55.670461,24.931251 54.1994305,24.3427571 53.3379864,23.4783567 C52.3326237,22.4744084 51.8305627,20.8484746 51.8305627,18.4602098 L51.8305627,11.5398241 L49.497261,11.5398241 L49.497261,7.6639774 L51.8305627,7.6639774 L51.8305627,3.99625666 L57.1782983,2.81966747" id="Fill-5" fill="#0A0A08"></path>
                            <path d="M62.9201559,24.5851719 L62.9201559,1.26271025 L69.3092339,1.26271025 L74.3339797,9.80942857 C75.7698576,12.2662712 77.205322,15.1732559 78.2822305,17.803138 L78.3897559,17.803138 C78.0307864,14.7231138 77.9228475,11.5745117 77.9228475,8.0794318 L77.9228475,1.26271025 L82.9475932,1.26271025 L82.9475932,24.5851719 L77.205322,24.5851719 L72.0366576,15.5887103 C70.6016068,13.0967813 69.0213966,10.0865311 67.8373763,7.35298467 L67.7294373,7.38727361 C67.8733559,10.4672978 67.9449017,13.7546505 67.9449017,17.5611219 L67.9449017,24.5851719 L62.9201559,24.5851719" id="Fill-6" fill="#0A0A08"></path>
                            <path d="M96.5144068,14.2043939 C96.5144068,12.9241404 95.9395593,10.7786893 93.4271864,10.7786893 C91.1298644,10.7786893 90.1972881,12.7857885 90.0537831,14.2043939 L96.5144068,14.2043939 Z M90.0893492,17.803138 C90.2688339,19.9832768 92.4941966,21.0211154 95.0425492,21.0211154 C96.9089424,21.0211154 98.4167797,20.7790993 99.8878102,20.3289572 L100.605749,23.8930137 C98.8113153,24.5851719 96.6219322,24.931251 94.2526508,24.931251 C88.2949153,24.931251 84.8847051,21.6096094 84.8847051,16.3151574 C84.8847051,12.0238563 87.648522,7.28360936 93.7501763,7.28360936 C99.4213153,7.28360936 101.574719,11.5398241 101.574719,15.7266634 C101.574719,16.6265488 101.467607,17.4223713 101.395234,17.803138 L90.0893492,17.803138 L90.0893492,17.803138 Z" id="Fill-7" fill="#0A0A08"></path>
                            <path d="M109.434414,2.81966747 L109.434414,7.6639774 L113.347098,7.6639774 L113.347098,11.5398241 L109.434414,11.5398241 L109.434414,17.6643874 C109.434414,19.7061743 109.937302,20.6407474 111.588231,20.6407474 C112.270603,20.6407474 112.808231,20.5713721 113.20318,20.5019968 L113.239159,24.4815077 C112.521634,24.7582115 111.229261,24.931251 109.685858,24.931251 C107.927403,24.931251 106.455959,24.3427571 105.594102,23.4783567 C104.588739,22.4744084 104.087092,20.8484746 104.087092,18.4602098 L104.087092,11.5398241 L101.75379,11.5398241 L101.75379,7.6639774 L104.087092,7.6639774 L104.087092,3.99625666 L109.434414,2.81966747" id="Fill-8" fill="#0A0A08"></path>
                            <polyline id="Fill-36" fill="#1A1918" points="114.956671 1.84960936 113.897546 1.84960936 113.897546 1.12754802 116.927695 1.12754802 116.927695 1.84960936 115.851614 1.84960936 115.851614 4.92883616 114.956671 4.92883616 114.956671 1.84960936"></polyline>
                            <path d="M120.713003,3.47394835 C120.695634,3.01702825 120.677851,2.46441808 120.677851,1.91180791 L120.660481,1.91180791 C120.537654,2.39663761 120.373471,2.93808394 120.221281,3.38344149 L119.741966,4.86663761 L119.045532,4.86663761 L118.624529,3.39460533 C118.495498,2.94924778 118.361092,2.40780145 118.268041,1.91180791 L118.256047,1.91180791 C118.232888,2.42494592 118.215105,3.01144633 118.185742,3.48511219 L118.115437,4.92883616 L117.2908,4.92883616 L117.542658,1.12754802 L118.729986,1.12754802 L119.115837,2.39663761 C119.238664,2.83641324 119.361492,3.3100791 119.449166,3.75583535 L119.466949,3.75583535 C119.577783,3.31605973 119.712603,2.81408555 119.84122,2.39105569 L120.262637,1.12754802 L121.426393,1.12754802 L121.643098,4.92883616 L120.771315,4.92883616 L120.713003,3.47394835" id="Fill-37" fill="#1A1918"></path>
                        </g>
                        <g id="EMS" transform="translate(26.433333, 25.118644)">
                            <polygon id="Fill-10" fill="#0A0A08" points="0.0586223118 24.1291689 25.1149462 24.1291689 25.1149462 0.342420722 0.0586223118 0.342420722"></polygon>
                            <polyline id="Fill-12" fill="#4D80A5" points="24.5287231 9.15537179 21.2868683 3.64625478 15.829254 6.73778021 15.829254 0.555508475 9.34513441 0.555508475 9.34513441 6.73855932 3.88711022 3.64625478 0.644435484 9.15537179 6.10204973 12.2468972 0.644435484 15.3376435 3.88711022 20.8487083 9.34513441 17.7567933 9.34513441 23.9398442 15.829254 23.9398442 15.829254 17.7571829 21.2868683 20.8487083 24.5287231 15.3403704 19.069879 12.2476763 24.5287231 9.15537179"></polyline>
                            <path d="M11.1525874,7.9083994 C11.3116465,8.03539502 11.483414,8.15576818 11.6670699,8.26951886 C11.7076546,8.29445052 11.7511089,8.3182135 11.7933333,8.3427556 L11.765457,6.58507381 C11.6822379,6.5297567 11.6043481,6.47638737 11.5387567,6.42457627 C11.3895363,6.30654046 11.2841801,6.19317933 11.2128495,6.06735238 C11.1058535,5.87802761 11.0755175,5.66065473 11.0882258,5.35641061 C11.1083132,4.87998223 11.3669892,4.56249317 11.7297917,4.32720066 C11.8257191,4.26526107 11.9261559,4.2068275 12.0347917,4.15540596 C12.215578,4.06892428 12.4098925,3.99490842 12.6083065,3.92790459 L12.6087164,3.92751504 C12.7657258,3.87453527 12.9071573,3.83324221 13.0412097,3.79740295 L13.0424395,3.7970134 C13.1506653,3.76857572 13.2543817,3.74286495 13.351129,3.7233871 C13.64875,3.66378486 13.900047,3.64313833 14.1488844,3.63768453 C14.2103763,3.6361263 14.2714583,3.63573674 14.3337702,3.63573674 C14.3964919,3.63573674 14.4583938,3.6361263 14.5194758,3.6361263 L14.5358737,3.6361263 C14.5883468,3.6361263 14.6395901,3.63573674 14.6900134,3.63456807 L14.7125605,3.6333994 C14.7576546,3.63184117 14.8015188,3.62911427 14.8441532,3.6252187 L14.8921169,3.61937534 L14.9859946,3.60457217 L15.0360081,3.59210634 L15.1122581,3.56756424 L15.1573522,3.54730727 L15.2200739,3.50835156 L15.2557392,3.48030344 L15.3065726,3.41914297 L15.3295296,3.38680973 C15.349207,3.35058092 15.3656048,3.31006698 15.3754435,3.26254101 C15.3861022,3.21150902 15.3856922,3.16203527 15.3750336,3.11450929 C15.364375,3.06659377 15.3438777,3.02023647 15.3139516,2.97621651 C15.2549194,2.88739748 15.1598118,2.80675916 15.0380578,2.73702843 C14.7949597,2.59678786 14.4444556,2.49939858 14.060336,2.46706534 C13.9607191,2.45849508 13.8611022,2.45498907 13.763125,2.45498907 L13.7545161,2.45459951 C13.6688374,2.45459951 13.5852083,2.45771597 13.5032191,2.46239065 L13.4396774,2.46706534 L13.3708065,2.47251914 C13.3322715,2.47602515 13.2941465,2.47875205 13.2572513,2.48303718 L13.1715726,2.49316566 L13.0629368,2.50718972 L13.0330108,2.51186441 L12.9534812,2.52433024 C12.9128965,2.53095271 12.8755914,2.53718562 12.8399261,2.54380809 L12.7739247,2.55666348 L12.6837366,2.57536222 L12.6390524,2.58510115 L12.573871,2.60029388 L12.5517339,2.60574768 L12.5230376,2.61314926 C12.3578293,2.64898852 12.1860618,2.69963095 12.0126546,2.76157053 C11.9507527,2.78377529 11.8888508,2.8063696 11.8269489,2.83169081 C11.7867742,2.84844177 11.7470094,2.86714051 11.7072446,2.88506014 C11.4620968,2.99413614 11.2198185,3.12853335 10.9943481,3.28708311 C10.3171169,3.76234281 9.78992608,4.45614407 9.78992608,5.34004921 C9.78992608,5.51846638 9.80632392,5.69415664 9.83788978,5.86595134 C9.88093414,6.09851695 9.95431452,6.32407053 10.0531116,6.54183297 C10.0756586,6.59208584 10.0998454,6.64194915 10.125672,6.69142291 C10.2211895,6.87568343 10.3355645,7.05371104 10.468797,7.22433707 C10.6016196,7.39496309 10.7537097,7.55857709 10.9238374,7.71362083 C10.9968078,7.77984554 11.0730578,7.84490159 11.1525874,7.9083994 Z M12.4377688,2.33227857 C12.4537567,2.32799344 12.7071035,2.25982094 13.0674462,2.2111263 L13.0867137,0.99804538 L11.9847782,0.99804538 L12.0077352,2.45265172 C12.1565457,2.40278841 12.3012567,2.36188491 12.4377688,2.33227857 Z M14.3899328,17.976114 C14.2771976,17.7540664 14.1185484,17.5542236 13.9283333,17.37269 C13.7385282,17.1907668 13.5175672,17.0267633 13.2810282,16.8760046 C13.237164,16.8479565 13.1904301,16.8226353 13.145336,16.7953663 L13.1285282,17.8639215 C13.2441331,17.9336523 13.3462097,18.0018248 13.4261492,18.0735033 C13.6204637,18.2480249 13.7102419,18.4470886 13.7016331,18.763409 C13.6967137,18.9379306 13.656129,19.0945325 13.5888978,19.2343835 C13.480672,19.4607162 13.3023454,19.6426394 13.0981922,19.7926189 C12.9989852,19.8650765 12.8944489,19.9301326 12.787453,19.9881766 C12.7050538,20.0325861 12.6222446,20.0742687 12.5398454,20.1108871 C12.4717944,20.1412726 12.4008737,20.171658 12.329543,20.202433 L12.2877285,20.2203527 C12.184832,20.2647622 12.0823454,20.3087821 11.9823185,20.3528021 L11.9044288,20.3870831 C11.8363777,20.4178581 11.7707863,20.447854 11.7097043,20.4778499 C11.4641465,20.5978335 11.2845901,20.7111946 11.2759812,20.8085839 L11.2960685,20.8646802 L11.3132863,20.8775355 L11.3608401,20.9012985 L11.391586,20.9098688 L11.4686559,20.9196077 L11.5055511,20.9219451 L11.5207191,20.9231137 L11.5662231,20.9196077 C11.6059879,20.9180495 11.6473925,20.9153226 11.6928965,20.9098688 L11.7703763,20.8989612 C11.8167003,20.8919492 11.8650739,20.8829893 11.9154973,20.8724713 L11.9901075,20.856889 L12.001996,20.8537726 C12.0573387,20.8405276 12.1151411,20.8253349 12.1737634,20.8085839 L12.2561626,20.7852105 L12.2963374,20.7731342 C12.3709476,20.7493712 12.4467876,20.7236605 12.5230376,20.6952228 C12.5984677,20.6667851 12.6849664,20.6325041 12.7780242,20.5931588 L12.7981116,20.5845886 C12.8891196,20.5456329 12.9870968,20.5004442 13.0875336,20.4509705 L13.1195094,20.4357777 C13.2314247,20.3796815 13.3466196,20.3173524 13.4614046,20.2484008 C13.5757796,20.1790596 13.6893347,20.1034855 13.7975605,20.021289 C13.8516734,19.9803855 13.9045565,19.9375342 13.9557997,19.8931247 C14.0578763,19.8043056 14.1525739,19.7088641 14.235793,19.6068002 C14.2771976,19.5557682 14.3157325,19.503178 14.3509879,19.44864 C14.4210887,19.3399535 14.4776613,19.2242551 14.5161962,19.1019341 C14.5547312,18.9796132 14.5748185,18.8506698 14.5727688,18.7147143 C14.5707191,18.5787589 14.5530914,18.4498155 14.5219355,18.3267154 C14.4907796,18.2040049 14.4460954,18.0871378 14.3899328,17.976114 Z M15.3229704,9.947731 C15.2811559,9.71750273 15.2159745,9.50597321 15.1319355,9.31080508 C15.0237097,9.05993029 14.8822782,8.83827228 14.7215793,8.63570257 C14.632621,8.52389967 14.5391532,8.41599235 14.4383065,8.31626572 C14.296875,8.17680426 14.1451949,8.04902952 13.9881855,7.9302146 C13.8311761,7.81139967 13.6684274,7.70193412 13.5044489,7.59909103 C13.4335282,7.55468152 13.3630175,7.51221979 13.2920968,7.47014762 L13.2646304,9.2106889 L13.3330914,9.28860033 C13.4433669,9.41715418 13.541754,9.55233051 13.6159543,9.69607709 C13.7188508,9.89397212 13.7889516,10.1016061 13.8328159,10.3049549 C13.8766801,10.5086933 13.8938978,10.7085361 13.8893884,10.8912384 C13.8873387,10.9823948 13.8791398,11.0677078 13.8643817,11.1479565 C13.8496237,11.2282053 13.8287164,11.3033898 13.80125,11.3750683 C13.7004032,11.6356821 13.5073185,11.8456534 13.2199462,12.0606889 C13.1260685,12.1304196 13.0239919,12.201319 12.909207,12.2745558 C12.7956519,12.3462343 12.6751277,12.4198606 12.5398454,12.4981616 C12.4070228,12.5752939 12.2873185,12.6535949 12.169664,12.7322854 C12.0610282,12.804743 11.9618212,12.8791484 11.8658938,12.9535539 C11.0427218,13.5928171 10.6778696,14.3068753 10.6954973,15.2737562 C10.6983669,15.4502255 10.7082056,15.6095544 10.7328024,15.7579757 C10.7492003,15.8569232 10.7717473,15.9508065 10.8033132,16.0411837 C10.8193011,16.0867619 10.8373387,16.1311714 10.857836,16.1751914 C10.919328,16.3068617 11.0037769,16.4330782 11.1185618,16.5600738 C11.3009879,16.7614748 11.5633535,16.9652132 11.9327151,17.1927146 L11.9122177,15.9079552 C11.8167003,15.7645981 11.7470094,15.6056588 11.7179032,15.4334746 C11.7080645,15.3762097 11.7031452,15.3173866 11.7031452,15.2573948 C11.7031452,15.0104155 11.7711962,14.79538 11.8917204,14.5978745 C11.9704301,14.4693207 12.070457,14.3477788 12.1934409,14.2309117 C12.2397648,14.1868917 12.2885484,14.1432613 12.3406116,14.1000205 C12.398004,14.0524945 12.459086,14.0057477 12.5230376,13.9590008 C12.604207,13.8997881 12.7325202,13.830447 12.8858401,13.7494191 C12.9805376,13.6991662 13.0834341,13.6450178 13.1957594,13.5838573 C13.549543,13.3918056 13.9726075,13.1409308 14.3522177,12.7992892 C14.5071774,12.6602173 14.6543481,12.5059527 14.7867608,12.3345476 C14.853172,12.248845 14.9154839,12.1588573 14.9728763,12.0645845 C15.0884812,11.8756493 15.1848185,11.6684049 15.2545094,11.4409035 C15.3242003,11.2137917 15.3668347,10.9664229 15.3754435,10.6964598 C15.379953,10.5612835 15.3770833,10.4319505 15.3680645,10.3072922 C15.3594556,10.182634 15.3442876,10.0626504 15.3229704,9.947731 Z M12.2430444,17.376196 L12.2828091,19.9013054 C12.3250336,19.8829962 12.3684879,19.8642974 12.4094825,19.8459882 C12.5546035,19.7817113 12.680457,19.7131493 12.7927823,19.6418603 L12.8805108,14.0875547 C12.8087702,14.1272895 12.749328,14.1623496 12.7099731,14.1907873 C12.4799933,14.3582969 12.3139651,14.5176258 12.2004099,14.6796815 L12.2430444,17.376196 Z M12.108582,8.84645298 L12.1643347,12.3855796 C12.2368952,12.3400014 12.3024866,12.2936441 12.3795565,12.248845 C12.5906788,12.1261345 12.7661358,12.0182272 12.9145363,11.9161632 L13.0375202,4.10242619 C12.9350336,4.13125342 12.8284476,4.16358666 12.711203,4.20332149 C12.4558065,4.28941361 12.2311559,4.3813491 12.039711,4.48575041 L12.1032527,8.5118234 L12.1032527,8.51221296 L12.108582,8.84645298 Z M12.6357728,20.9667441 C12.6796371,20.9503827 12.725961,20.9320735 12.7726949,20.9133748 L12.73375,23.3975806 L12.3377419,23.3975806 L12.3012567,21.0777679 C12.4115323,21.0454347 12.5234476,21.0088163 12.6357728,20.9667441 L12.6357728,20.9667441 Z" id="Fill-13" fill="#FFFFFF"></path>
                        </g>
                        <g id="Broadband" transform="translate(0.000000, 25.118644)">
                            <polygon id="Fill-15" fill="#0A0A08" points="0.0245967742 24.1291689 25.0563239 24.1291689 25.0563239 0.342420722 0.0245967742 0.342420722"></polygon>
                            <path d="M4.82916667,0.759636413 C3.16273522,0.759636413 1.5463172,0.959479224 0,1.32761072 L0,1.62756971 C0.656323925,1.5695257 1.32125672,1.53875068 1.99356855,1.53875068 C14.0685349,1.53875068 23.8576411,10.840596 23.8576411,22.3150014 C23.8576411,22.9347868 23.8264852,23.5471706 23.7690927,24.1525424 L24.0941801,24.1525424 C24.4721505,22.7006629 24.6775336,21.1837274 24.6775336,19.6208242 C24.6775336,9.20406643 15.791129,0.759636413 4.82916667,0.759636413" id="Fill-16" fill="#D2D1CB"></path>
                            <path d="M24.0941801,24.1525424 L23.7690927,24.1525424 C23.8264852,23.5471706 23.8576411,22.9347868 23.8576411,22.3150014 C23.8576411,10.840596 14.0685349,1.53875068 1.99356855,1.53875068 C1.32125672,1.53875068 0.656323925,1.5695257 0,1.62756971 L0,1.32761072 C1.5463172,0.959479224 3.16273522,0.759636413 4.82916667,0.759636413 C15.791129,0.759636413 24.6775336,9.20406643 24.6775336,19.6208242 C24.6775336,21.1837274 24.4721505,22.7006629 24.0941801,24.1525424" id="Fill-17" fill="#D2D1CB"></path>
                            <path d="M4.18760081,3.64898168 C2.74336022,3.64898168 1.34175403,3.81999727 0,4.13475943 L0,4.40744943 C0.558346774,4.3595339 1.12325269,4.33382313 1.69471774,4.33382313 C12.3102755,4.33382313 20.9162769,12.5114065 20.9162769,22.5993781 C20.9162769,23.1229429 20.8896304,23.6406643 20.8428965,24.1525424 L21.1401075,24.1525424 C21.4619153,22.8946624 21.6369624,21.5822444 21.6369624,20.2304811 C21.6369624,11.072772 13.8246169,3.64898168 4.18760081,3.64898168" id="Fill-18" fill="#D2D1CB"></path>
                            <path d="M21.1401075,24.1525424 L20.8428965,24.1525424 C20.8896304,23.6406643 20.9162769,23.1229429 20.9162769,22.5993781 C20.9162769,12.5114065 12.3102755,4.33382313 1.69471774,4.33382313 C1.12325269,4.33382313 0.558346774,4.3595339 0,4.40744943 L0,4.13475943 C1.34175403,3.81999727 2.74336022,3.64898168 4.18760081,3.64898168 C13.8246169,3.64898168 21.6369624,11.072772 21.6369624,20.2304811 C21.6369624,21.5822444 21.4619153,22.8946624 21.1401075,24.1525424" id="Fill-19" fill="#D2D1CB"></path>
                            <path d="M3.54603495,6.5379374 C2.32398522,6.5379374 1.13760081,6.68012575 0,6.94190815 L0,7.18810826 C0.460369624,7.15032121 0.925248656,7.12889557 1.39586694,7.12889557 C10.5520161,7.12889557 17.9749126,14.1822171 17.9749126,22.8833652 C17.9749126,23.311099 17.9531855,23.7337685 17.9167003,24.1525424 L18.1864449,24.1525424 C18.4520901,23.0890514 18.5963911,21.9807613 18.5963911,20.8401381 C18.5963911,12.9414776 11.8581048,6.5379374 3.54603495,6.5379374" id="Fill-20" fill="#D2D1CB"></path>
                            <path d="M18.1864449,24.1525424 L17.9167003,24.1525424 C17.9531855,23.7337685 17.9749126,23.311099 17.9749126,22.8833652 C17.9749126,14.1822171 10.5520161,7.12889557 1.39586694,7.12889557 C0.925248656,7.12889557 0.460369624,7.15032121 0,7.18810826 L0,6.94190815 C1.13760081,6.68012575 2.32398522,6.5379374 3.54603495,6.5379374 C11.8581048,6.5379374 18.5963911,12.9414776 18.5963911,20.8401381 C18.5963911,21.9807613 18.4520901,23.0890514 18.1864449,24.1525424" id="Fill-21" fill="#D2D1CB"></path>
                            <path d="M2.90446909,9.42728267 C1.90461022,9.42728267 0.932627688,9.54025424 0,9.74905686 L0,9.96876709 C0.361982527,9.94110853 0.727244624,9.92396802 1.09701613,9.92396802 C8.79375672,9.92396802 15.0335484,15.8530276 15.0335484,23.1673524 C15.0335484,23.4992551 15.0167406,23.8272622 14.990504,24.1525424 L15.2323723,24.1525424 C15.4426747,23.28383 15.5562298,22.3796679 15.5562298,21.449795 C15.5562298,14.8101832 9.89159274,9.42728267 2.90446909,9.42728267" id="Fill-22" fill="#D2D1CB"></path>
                            <path d="M15.2323723,24.1525424 L14.990504,24.1525424 C15.0167406,23.8272622 15.0335484,23.4992551 15.0335484,23.1673524 C15.0335484,15.8530276 8.79375672,9.92396802 1.09701613,9.92396802 C0.727244624,9.92396802 0.361982527,9.94110853 0,9.96876709 L0,9.74905686 C0.932627688,9.54025424 1.90461022,9.42728267 2.90446909,9.42728267 C9.89159274,9.42728267 15.5562298,14.8101832 15.5562298,21.449795 C15.5562298,22.3796679 15.4426747,23.28383 15.2323723,24.1525424" id="Fill-23" fill="#D2D1CB"></path>
                            <path d="M2.26290323,12.3166279 C1.48400538,12.3166279 0.728884409,12.4077843 0,12.5643863 L0,12.7490364 C0.26359543,12.7311167 0.529240591,12.7190405 0.798165323,12.7190405 C7.03549731,12.7190405 12.0921841,17.5242277 12.0921841,23.4513395 C12.0921841,23.6874112 12.0807056,23.9207559 12.0643078,24.1525424 L12.2680511,24.1525424 C12.4242406,23.4774399 12.5156586,22.7793535 12.5156586,22.0594519 C12.5156586,16.6784992 7.92508065,12.3166279 2.26290323,12.3166279" id="Fill-24" fill="#D2D1CB"></path>
                            <path d="M12.2680511,24.1525424 L12.0643078,24.1525424 C12.0807056,23.9207559 12.0921841,23.6874112 12.0921841,23.4513395 C12.0921841,17.5242277 7.03549731,12.7190405 0.798165323,12.7190405 C0.529240591,12.7190405 0.26359543,12.7311167 0,12.7490364 L0,12.5643863 C0.728884409,12.4077843 1.48400538,12.3166279 2.26290323,12.3166279 C7.92508065,12.3166279 12.5156586,16.6784992 12.5156586,22.0594519 C12.5156586,22.7793535 12.4242406,23.4774399 12.2680511,24.1525424" id="Fill-25" fill="#D2D1CB"></path>
                            <path d="M1.62092742,15.2055837 C1.06381048,15.2055837 0.523501344,15.2698606 0,15.3773783 L0,15.5374863 C0.16561828,15.5273578 0.330826613,15.5141129 0.499314516,15.5141129 C5.2772379,15.5141129 9.15081989,19.1950383 9.15081989,23.7353267 C9.15081989,23.8763464 9.13729167,24.01386 9.12909274,24.1525424 L9.30823925,24.1525424 C9.41277554,23.6729975 9.47508737,23.1786495 9.47508737,22.6691088 C9.47508737,18.5472048 5.95897849,15.2055837 1.62092742,15.2055837" id="Fill-26" fill="#D2D1CB"></path>
                            <path d="M9.30823925,24.1525424 L9.12909274,24.1525424 C9.13729167,24.01386 9.15081989,23.8763464 9.15081989,23.7353267 C9.15081989,19.1950383 5.2772379,15.5141129 0.499314516,15.5141129 C0.330826613,15.5141129 0.16561828,15.5273578 0,15.5374863 L0,15.3773783 C0.523501344,15.2698606 1.06381048,15.2055837 1.62092742,15.2055837 C5.95897849,15.2055837 9.47508737,18.5472048 9.47508737,22.6691088 C9.47508737,23.1786495 9.41277554,23.6729975 9.30823925,24.1525424" id="Fill-27" fill="#D2D1CB"></path>
                        </g>
                        <g id="Fire" transform="translate(26.433333, 0.000000)">
                            <polygon id="Fill-29" fill="#0A0A08" points="0.0586223118 24.0952775 25.1149462 24.0952775 25.1149462 0.285155823 0.0586223118 0.285155823"></polygon>
                            <path d="M7.86358871,23.6410539 C6.90021505,23.0738587 -3.50053091,16.5822786 7.85538978,6.95476353 L7.91155242,6.98125342 C7.79676747,7.46897895 7.32737903,9.77827365 7.39911962,10.6271186 C7.68362231,10.3731274 9.11269489,9.00188628 9.33160618,6.91463915 L9.35784274,6.8877597 C9.6890793,6.86750273 13.4060618,6.51222663 14.3440188,0.834431383 L14.3981317,0.816511755 C14.8953965,1.3241047 19.3424933,6.18188218 14.7379772,13.2278021 C14.3677957,13.7942182 16.9221707,12.5717879 17.1558401,11.6765856 C17.3886895,10.7829415 29.2500739,17.9815678 18.8509677,22.8744054 L18.8021841,22.8424617 C18.8591667,22.5495148 20.1513172,19.489933 14.7379772,18.7883406 C12.5468145,18.5039639 12.0921841,14.7844724 12.1143212,13.561263 C12.1360484,12.3427283 5.64741935,16.7532941 7.9078629,23.6040459 L7.86358871,23.6410539" id="Fill-30" fill="#D0442B"></path>
                        </g>
                        <g id="Police">
                            <polygon id="Fill-32" fill="#0A0A08" points="0.0245967742 24.0952775 25.0563239 24.0952775 25.0563239 0.285155823 0.0245967742 0.285155823"></polygon>
                            <path d="M12.9887366,2.09231137 L12.6054368,1.82936031 L12.2217272,2.09231137 C10.2507056,3.97036632 2.90487903,2.80403226 2.90487903,2.80403226 L2.90487903,14.5250273 C2.90487903,16.4833311 5.29650538,21.0617961 12.3053562,22.6235306 C12.3053562,22.6235306 22.3055847,21.0617961 22.3055847,14.5250273 L22.3055847,2.80403226 C22.3055847,2.80403226 15.7124194,3.97036632 12.9887366,2.09231137" id="Fill-34" fill="#F2AE30"></path>
                            <polyline id="Fill-35" fill="#0A0A08" points="12.3074059 19.5273305 9.92479839 16.4073674 5.87288978 16.5822786 6.95432796 12.8674617 4.28393817 9.96604019 8.01444892 8.45338983 8.73636425 4.66066156 12.3074059 6.4888532 15.8784476 4.66066156 16.6003629 8.45338983 20.3308737 9.96604019 17.6600739 12.8674617 18.7415121 16.5822786 14.6896035 16.4073674 12.3074059 19.5273305"></polyline>
                        </g>
                    </g>
                    <path d="M192.861865,37.6779661 L192.861865,13.5395756 L199.724862,13.5395756 L199.724862,32.411108 L209.506803,32.411108 L209.506803,37.6779661 L192.861865,37.6779661 Z M230.447257,28.2834762 C230.447257,31.3434425 229.581428,33.7291898 227.849744,35.4407897 C226.118059,37.1523895 223.694316,38.0081766 220.578442,38.0081766 C217.589983,38.0081766 215.212573,37.1331275 213.446139,35.3830028 C211.679704,33.6328782 210.796501,31.266393 210.796501,28.2834762 C210.796501,25.234517 211.66233,22.8652801 213.394014,21.1756944 C215.125699,19.4861086 217.555233,18.6413285 220.68269,18.6413285 C222.617081,18.6413285 224.325573,19.0320737 225.808219,19.8135759 C227.290866,20.5950781 228.434687,21.7150309 229.239718,23.1734681 C230.044748,24.6319053 230.447257,26.3352243 230.447257,28.2834762 Z M217.694246,28.2834762 C217.694246,29.8905089 217.920115,31.1150274 218.371859,31.9570685 C218.823603,32.7991096 219.582289,33.2201238 220.647941,33.2201238 C221.70201,33.2201238 222.446218,32.7991096 222.880587,31.9570685 C223.314956,31.1150274 223.532137,29.8905089 223.532137,28.2834762 C223.532137,26.6874506 223.31206,25.4821942 222.871899,24.6676708 C222.431739,23.8531474 221.678844,23.4458918 220.613192,23.4458918 C219.570706,23.4458918 218.823603,23.8503957 218.371859,24.6594156 C217.920115,25.4684354 217.694246,26.6764436 217.694246,28.2834762 Z M241.762142,38.0081766 C238.542019,38.0081766 236.100902,37.1826585 234.438717,35.5315976 C232.776531,33.8805366 231.945451,31.508548 231.945451,28.4155604 C231.945451,25.3115658 232.843133,22.9065565 234.638525,21.2004601 C236.433917,19.4943638 238.987969,18.6413285 242.300757,18.6413285 C244.582642,18.6413285 246.731289,19.1146255 248.746761,20.0612338 L246.748674,24.8327761 C245.926268,24.4915568 245.167582,24.2191358 244.472591,24.015505 C243.777601,23.8118741 243.053663,23.7100602 242.300757,23.7100602 C241.200355,23.7100602 240.349005,24.1173158 239.74668,24.9318392 C239.144355,25.7463627 238.843197,26.8965845 238.843197,28.3825394 C238.843197,31.3764633 240.007288,32.8734027 242.335506,32.8734027 C244.327812,32.8734027 246.239007,32.3230573 248.069149,31.22235 L248.069149,36.3571239 C246.320089,37.4578312 244.217775,38.0081766 241.762142,38.0081766 Z M263.293335,37.6779661 L261.990234,35.201387 L261.851237,35.201387 C260.936166,36.2800802 260.003735,37.017543 259.053914,37.4137977 C258.104094,37.8100523 256.876296,38.0081766 255.370483,38.0081766 C253.517176,38.0081766 252.057717,37.4798451 250.992065,36.423166 C249.926413,35.366487 249.393595,33.8805545 249.393595,31.9653238 C249.393595,29.9730435 250.123324,28.4898627 251.582804,27.5157367 C253.042284,26.5416108 255.156182,25.9940171 257.924561,25.8729393 L261.208374,25.7738761 L261.208374,25.5097077 C261.208374,23.9687175 260.409147,23.1982339 258.810669,23.1982339 C257.374355,23.1982339 255.550033,23.660524 253.337646,24.5851182 L251.374308,20.3254022 C253.667777,19.2026808 256.563527,18.6413285 260.061646,18.6413285 C262.586777,18.6413285 264.541409,19.2357015 265.925598,20.4244654 C267.309787,21.6132293 268.001872,23.2752724 268.001872,25.4106445 L268.001872,37.6779661 L263.293335,37.6779661 Z M258.254679,33.4512712 C259.077085,33.4512712 259.780752,33.2036158 260.365702,32.7082975 C260.950653,32.2129792 261.243123,31.5690751 261.243123,30.7765658 L261.243123,29.3236394 L259.679403,29.3896815 C257.44385,29.4667311 256.32609,30.2482215 256.32609,31.7341764 C256.32609,32.878912 256.968947,33.4512712 258.254679,33.4512712 Z M277.892033,37.6779661 L271.098535,37.6779661 L271.098535,11.9875861 L277.892033,11.9875861 L277.892033,37.6779661 Z M300.504427,18.5422653 C298.8712,18.5422653 297.597069,19.1779142 296.681999,20.4492312 C295.766928,21.7205481 295.309399,23.4733982 295.309399,25.707834 C295.309399,30.3528188 297.168471,32.6752764 300.88667,32.6752764 C302.010238,32.6752764 303.09904,32.5266832 304.153109,32.2294922 C305.207178,31.9323012 306.267022,31.5745767 307.332674,31.1563079 L307.332674,36.670824 C305.212953,37.5623969 302.815272,38.0081766 300.139559,38.0081766 C296.305528,38.0081766 293.366342,36.9515135 291.321912,34.8381555 C289.277481,32.7247974 288.255282,29.6703805 288.255282,25.674813 C288.255282,23.1762074 288.750455,20.9803292 289.740816,19.0871127 C290.731178,17.1938961 292.155887,15.7382325 294.014986,14.7200783 C295.874086,13.701924 298.060377,13.1928545 300.573926,13.1928545 C303.319138,13.1928545 305.942688,13.7597103 308.444653,14.8934388 L306.342318,20.0282127 C305.404081,19.6099439 304.465858,19.2577229 303.52762,18.971539 C302.589383,18.6853551 301.581662,18.5422653 300.504427,18.5422653 Z M329.159237,28.2834762 C329.159237,31.3434425 328.293407,33.7291898 326.561723,35.4407897 C324.830038,37.1523895 322.406295,38.0081766 319.290422,38.0081766 C316.301963,38.0081766 313.924552,37.1331275 312.158118,35.3830028 C310.391684,33.6328782 309.50848,31.266393 309.50848,28.2834762 C309.50848,25.234517 310.374309,22.8652801 312.105994,21.1756944 C313.837678,19.4861086 316.267213,18.6413285 319.39467,18.6413285 C321.32906,18.6413285 323.037552,19.0320737 324.520199,19.8135759 C326.002845,20.5950781 327.146666,21.7150309 327.951697,23.1734681 C328.756727,24.6319053 329.159237,26.3352243 329.159237,28.2834762 Z M316.406226,28.2834762 C316.406226,29.8905089 316.632094,31.1150274 317.083838,31.9570685 C317.535582,32.7991096 318.294268,33.2201238 319.35992,33.2201238 C320.413989,33.2201238 321.158197,32.7991096 321.592566,31.9570685 C322.026935,31.1150274 322.244116,29.8905089 322.244116,28.2834762 C322.244116,26.6874506 322.024039,25.4821942 321.583879,24.6676708 C321.143718,23.8531474 320.390823,23.4458918 319.325171,23.4458918 C318.282685,23.4458918 317.535582,23.8503957 317.083838,24.6594156 C316.632094,25.4684354 316.406226,26.6764436 316.406226,28.2834762 Z M343.931681,37.6779661 L343.931681,27.4744604 C343.931681,26.2306612 343.743458,25.2923223 343.367004,24.6594156 C342.990551,24.0265089 342.385339,23.7100602 341.551351,23.7100602 C340.404617,23.7100602 339.576432,24.1448331 339.066772,25.0143919 C338.557113,25.8839507 338.302287,27.3753867 338.302287,29.4887447 L338.302287,37.6779661 L331.508789,37.6779661 L331.508789,18.971539 L336.634318,18.971539 L337.485677,21.2830128 L337.885295,21.2830128 C338.464453,20.4024469 339.266576,19.7420325 340.291687,19.3017495 C341.316798,18.8614666 342.495368,18.6413285 343.827433,18.6413285 C346.00507,18.6413285 347.699084,19.2412049 348.909526,20.4409759 C350.119967,21.6407469 350.725179,23.3303072 350.725179,25.5097077 L350.725179,37.6779661 L343.931681,37.6779661 Z M363.464787,32.9064238 C364.379858,32.9064238 365.474451,32.6917891 366.7486,32.2625132 L366.7486,36.9680134 C365.833529,37.3422539 364.961909,37.6091714 364.133712,37.768774 C363.305515,37.9283766 362.335439,38.0081766 361.223454,38.0081766 C358.941568,38.0081766 357.296782,37.4770933 356.289046,36.4149108 C355.28131,35.3527282 354.77745,33.7209541 354.77745,31.5195395 L354.77745,23.8091234 L352.397119,23.8091234 L352.397119,21.1839496 L355.420312,19.1531548 L357.175155,15.2236494 L361.623071,15.2236494 L361.623071,18.971539 L366.453231,18.971539 L366.453231,23.8091234 L361.623071,23.8091234 L361.623071,31.0902658 C361.623071,32.3010439 362.23697,32.9064238 363.464787,32.9064238 Z M380.548063,18.6413285 C381.138805,18.6413285 381.700581,18.6853561 382.233407,18.7734127 L382.615649,18.8394548 L382.007536,24.9318392 C381.451543,24.7997544 380.681274,24.7337129 379.696704,24.7337129 C378.214058,24.7337129 377.136839,25.055665 376.465015,25.6995788 C375.793191,26.3434925 375.457284,27.2708245 375.457284,28.4816026 L375.457284,37.6779661 L368.663786,37.6779661 L368.663786,18.971539 L373.719816,18.971539 L374.779671,21.9599444 L375.10979,21.9599444 C375.677366,20.9693078 376.467905,20.1685553 377.481433,19.5576627 C378.494961,18.9467702 379.517161,18.6413285 380.548063,18.6413285 Z M401.922884,28.2834762 C401.922884,31.3434425 401.057055,33.7291898 399.32537,35.4407897 C397.593686,37.1523895 395.169943,38.0081766 392.054069,38.0081766 C389.06561,38.0081766 386.688199,37.1331275 384.921765,35.3830028 C383.155331,33.6328782 382.272127,31.266393 382.272127,28.2834762 C382.272127,25.234517 383.137957,22.8652801 384.869641,21.1756944 C386.601326,19.4861086 389.03086,18.6413285 392.158317,18.6413285 C394.092707,18.6413285 395.8012,19.0320737 397.283846,19.8135759 C398.766492,20.5950781 399.910314,21.7150309 400.715344,23.1734681 C401.520375,24.6319053 401.922884,26.3352243 401.922884,28.2834762 Z M389.169873,28.2834762 C389.169873,29.8905089 389.395742,31.1150274 389.847485,31.9570685 C390.299229,32.7991096 391.057916,33.2201238 392.123568,33.2201238 C393.177637,33.2201238 393.921844,32.7991096 394.356213,31.9570685 C394.790582,31.1150274 395.007764,29.8905089 395.007764,28.2834762 C395.007764,26.6874506 394.787687,25.4821942 394.347526,24.6676708 C393.907365,23.8531474 393.15447,23.4458918 392.088818,23.4458918 C391.046333,23.4458918 390.299229,23.8503957 389.847485,24.6594156 C389.395742,25.4684354 389.169873,26.6764436 389.169873,28.2834762 Z M411.065934,37.6779661 L404.272437,37.6779661 L404.272437,11.9875861 L411.065934,11.9875861 L411.065934,37.6779661 Z" id="Local-Control" fill="#EB9F02"></path>
                </g>
            </g>
        </g>
    </g>
</svg>