<?xml version="1.0" encoding="UTF-8" standalone="no"?>
<svg width="38px" height="48px" viewBox="0 0 38 48" version="1.1" xmlns="http://www.w3.org/2000/svg" xmlns:xlink="http://www.w3.org/1999/xlink">
    <!-- Generator: Sketch 44.1 (41455) - http://www.bohemiancoding.com/sketch -->
    <title>Group 5</title>
    <desc>Created with Sketch.</desc>
    <defs></defs>
    <g id="tablet" stroke="none" stroke-width="1" fill="none" fill-rule="evenodd">
        <g id="Administration-Dashboard---Tablet" transform="translate(-680.000000, -375.000000)" fill="#1071BC">
            <g id="manage-billing" transform="translate(398.000000, 233.000000)">
                <g id="Group-5" transform="translate(282.000000, 142.000000)">
                    <g id="file-outline-copy-2" fill-rule="nonzero">
                        <path d="M21,17 L34,17 L21,4 L21,17 L21,17 Z M4.75,0 L23.75,0 L38,14.4 L38,43.2 C38,45.8509668 35.8733526,48 33.25,48 L4.75,48 C2.11375,48 0,45.84 0,43.2 L0,4.8 C0,2.136 2.11375,0 4.75,0 L4.75,0 Z M16.6666667,5 L5,5 L5,43 L16.6666667,43 L33,43 L33,21.625 L16.6666667,21.625 L16.6666667,5 Z" id="Shape"></path>
                    </g>
                    <path d="M23,35.2416295 C23,32.9553571 20.9917812,32.186942 19.21528,31.5133929 C17.8442844,30.9916295 16.6663869,30.5457589 16.6663869,29.5401786 C16.6663869,28.6768973 17.5160179,28.0792411 18.74219,28.0792411 C20.1904247,28.0792411 21.3586673,29.094308 21.3683222,29.1037946 C21.4455614,29.1607143 21.5324555,29.1891741 21.6290045,29.1702009 C21.7255535,29.1607143 21.8027926,29.1037946 21.8510671,29.0184152 L22.6331139,27.6333705 C22.7006982,27.5195312 22.6813884,27.3772321 22.5848394,27.2728795 C22.5462198,27.234933 21.5034908,26.1914062 19.5435465,25.9732143 L19.5435465,24.3035714 C19.5435465,24.1328125 19.4083779,24 19.2345898,24 L17.9311785,24 C17.7670453,24 17.6222218,24.1328125 17.6222218,24.3035714 L17.6222218,26.0111607 C15.6043481,26.390625 14.2140428,27.8325893 14.2140428,29.578125 C14.2140428,31.9592634 16.3767399,32.813058 18.1146216,33.4866071 C19.4180328,33.9988839 20.5573108,34.4447545 20.5573108,35.3554688 C20.5573108,36.4274554 19.5338916,36.9207589 18.5877116,36.9207589 C16.8787946,36.9207589 15.5271089,35.6495536 15.5077991,35.640067 C15.4498697,35.5736607 15.3629756,35.5452009 15.2760816,35.5546875 C15.1891875,35.5641741 15.1022934,35.6021205 15.0540189,35.6685268 L14.0595644,36.9492188 C13.9726703,37.063058 13.9823252,37.2243304 14.0788742,37.3381696 C14.1271487,37.3950893 15.3629756,38.7232143 17.6222218,39.0362723 L17.6222218,40.6964286 C17.6222218,40.8671875 17.7670453,41 17.9311785,41 L19.2345898,41 C19.4083779,41 19.5435465,40.8671875 19.5435465,40.6964286 L19.5435465,39.0362723 C21.5903849,38.7042411 23,37.1768973 23,35.2416295 Z" id=""></path>
                </g>
            </g>
        </g>
    </g>
</svg>