<?xml version="1.0" encoding="UTF-8" standalone="no"?>
<svg width="34px" height="41px" viewBox="0 0 34 41" version="1.1" xmlns="http://www.w3.org/2000/svg" xmlns:xlink="http://www.w3.org/1999/xlink">
    <!-- Generator: Sketch 44.1 (41455) - http://www.bohemiancoding.com/sketch -->
    <title>Phonelink Setup - MaterialIcons-Regular Copy 3</title>
    <desc>Created with Sketch.</desc>
    <defs></defs>
    <g id="tablet" stroke="none" stroke-width="1" fill="none" fill-rule="evenodd">
        <g id="Administration-Dashboard---Tablet" transform="translate(-684.000000, -612.000000)" fill="#1071BC">
            <g id="manage-apps" transform="translate(398.000000, 463.000000)">
                <path d="M316.199307,149 C317.201045,149 318.084918,149.37801 318.850953,150.134043 C319.616988,150.890075 320,151.762406 320,152.751064 L320,186.248936 C320,187.237594 319.616988,188.109925 318.850953,188.865957 C318.084918,189.62199 317.201045,190 316.199307,190 L297.372617,190 C296.370879,190 295.487006,189.62199 294.720971,188.865957 C293.954936,188.109925 293.571924,187.237594 293.571924,186.248936 L293.571924,180.665957 L297.372617,180.665957 L297.372617,184.417021 L316.199307,184.417021 L316.199307,154.582979 L297.372617,154.582979 L297.372617,158.334043 L293.571924,158.334043 L293.571924,152.751064 C293.571924,151.762406 293.954936,150.890075 294.720971,150.134043 C295.487006,149.37801 296.370879,149 297.372617,149 L316.199307,149 Z M295.516465,173.251064 C296.518203,173.251064 297.387345,172.873053 298.123917,172.117021 C298.860489,171.360989 299.22877,170.488657 299.22877,169.5 C299.22877,168.511343 298.860489,167.639011 298.123917,166.882979 C297.387345,166.126947 296.518203,165.748936 295.516465,165.748936 C294.514727,165.748936 293.630853,166.126947 292.864818,166.882979 C292.098783,167.639011 291.715772,168.511343 291.715772,169.5 C291.715772,170.488657 292.098783,171.360989 292.864818,172.117021 C293.630853,172.873053 294.514727,173.251064 295.516465,173.251064 Z M302.67591,170.293617 L304.708839,171.951064 C304.944542,172.183689 305.003467,172.358155 304.885615,172.474468 L303.029463,175.702128 C302.911611,175.81844 302.734837,175.876596 302.499134,175.876596 L300.024264,174.917021 C299.199303,175.440428 298.639517,175.760283 298.344888,175.876596 L297.902947,178.231915 C297.608318,178.522696 297.431543,178.668085 297.372617,178.668085 L293.571924,178.668085 C293.454073,178.668085 293.350954,178.60993 293.262565,178.493617 C293.174177,178.377304 293.159446,178.290071 293.218371,178.231915 L292.864818,175.876596 C292.57019,175.760283 292.010403,175.440428 291.185442,174.917021 L288.533796,175.702128 C288.415944,175.81844 288.209707,175.731207 287.915078,175.440426 L286.058926,172.3 C286.058926,172.067375 286.117851,171.834753 286.235702,171.602128 L288.35702,170.119149 L288.35702,168.2 L286.235702,166.717021 C285.999999,166.484396 285.941074,166.30993 286.058926,166.193617 L287.915078,162.965957 C288.03293,162.849645 288.239167,162.791489 288.533796,162.791489 L290.920278,163.751064 C291.686313,163.227657 292.275562,162.907802 292.688042,162.791489 L293.041595,160.43617 C293.336224,160.145389 293.512998,160 293.571924,160 L297.372617,160 C297.726172,160 297.902947,160.145389 297.902947,160.43617 L298.344888,162.791489 C298.639517,162.907802 299.199303,163.227657 300.024264,163.751064 L302.499134,162.965957 C302.616985,162.907801 302.79376,162.995034 303.029463,163.22766 L304.885615,166.368085 C304.885615,166.60071 304.826691,166.775177 304.708839,166.891489 L302.67591,168.374468 L302.67591,170.293617 Z" id="Phonelink-Setup---MaterialIcons-Regular-Copy-3"></path>
            </g>
        </g>
    </g>
</svg>