<?xml version="1.0" encoding="UTF-8" standalone="no"?>
<svg width="42px" height="42px" viewBox="0 0 42 42" version="1.1" xmlns="http://www.w3.org/2000/svg" xmlns:xlink="http://www.w3.org/1999/xlink">
    <!-- Generator: Sketch 44.1 (41455) - http://www.bohemiancoding.com/sketch -->
    <title>Shape</title>
    <desc>Created with Sketch.</desc>
    <defs></defs>
    <g id="tablet" stroke="none" stroke-width="1" fill="none" fill-rule="evenodd">
        <g id="Administration-Dashboard---Tablet" transform="translate(-308.000000, -381.000000)" fill-rule="nonzero" fill="#1071BC">
            <g id="manage-users" transform="translate(30.000000, 233.000000)">
                <path d="M299,171.625 C291.99125,171.625 278,175.11625 278,182.125 L278,190 L320,190 L320,182.125 C320,175.11625 306.00875,171.625 299,171.625 L299,171.625 Z M299,148 C293.20101,148 288.5,152.70101 288.5,158.5 C288.5,164.29899 293.20101,169 299,169 C304.79899,169 309.5,164.29899 309.5,158.5 C309.5,152.70101 304.79899,148 299,148 L299,148 Z M299,176.6125 C306.79625,176.6125 315.0125,180.445 315.0125,182.125 L315.0125,185.0125 L282.9875,185.0125 L282.9875,182.125 C282.9875,180.445 291.125,176.6125 299,176.6125 L299,176.6125 Z M299,152.9875 C302.04447,152.9875 304.5125,155.45553 304.5125,158.5 C304.5125,161.54447 302.04447,164.0125 299,164.0125 C295.95553,164.0125 293.4875,161.54447 293.4875,158.5 C293.4875,155.45553 295.95553,152.9875 299,152.9875 L299,152.9875 Z" id="Shape"></path>
            </g>
        </g>
    </g>
</svg>