<?xml version="1.0" encoding="UTF-8" standalone="no"?>
<svg width="34px" height="43px" viewBox="0 0 34 43" version="1.1" xmlns="http://www.w3.org/2000/svg" xmlns:xlink="http://www.w3.org/1999/xlink">
    <!-- Generator: Sketch 44.1 (41455) - http://www.bohemiancoding.com/sketch -->
    <title>manage services icon</title>
    <desc>Created with Sketch.</desc>
    <defs></defs>
    <g id="tablet" stroke="none" stroke-width="1" fill="none" fill-rule="evenodd">
        <g id="Administration-Dashboard---Tablet" transform="translate(-316.000000, -610.000000)" fill="#1071BC">
            <g id="manage-services" transform="translate(30.000000, 463.000000)">
                <g id="manage-services-icon" transform="translate(286.000000, 147.000000)">
                    <path d="M17.0001351,31.3548014 C17.6317314,31.3548014 18.1797259,31.1164657 18.6441349,30.6397871 C19.108544,30.1631085 19.340745,29.613103 19.340745,28.9897541 C19.340745,28.3664051 19.108544,27.8163996 18.6441349,27.339721 C18.1797259,26.8630424 17.6317314,26.6247067 17.0001351,26.6247067 C16.3685388,26.6247067 15.8112564,26.8630424 15.328271,27.339721 C14.8452856,27.8163996 14.6037965,28.3664051 14.6037965,28.9897541 C14.6037965,29.613103 14.8452856,30.1631085 15.328271,30.6397871 C15.8112564,31.1164657 16.3685388,31.3548014 17.0001351,31.3548014 Z M21.5141685,29.4901299 L22.795931,30.5351508 C22.9445419,30.6818212 22.9816941,30.7918223 22.9073886,30.8651574 L21.7370837,32.9001982 C21.6627782,32.9735334 21.5513217,33.0102004 21.4027108,33.0102004 L19.8423043,32.4051883 C19.3221661,32.7351965 18.9692206,32.9368652 18.7834569,33.0102004 L18.5048129,34.4952301 C18.3190493,34.678568 18.2075928,34.7702356 18.1704401,34.7702356 L15.7741014,34.7702356 C15.699796,34.7702356 15.6347797,34.7335686 15.5790506,34.6602334 C15.5233215,34.5868982 15.5140335,34.5318977 15.5511862,34.4952301 L15.328271,33.0102004 C15.1425073,32.9368652 14.7895618,32.7351965 14.2694236,32.4051883 L12.5975594,32.9001982 C12.523254,32.9735334 12.3932214,32.9185328 12.2074578,32.7351949 L11.0371529,30.7551552 C11.0371529,30.6084849 11.074305,30.4618168 11.1486105,30.3151464 L12.4861018,29.3801277 L12.4861018,28.1701035 L11.1486105,27.2350848 C10.9999996,27.0884144 10.9628474,26.9784133 11.0371529,26.9050782 L12.2074578,24.8700374 C12.2817632,24.7967023 12.4117958,24.7600352 12.5975594,24.7600352 L14.1022372,25.3650473 C14.5852226,25.0350391 14.9567443,24.8333704 15.2168133,24.7600352 L15.4397286,23.2750055 C15.6254922,23.0916676 15.7369487,23 15.7741014,23 L18.1704401,23 C18.3933564,23 18.5048129,23.0916676 18.5048129,23.2750055 L18.7834569,24.7600352 C18.9692206,24.8333704 19.3221661,25.0350391 19.8423043,25.3650473 L21.4027108,24.8700374 C21.4770163,24.8333699 21.5884728,24.8883704 21.7370837,25.0350407 L22.9073886,27.0150804 C22.9073886,27.1617507 22.8702364,27.2717518 22.795931,27.345087 L21.5141685,28.2801057 L21.5141685,29.4901299 Z" id="Phonelink-Setup---MaterialIcons-Regular-Copy-3"></path>
                    <path d="M19.125,15.05 L30.8125,15.05 L19.125,3.225 L19.125,15.05 L19.125,15.05 Z M4.25,0 L21.25,0 L34,12.9 L34,38.7 C34,41.0748244 32.0972102,43 29.75,43 L4.25,43 C1.89125,43 0,41.065 0,38.7 L0,4.3 C0,1.9135 1.89125,0 4.25,0 L4.25,0 Z M14.875,4.3 L4.25,4.3 L4.25,38.7 L14.875,38.7 L29.75,38.7 L29.75,19.35 L14.875,19.35 L14.875,4.3 Z" id="Shape-Copy" fill-rule="nonzero"></path>
                </g>
            </g>
        </g>
    </g>
</svg>