<?xml version="1.0" encoding="UTF-8" standalone="no"?>
<svg width="38px" height="38px" viewBox="0 0 38 38" version="1.1" xmlns="http://www.w3.org/2000/svg" xmlns:xlink="http://www.w3.org/1999/xlink">
    <!-- Generator: Sketch 47.1 (45422) - http://www.bohemiancoding.com/sketch -->
    <title>ic_device_hub</title>
    <desc>Created with Sketch.</desc>
    <defs></defs>
    <g id="IOC2-admin-dash-AG" stroke="none" stroke-width="1" fill="none" fill-rule="evenodd">
        <g id="PSE-Admin-w/Premier-new" transform="translate(-449.000000, -885.000000)">
            <g id="view-wireless-reports-copy" transform="translate(130.000000, 723.000000)">
                <g id="ic_device_hub" transform="translate(313.000000, 156.000000)">
                    <polygon id="Bounds" points="0 0 50 0 50 50 0 50"></polygon>
                    <path d="M35.4166667,33.3333333 L27.0833333,25 L27.0833333,18.375 C29.5,17.5 31.25,15.2083333 31.25,12.5 C31.25,9.04166667 28.4583333,6.25 25,6.25 C21.5416667,6.25 18.75,9.04166667 18.75,12.5 C18.75,15.2083333 20.5,17.5 22.9166667,18.375 L22.9166667,25 L14.5833333,33.3333333 L6.25,33.3333333 L6.25,43.75 L16.6666667,43.75 L16.6666667,37.3958333 L25,28.6458333 L33.3333333,37.3958333 L33.3333333,43.75 L43.75,43.75 L43.75,33.3333333 L35.4166667,33.3333333 L35.4166667,33.3333333 Z" id="Icon" fill="#1071BC"></path>
                </g>
            </g>
        </g>
    </g>
</svg>