<?xml version="1.0" encoding="UTF-8" standalone="no"?>
<svg width="41px" height="52px" viewBox="0 0 41 52" version="1.1" xmlns="http://www.w3.org/2000/svg" xmlns:xlink="http://www.w3.org/1999/xlink">
    <!-- Generator: Sketch 44.1 (41455) - http://www.bohemiancoding.com/sketch -->
    <title>Shape Copy 3</title>
    <desc>Created with Sketch.</desc>
    <defs></defs>
    <g id="tablet" stroke="none" stroke-width="1" fill="none" fill-rule="evenodd">
        <g id="Administration-Dashboard---Tablet" transform="translate(-309.000000, -831.000000)" fill="#1071BC">
            <g id="manage-PTT" transform="translate(30.000000, 693.000000)">
                <path d="M286.62288,142.340516 L285.48408,141.219903 C289.83291,136.92769 296.911245,136.926204 301.260075,141.218417 L300.121275,142.343488 C296.399086,138.67103 290.343562,138.67103 286.62288,142.340516 Z M299.291276,143.162398 C296.025511,139.943237 290.715631,139.943237 287.452878,143.163884 L288.593185,144.285983 C291.226283,141.685091 295.517872,141.685091 298.153983,144.284496 L299.291276,143.162398 Z M290.628262,146.292384 C292.140637,144.797243 294.606531,144.797243 296.120411,146.292384 L297.259211,145.167313 C295.117183,143.052417 291.631491,143.052417 289.48645,145.168799 L290.628262,146.292384 Z M304.244152,161.060988 L303.882629,161.417681 C303.076732,162.212811 303.076732,163.501367 303.885641,164.296496 L304.043808,164.45255 C304.849705,165.249166 306.151191,165.249166 306.9601,164.454036 L309.686592,161.766944 L310.043597,161.411736 C310.849494,160.616607 310.849494,159.326565 310.043597,158.531435 L309.882417,158.373896 C309.08104,157.578766 307.775035,157.578766 306.964619,158.373896 L304.244152,161.060988 Z M310.245448,162.322791 L307.520462,165.01137 C306.719084,165.803527 306.719084,167.093569 307.520462,167.888699 L307.677122,168.046238 C308.483019,168.839882 309.787517,168.839882 310.594921,168.046238 L310.956444,167.688058 L313.316894,165.362119 L313.673898,165.005425 C314.482808,164.210295 314.479795,162.924712 313.676911,162.125124 L313.518744,161.96907 C312.714354,161.175427 311.411362,161.170968 310.600946,161.967584 L310.245448,162.322791 Z M319.239858,175.389669 L307.068557,187.399841 C306.053278,188.401556 304.391775,188.401556 303.379508,187.401327 L301.284176,185.332504 L299.06683,187.517253 C299.06683,187.517253 295.766419,190.751275 291.294069,189.837248 C290.995812,189.776313 290.796973,189.719836 290.599642,189.661873 C290.438462,189.614314 290.269751,189.557838 290.105559,189.498389 C289.94438,189.43894 289.781694,189.385436 289.617502,189.312611 C289.287612,189.17142 288.957721,189.010908 288.621805,188.817699 C288.523893,188.759736 288.419955,188.688397 288.319029,188.625976 C288.037342,188.45506 287.754148,188.260365 287.469448,188.046348 C287.359485,187.96312 287.248015,187.879891 287.133532,187.789232 C286.753932,187.487528 286.372826,187.162045 285.988707,186.781572 C281.679042,182.529487 281.867336,178.741103 282.673232,176.828333 C282.676245,176.822388 283.333013,174.435513 284.129872,171.590881 C284.354318,170.782376 284.593828,169.941173 284.827312,169.098485 L279.76146,164.098829 C278.74618,163.0986 278.74618,161.460782 279.76146,160.457581 L291.932761,148.450381 C292.94804,147.448666 294.609543,147.448666 295.62181,148.450381 L302.683575,155.414824 L303.32528,154.780207 C304.131176,153.985077 305.437181,153.98805 306.244584,154.780207 L306.402751,154.939233 C307.208648,155.732876 307.208648,157.019946 306.402751,157.816562 L306.042733,158.174742 L303.685297,160.502168 L303.32076,160.858861 C302.519383,161.651018 301.217897,161.655477 300.405975,160.858861 L300.249315,160.704294 C299.444924,159.907678 299.444924,158.619122 300.249315,157.823993 L300.607826,157.467299 L301.403178,156.681087 L295.422972,150.782266 L282.124921,163.898188 L285.390686,167.117349 C285.946529,165.155534 286.443624,163.44489 286.705729,162.63044 C287.532715,160.045897 289.620515,160.141015 290.613199,161.71344 C291.385956,162.924712 290.786429,165.684629 290.38574,168.808671 C290.305904,169.425454 290.096521,170.439058 289.852493,171.515084 L303.097821,184.581961 L316.388339,171.466039 L315.401681,170.492562 L314.241792,171.636954 C313.437401,172.432084 312.132903,172.429112 311.3255,171.636954 L311.164321,171.477928 C310.35993,170.685771 310.35993,169.400188 311.164321,168.6006 L311.525844,168.243906 L313.886294,165.91648 L314.243298,165.559786 C315.049195,164.766143 316.352187,164.764657 317.162603,165.5583 L317.319263,165.714354 C318.128173,166.509483 318.12516,167.796553 317.319263,168.594655 L316.962259,168.948376 L316.682078,169.227786 L319.238352,171.749907 C320.253631,172.750136 320.253631,174.386468 319.239858,175.389669 Z M285.231013,158.128669 C285.351521,158.250539 285.554878,158.247567 285.675386,158.127182 L289.570805,154.283808 C289.694326,154.163424 289.694326,153.965756 289.570805,153.845372 C289.447285,153.723502 289.24694,153.723502 289.126432,153.843886 L285.231013,157.68726 C285.107493,157.809131 285.107493,158.005312 285.231013,158.128669 Z M312.230816,178.665306 C311.72167,178.161476 310.894684,178.161476 310.385538,178.665306 C309.876392,179.169135 309.879405,179.983586 310.385538,180.485929 C310.897697,180.989759 311.72167,180.989759 312.230816,180.487416 C312.738455,179.983586 312.738455,179.170622 312.230816,178.665306 Z" id="Shape-Copy-3"></path>
            </g>
        </g>
    </g>
</svg>