<?xml version="1.0" encoding="UTF-8" standalone="no"?>
<svg width="41px" height="42px" viewBox="0 0 41 42" version="1.1" xmlns="http://www.w3.org/2000/svg" xmlns:xlink="http://www.w3.org/1999/xlink">
    <!-- Generator: Sketch 44.1 (41455) - http://www.bohemiancoding.com/sketch -->
    <title>add-shopping-cart - MaterialIcons-Regular Copy</title>
    <desc>Created with Sketch.</desc>
    <defs></defs>
    <g id="tablet" stroke="none" stroke-width="1" fill="none" fill-rule="evenodd" opacity="0.75">
        <g id="Administration-Dashboard---Tablet" transform="translate(-309.000000, -1379.000000)" fill="#EB9F02">
            <g id="shop-solutions" transform="translate(30.000000, 1231.000000)">
                <path d="M291.586047,175.5625 C291.586047,175.875002 291.74496,176.03125 292.062791,176.03125 L315.613953,176.03125 L315.613953,180.0625 L291.204651,180.0625 C290.124026,180.0625 289.186438,179.656254 288.39186,178.84375 C287.597283,178.031246 287.2,177.093755 287.2,176.03125 C287.2,175.406247 287.358913,174.781253 287.676744,174.15625 L290.44186,169.1875 L283.1,154 L279,154 L279,150.0625 L285.674419,150.0625 C286.945743,152.687513 288.217048,155.343737 289.488372,158.03125 C289.806203,158.593753 290.537204,160.078113 291.681395,162.484375 C292.825587,164.890637 293.715501,166.749993 294.351163,168.0625 L308.653488,168.0625 C313.420954,159.562457 316.02713,154.875004 316.472093,154 L320,155.96875 L312.181395,169.9375 C311.418601,171.312507 310.242644,172 308.653488,172 L293.493023,172 L291.681395,175.28125 L291.586047,175.5625 Z M311.609302,182.03125 C312.689928,182.03125 313.627515,182.437496 314.422093,183.25 C315.216671,184.062504 315.613953,184.999995 315.613953,186.0625 C315.613953,187.125005 315.216671,188.046871 314.422093,188.828125 C313.627515,189.609379 312.689928,190 311.609302,190 C310.528677,190 309.575198,189.609379 308.748837,188.828125 C307.922476,188.046871 307.509302,187.125005 307.509302,186.0625 C307.509302,184.999995 307.922476,184.062504 308.748837,183.25 C309.575198,182.437496 310.528677,182.03125 311.609302,182.03125 Z M291.204651,182.03125 C292.285277,182.03125 293.238756,182.437496 294.065116,183.25 C294.891477,184.062504 295.304651,184.999995 295.304651,186.0625 C295.304651,187.125005 294.891477,188.046871 294.065116,188.828125 C293.238756,189.609379 292.285277,190 291.204651,190 C290.124026,190 289.186438,189.609379 288.39186,188.828125 C287.597283,188.046871 287.2,187.125005 287.2,186.0625 C287.2,184.999995 287.597283,184.062504 288.39186,183.25 C289.186438,182.437496 290.124026,182.03125 291.204651,182.03125 Z M299.404651,164.03125 L299.404651,158.03125 L293.302326,158.03125 L293.302326,154 L299.404651,154 L299.404651,148 L303.409302,148 L303.409302,154 L309.511628,154 L309.511628,158.03125 L303.409302,158.03125 L303.409302,164.03125 L299.404651,164.03125 Z" id="add-shopping-cart---MaterialIcons-Regular-Copy"></path>
            </g>
        </g>
    </g>
</svg>