<?xml version="1.0" encoding="UTF-8" standalone="no"?>
<svg width="53px" height="39px" viewBox="0 0 53 39" version="1.1" xmlns="http://www.w3.org/2000/svg" xmlns:xlink="http://www.w3.org/1999/xlink">
    <!-- Generator: Sketch 44.1 (41455) - http://www.bohemiancoding.com/sketch -->
    <title>devices-other - MaterialIcons-Regular Copy</title>
    <desc>Created with Sketch.</desc>
    <defs></defs>
    <g id="tablet" stroke="none" stroke-width="1" fill="none" fill-rule="evenodd" opacity="0.75">
        <g id="Administration-Dashboard---Tablet" transform="translate(-665.000000, -1152.000000)" fill="#EB9F02">
            <g id="shop-special-devices" transform="translate(398.000000, 1001.000000)">
                <path d="M314.952381,184.650794 L314.952381,165.301587 L305.698413,165.301587 L305.698413,184.650794 L314.952381,184.650794 Z M317.510628,161.095238 C318.114115,161.095238 318.679876,161.33732 319.207927,161.821491 C319.735978,162.305661 320,162.84569 320,163.441592 L320,187.240327 C320,187.83623 319.735978,188.39488 319.207927,188.916295 C318.679876,189.437709 318.114115,189.698413 317.510628,189.698413 L303.027012,189.698413 C302.423525,189.698413 301.876623,189.437709 301.38629,188.916295 C300.895957,188.39488 300.650794,187.83623 300.650794,187.240327 L300.650794,163.441592 C300.650794,162.84569 300.895957,162.305661 301.38629,161.821491 C301.876623,161.33732 302.423525,161.095238 303.027012,161.095238 L317.510628,161.095238 Z M290.97619,183.809524 C292.001493,183.809524 292.888761,183.4349 293.638021,182.68564 C294.387281,181.93638 294.761905,181.049112 294.761905,180.02381 C294.761905,178.998507 294.387281,178.111239 293.638021,177.361979 C292.888761,176.612719 292.001493,176.238095 290.97619,176.238095 C289.950888,176.238095 289.06362,176.612719 288.31436,177.361979 C287.5651,178.111239 287.190476,178.998507 287.190476,180.02381 C287.190476,181.049112 287.5651,181.93638 288.31436,182.68564 C289.06362,183.4349 289.950888,183.809524 290.97619,183.809524 Z M295.668899,170.349206 L295.668899,174.64903 C297.307631,176.157748 298.126984,177.930464 298.126984,179.967233 C298.126984,182.079438 297.307631,183.889871 295.668899,185.398589 L295.668899,189.698413 L286.171751,189.698413 L286.171751,185.398589 C284.607507,183.965307 283.825397,182.154873 283.825397,179.967233 C283.825397,177.855028 284.607507,176.082312 286.171751,174.64903 L286.171751,170.349206 L295.668899,170.349206 Z M271.828928,155.86559 L271.828928,184.832823 L281.374484,184.832823 L281.374484,189.698413 L271.828928,189.698413 C270.556181,189.698413 269.433186,189.208087 268.459909,188.22742 C267.486631,187.246754 267,186.115233 267,184.832823 L267,155.86559 C267,154.58318 267.486631,153.451659 268.459909,152.470992 C269.433186,151.490326 270.556181,151 271.828928,151 L314.952381,151 L314.952381,155.86559 L271.828928,155.86559 Z" id="devices-other---MaterialIcons-Regular-Copy"></path>
            </g>
        </g>
    </g>
</svg>