<?xml version="1.0" encoding="UTF-8"?>
<svg width="100px" height="47px" viewBox="0 0 100 47" version="1.1" xmlns="http://www.w3.org/2000/svg" xmlns:xlink="http://www.w3.org/1999/xlink">
    <!-- Generator: Sketch 47.1 (45422) - http://www.bohemiancoding.com/sketch -->
    <title></title>
    <desc>Created with Sketch.</desc>
    <defs></defs>
    <g id="IOC2---admin-dash" stroke="none" stroke-width="1" fill="none" fill-rule="evenodd">
        <g id="Artboard" fill="#1071BC">
            <path d="M77.1484375,38 C81.184916,37.869791 84.6028506,36.4375137 87.4023438,33.703125 C90.2018369,30.9687363 91.6015625,27.5508018 91.6015625,23.4492188 C91.6015625,19.3476357 90.2018369,15.8971494 87.4023438,13.0976562 C84.6028506,10.2981631 81.1523643,8.8984375 77.0507812,8.8984375 C72.9491982,8.8984375 69.5312637,10.2981631 66.796875,13.0976562 C64.0624863,15.8971494 62.6953125,19.3476357 62.6953125,23.4492188 C62.6953125,27.5508018 64.0624863,30.9687363 66.796875,33.703125 C69.5312637,36.4375137 72.98175,37.869791 77.1484375,38 Z M22.8515625,38 C27.01825,37.869791 30.4687363,36.4375137 33.203125,33.703125 C35.9375137,30.9687363 37.3046875,27.5508018 37.3046875,23.4492188 C37.3046875,19.3476357 35.9375137,15.8971494 33.203125,13.0976562 C30.4687363,10.2981631 27.0508018,8.8984375 22.9492188,8.8984375 C18.8476357,8.8984375 15.3971494,10.2981631 12.5976562,13.0976562 C9.79816309,15.8971494 8.3984375,19.3476357 8.3984375,23.4492188 C8.3984375,27.5508018 9.79816309,30.9687363 12.5976562,33.703125 C15.3971494,36.4375137 18.815084,37.869791 22.8515625,38 Z M77.1484375,0.5 C83.6588867,0.630208984 89.0624785,2.84372852 93.359375,7.140625 C97.6562715,11.4375215 99.869791,16.8411133 100,23.3515625 C99.869791,29.8620117 97.6562715,35.2656035 93.359375,39.5625 C89.0624785,43.8593965 83.6588867,46.1380195 77.1484375,46.3984375 L22.8515625,46.3984375 C16.3411133,46.1380195 10.9375215,43.8593965 6.640625,39.5625 C2.34372852,35.2656035 0.130208984,29.8620117 0,23.3515625 C0.130208984,16.8411133 2.34372852,11.4375215 6.640625,7.140625 C10.9375215,2.84372852 16.3411133,0.630208984 22.8515625,0.5 C29.3620117,0.630208984 34.7656035,2.84372852 39.0625,7.140625 C43.3593965,11.4375215 45.6380195,16.8411133 45.8984375,23.3515625 C45.7682285,29.0807578 44.0104336,33.9635215 40.625,38 L59.375,38 C55.9895664,33.9635215 54.2317715,29.0807578 54.1015625,23.3515625 C54.3619805,16.8411133 56.6406035,11.4375215 60.9375,7.140625 C65.2343965,2.84372852 70.6379883,0.630208984 77.1484375,0.5 Z" id=""></path>
        </g>
    </g>
</svg>