<?xml version="1.0" encoding="UTF-8" standalone="no"?>
<svg width="41px" height="46px" viewBox="0 0 41 46" version="1.1" xmlns="http://www.w3.org/2000/svg" xmlns:xlink="http://www.w3.org/1999/xlink">
    <!-- Generator: Sketch 44.1 (41455) - http://www.bohemiancoding.com/sketch -->
    <title>reports icon</title>
    <desc>Created with Sketch.</desc>
    <defs></defs>
    <g id="tablet" stroke="none" stroke-width="1" fill="none" fill-rule="evenodd">
        <g id="Administration-Dashboard---Tablet" transform="translate(-677.000000, -837.000000)" fill-rule="nonzero" fill="#1071BC">
            <g id="view-reports" transform="translate(398.000000, 693.000000)">
                <g id="reports-icon" transform="translate(279.000000, 144.000000)">
                    <path d="M9.35492958,15.4512821 L13.0507042,15.4512821 C14.0901408,15.4512821 14.8985915,14.625641 14.8985915,13.5641026 C14.8985915,12.5025641 14.0901408,11.6769231 13.0507042,11.6769231 L9.35492958,11.6769231 C8.31549296,11.6769231 7.50704225,12.5025641 7.50704225,13.5641026 C7.50704225,14.5666667 8.31549296,15.4512821 9.35492958,15.4512821 Z" id="Shape"></path>
                    <path d="M13.0507042,41.9307692 L3.81126761,41.9307692 L3.81126761,4.06923077 L14.8985915,4.06923077 L14.8985915,4.06923077 C16.9197183,4.06923077 18.5943662,5.77948718 18.5943662,7.84358974 L18.5943662,13.5641026 C18.5943662,14.625641 19.4028169,15.4512821 20.4422535,15.4512821 L29.6816901,15.4512821 L29.6816901,17.3384615 C29.6816901,18.4 30.4901408,19.225641 31.5295775,19.225641 C32.5690141,19.225641 33.3774648,18.4 33.3774648,17.3384615 L33.3774648,13.5641026 C33.3774648,13.0923077 33.2042254,12.6205128 32.8577465,12.2076923 L21.7704225,0.884615385 C21.4239437,0.530769231 20.9619718,0.353846154 20.4422535,0.353846154 L1.9056338,0.353846154 C0.866197183,0.353846154 0.0577464789,1.17948718 0.0577464789,2.24102564 L0.0577464789,43.8769231 C0.0577464789,44.9384615 0.866197183,45.7641026 1.9056338,45.7641026 L12.9929577,45.7641026 C14.0323944,45.7641026 14.8408451,44.9384615 14.8408451,43.8769231 C14.8985915,42.7564103 14.0901408,41.9307692 13.0507042,41.9307692 Z M22.2901408,6.78205128 L27.0830986,11.6769231 L22.2901408,11.6769231 L22.2901408,6.78205128 L22.2901408,6.78205128 Z" id="Shape"></path>
                    <path d="M22.2901408,21.1128205 C22.2901408,20.0512821 21.4816901,19.225641 20.4422535,19.225641 L9.35492958,19.225641 C8.31549296,19.225641 7.50704225,20.0512821 7.50704225,21.1128205 C7.50704225,22.174359 8.31549296,23 9.35492958,23 L20.4422535,23 C21.4816901,23 22.2901408,22.174359 22.2901408,21.1128205 Z" id="Shape"></path>
                    <path d="M16.7464789,26.774359 L9.35492958,26.774359 C8.31549296,26.774359 7.50704225,27.6 7.50704225,28.6615385 C7.50704225,29.7230769 8.31549296,30.5487179 9.35492958,30.5487179 L16.7464789,30.5487179 C17.7859155,30.5487179 18.5943662,29.7230769 18.5943662,28.6615385 C18.5943662,27.6589744 17.7859155,26.774359 16.7464789,26.774359 Z" id="Shape"></path>
                    <path d="M16.7464789,34.3230769 L9.35492958,34.3230769 C8.31549296,34.3230769 7.50704225,35.1487179 7.50704225,36.2102564 C7.50704225,37.2717949 8.31549296,38.0974359 9.35492958,38.0974359 L16.7464789,38.0974359 C17.7859155,38.0974359 18.5943662,37.2717949 18.5943662,36.2102564 C18.5943662,35.2076923 17.7859155,34.3230769 16.7464789,34.3230769 Z" id="Shape"></path>
                    <path d="M38.1126761,23.8846154 C34.4746479,20.1692308 28.6422535,20.1692308 25.0042254,23.8846154 C21.828169,27.1282051 21.4239437,32.1410256 23.8492958,35.7974359 L17.2661972,42.4615385 C16.515493,43.2282051 16.515493,44.4076923 17.2661972,45.1153846 C18.0169014,45.8820513 19.171831,45.8820513 19.8647887,45.1153846 L26.3901408,38.4512821 C29.9704225,40.8692308 34.8788732,40.4564103 38.0549296,37.2717949 C41.7507042,33.5564103 41.7507042,27.6 38.1126761,23.8846154 Z M35.5140845,34.5589744 C33.3197183,36.8 29.8549296,36.8 27.6605634,34.5589744 C25.4661972,32.3179487 25.4661972,28.7794872 27.6605634,26.5384615 C29.8549296,24.2974359 33.3197183,24.2974359 35.5140845,26.5384615 C37.6507042,28.7794872 37.6507042,32.3769231 35.5140845,34.5589744 Z" id="Shape"></path>
                </g>
            </g>
        </g>
    </g>
</svg>